<?xml version="1.0" encoding="UTF-8"?>
<svg id="Layer_2" data-name="Layer 2" xmlns="http://www.w3.org/2000/svg" viewBox="0 0 345 55">
  <defs>
    <style>
      .cls-1, .cls-2 {
        stroke: #000;
        stroke-miterlimit: 10;
      }

      .cls-2 {
        fill: #fcf6e1;
      }
    </style>
  </defs>
  <path class="cls-2" d="M334.27,1.77c-.05,.55-.09,1.1-.13,1.64-1.32,15.75-2.64,31.5-3.96,47.26-3.19,0-6.39,0-9.58,.01-9.69,.01-19.39,.02-29.08,.04-5.75,0-11.49,.01-17.24,.02-9.14,.01-18.28,.02-27.42,.04-6.28,0-12.56,.02-18.83,.02-8.64,.01-17.26,.02-25.9,.03-7.06,.01-14.12,.02-21.18,.03-7.57,0-15.13,.02-22.7,.03-4.95,0-9.91,.01-14.86,.02-44.9,.06-89.8,.12-134.69,.18-1.14,0-2.27,0-3.41,0C4.59,34.59,3.91,18.08,3.22,1.56c48.65,.03,97.3,.06,145.95,.09,3.07,0,6.14,0,9.2,0,9.44,0,18.88,.01,28.32,.02,6.06,0,12.13,0,18.18,.01,8.76,0,17.53,.01,26.29,.02,6.58,0,13.15,0,19.73,.01,8.41,0,16.83,.01,25.24,.02,7.03,0,14.05,0,21.07,.01,7.22,0,14.44,.01,21.66,.01,.65,0,1.3,0,1.95,0,4.48,0,8.95,0,13.44,0Z"/>
  <path class="cls-1" d="M341.78,3.26c-1.14,16.72-2.27,33.45-3.41,50.17-65.09-.04-130.18-.08-195.27-.13-44.81-.03-89.6-.06-134.41-.09v-2.13c44.9-.06,89.8-.12,134.69-.18,4.95,0,9.91-.01,14.86-.02,7.57-.01,15.13-.02,22.7-.03,7.06-.01,14.12-.02,21.18-.03,8.64-.01,17.26-.02,25.9-.03,6.28,0,12.56-.02,18.83-.02,9.14-.01,18.28-.02,27.42-.04,5.75,0,11.49-.01,17.24-.02,9.69-.01,19.39-.03,29.08-.04,3.19,0,6.39,0,9.58-.01,1.32-15.75,2.64-31.5,3.96-47.26,2.54-.05,5.1-.1,7.64-.15Z"/>
</svg>