<?xml version="1.0" encoding="UTF-8"?>
<svg id="Layer_2" data-name="Layer 2" xmlns="http://www.w3.org/2000/svg" viewBox="0 0 352 66">
  <defs>
    <style>
      .cls-1, .cls-2 {
        stroke: #000;
        stroke-miterlimit: 10;
        stroke-width: .75px;
      }

      .cls-2 {
        fill: #fcf6e1;
      }
    </style>
  </defs>
  <g>
    <path d="M24.99,16.58s2.57,1.73,2.57,4.6c0,13.29-8.75,30-16.21,30-3.71,0-8.35-4.25-8.35-9.29,0-10.58,10.87-28.76,15.81-28.76,2.67,0,6.18,1.43,6.18,3.46Zm-15.07,27.33c0,1.83,.59,2.97,1.38,2.97,2.72,0,11.56-16.56,11.56-25.8,0-1.24-.69-1.88-1.19-1.88-3.11,0-11.76,15.12-11.76,24.71Z"/>
    <path d="M46.1,13.32c0-.25,.2-.39,.64-.39,1.78,0,6.72,2.37,7.12,5.34,.89,6.42-.3,21.99-.3,21.99,0,0,9.19-22.49,9.19-25.9,0-.79-.44-.84-.44-1.24s.89-.79,1.78-.79,4.3,1.33,4.3,3.51-2.37,8.4-7.02,18.98c-4.65,10.58-6.82,13.84-7.17,14.73-.35,.89-2.32,1.58-3.06,1.58s-3.51-1.24-3.51-3.9,1.09-24.56,1.09-24.56c0,0-2.87,6.18-5.24,14.33-2.37,8.15-3.71,14.28-5.54,14.28-1.68,0-3.81-1.68-3.81-3.26s.64-3.61,4.5-14.33c3.85-10.72,7.76-18.53,7.76-19.57,0-.49-.3-.54-.3-.79Z"/>
    <path d="M62.76,35.75c.49,0,.84,.99,2.42,.99,.25,0,.74,0,1.38-.05,.94-1.83,1.93-3.85,3.06-5.98,4.79-9.19,9.59-17.05,9.59-17.89,0-.4,0-1.04,.4-1.04s2.32,1.48,3.8,2.17c1.48,.69,4.35,1.43,4.35,3.95,0,2.22-2.08,9.88-3.85,18.24,1.68,.35,2.52,1.09,2.52,1.73,0,.94-1.68,2.42-3.51,3.26-1.48,7.66-1.48,9.83-1.48,10.43,0,.64-.84,.84-1.88,.84s-2.87-.99-2.87-2.37c0-1.09-.05-3.76,.64-8.35-2.32-.05-5.24-.15-7.61-.15-1.73,3.81-2.67,6.52-2.97,8.35-.25,1.48-1.43,1.48-2.27,1.48s-2.82-1.29-2.82-2.77c0-.84,1.04-3.56,2.87-7.56-1.48-.89-2.32-2.97-2.32-3.85,0-.79,.05-1.43,.54-1.43Zm9.39,.64c2.12-.15,4.35-.25,6.23-.35,1.38-6.97,3.56-16.8,3.56-16.8,0,0-4.05,5.88-8.2,13.99l-1.58,3.16Z"/>
    <path d="M117.37,12.72c3.66,0,7.41,3.01,7.41,7.07,0,5.34-1.68,8.99-3.11,14.23-1.48,5.34-2.72,12.75-2.72,14.83,0,1.28-.89,2.47-2.42,2.47s-4-1.88-4-3.06c0-1.33,3.31-11.51,4.3-16.51,1.09-5.44,2.47-10.67,2.47-10.67,0,0-4.74,9.39-7.07,14.28-2.32,4.89-4.99,12.4-6.52,13.44-1.53,1.04-2.87,2.03-3.61,2.03-1.73,0-4.3-1.48-4.3-2.67,0-1.43,3.11-24.71,3.11-24.71,0,0-3.46,7.61-6.52,15.57-3.06,7.96-4.5,12.95-6.38,12.95s-4.2-1.88-4.2-2.72c0-.44,.35-.59,.84-.59s3.46-6.08,6.42-13.05c5.44-12.85,8.55-22.54,10.18-22.54,2.72,0,6.87,2.47,6.87,5.68s-1.43,6.18-2.67,13.05c-1.29,7.02-1.98,11.91-1.98,11.91,0,0,3.36-6.87,6.38-14.18,2.97-7.26,6.33-14.53,6.33-15.96,0-.59,.25-.84,1.19-.84Z"/>
    <path d="M123.11,35.75c.49,0,.84,.99,2.42,.99,.25,0,.74,0,1.38-.05,.94-1.83,1.93-3.85,3.06-5.98,4.79-9.19,9.59-17.05,9.59-17.89,0-.4,0-1.04,.4-1.04s2.32,1.48,3.8,2.17c1.48,.69,4.35,1.43,4.35,3.95,0,2.22-2.08,9.88-3.85,18.24,1.68,.35,2.52,1.09,2.52,1.73,0,.94-1.68,2.42-3.51,3.26-1.48,7.66-1.48,9.83-1.48,10.43,0,.64-.84,.84-1.88,.84s-2.87-.99-2.87-2.37c0-1.09-.05-3.76,.64-8.35-2.32-.05-5.24-.15-7.61-.15-1.73,3.81-2.67,6.52-2.97,8.35-.25,1.48-1.43,1.48-2.27,1.48s-2.82-1.29-2.82-2.77c0-.84,1.04-3.56,2.87-7.56-1.48-.89-2.32-2.97-2.32-3.85,0-.79,.05-1.43,.54-1.43Zm9.39,.64c2.13-.15,4.35-.25,6.23-.35,1.38-6.97,3.56-16.8,3.56-16.8,0,0-4.05,5.88-8.2,13.99l-1.58,3.16Z"/>
    <path d="M151.03,41.59c1.73,0,3.61,1.83,3.61,3.71,0,2.37-2.67,5.73-5.73,5.73-2.03,0-3.71-1.98-3.71-4.05s2.32-3.95,3.26-3.95c.44-.35,1.04-1.43,2.57-1.43Z"/>
    <path d="M161.56,41.59c1.73,0,3.61,1.83,3.61,3.71,0,2.37-2.67,5.73-5.73,5.73-2.03,0-3.71-1.98-3.71-4.05s2.32-3.95,3.26-3.95c.44-.35,1.04-1.43,2.57-1.43Z"/>
    <path d="M172.09,41.59c1.73,0,3.61,1.83,3.61,3.71,0,2.37-2.67,5.73-5.73,5.73-2.03,0-3.71-1.98-3.71-4.05s2.32-3.95,3.26-3.95c.44-.35,1.04-1.43,2.57-1.43Z"/>
  </g>
  <g>
    <path class="cls-2" d="M349,35.34l-4.36,15.02-.4,1.36c-.5-.05-.99-.08-1.49-.12-5.45-.45-10.9-.93-16.36-1.38l1.08-.75,6.31-4.41c-2.81-3.63-7.48-8.71-14.62-13.22-1.67-1.07-3.48-2.09-5.43-3.06-12.5-6.19-24.46-6.86-31.06-7.17-1.36-.07-2.7-.09-3.99-.1-7.24-.03-13.6,.75-19.29,1.76-3.21,.57-6.21,1.2-9.02,1.82-5.2,1.13-11.55,2.75-18.81,5.1-8.02,2.61-17.15,6.15-27.09,10.95-2.01,.98-4.05,2.01-6.13,3.09-1.08-2.65-2.17-5.32-3.26-7.98,13.05-6.33,24.93-10.89,35.21-14.2,2.46-.79,4.83-1.51,7.11-2.17,5.74-1.67,10.87-2.92,15.28-3.88,13.05-2.84,22.09-3.6,27.75-3.74,2.47-.07,4.3-.01,5.55,.05,14.85,.62,25.4,4.37,30.63,6.55,2.48,1.04,5.79,2.45,9.44,4.65,2.38,1.43,4.91,3.2,7.45,5.45,4.27,3.74,7.15,7.53,9.05,10.45,2.14-1.34,4.29-2.69,6.43-4.04Z"/>
    <path class="cls-1" d="M323.37,49.39c2.36-1.42,4.73-2.84,7.09-4.25-2.43-2.8-6.16-6.6-11.34-10.21-2.77-1.93-13.02-8.72-32.9-11.34-9.84-1.29-18.9-1.16-26.83-.33,5.68-1.01,12.05-1.79,19.29-1.76,1.29,.01,2.63,.03,3.99,.1,6.6,.31,18.56,.98,31.06,7.17,1.95,.98,3.77,2,5.43,3.06,7.15,4.5,11.81,9.59,14.62,13.22l-6.31,4.41-1.08,.75c5.46,.45,10.91,.93,16.36,1.38,.44,.87,.87,1.75,1.32,2.62-8.32-.76-16.64-1.51-24.96-2.27l4.25-2.55Z"/>
  </g>
</svg>