<?xml version="1.0" encoding="UTF-8"?>
<svg id="Layer_2" data-name="Layer 2" xmlns="http://www.w3.org/2000/svg" viewBox="0 0 336 178">
  <defs>
    <style>
      .cls-1, .cls-2, .cls-3, .cls-4, .cls-5, .cls-6, .cls-7, .cls-8, .cls-9 {
        stroke: #000;
        stroke-miterlimit: 10;
      }

      .cls-1, .cls-3, .cls-4, .cls-5, .cls-6, .cls-7, .cls-8, .cls-9 {
        stroke-width: .75px;
      }

      .cls-2 {
        fill: #fcf6e1;
      }

      .cls-3 {
        fill: #662d91;
      }

      .cls-4 {
        fill: #ff931e;
      }

      .cls-5 {
        fill: #ff7bac;
      }

      .cls-6 {
        fill: #ff1d25;
      }

      .cls-7 {
        fill: #93278f;
      }

      .cls-8 {
        fill: #7ac943;
      }

      .cls-9 {
        fill: #3fa9f5;
      }
    </style>
  </defs>
  <g>
    <path class="cls-5" d="M213.56,141.4v2.24c-.09,.49-.23,.96-.43,1.39-1.49,3.44-5.88,5.29-7.98,6.18-4.09,1.73-7.66,1.75-10.21,1.75-4.68-.01-10.51-.58-15.61-4.66-.92-.74-3.05-3.27-3.05-6.19,0-.26,.02-.53,.05-.8,.58-4.21,5.91-7.19,10.88-8.53,1.93-.52,3.8-.79,5.33-.79,8.2,0,15.77,1.16,19.81,6.41,.34,.45,.97,1.57,1.21,3.01Z"/>
    <path class="cls-5" d="M213.56,143.63v11.07c-2,1.84-5.28,4.33-9.9,5.82-8.03,2.6-15.03,.56-18.05-.58-3.95-1.5-6.85-3.62-8.7-5.27h0c-.22-.2-.42-.38-.61-.56v-12.02c0,2.92,2.13,5.45,3.05,6.19,5.1,4.08,10.93,4.65,15.61,4.66,2.55,0,6.12-.02,10.21-1.75,2.1-.89,6.49-2.74,7.98-6.18,.2-.44,.34-.9,.43-1.39Z"/>
    <path class="cls-1" d="M213.56,154.7v2.62c-2,1.84-5.28,4.33-9.9,5.82-8.03,2.6-15.03,.56-18.05-.58-3.95-1.5-6.85-3.62-8.7-5.27h0c-.22-.2-.42-.38-.61-.56v-2.62c.19,.18,.39,.36,.61,.55h0c1.85,1.65,4.75,3.77,8.7,5.27,3.03,1.14,10.03,3.18,18.05,.58,4.62-1.5,7.9-3.98,9.9-5.82Z"/>
  </g>
  <g>
    <path class="cls-4" d="M160.97,141.4v2.24c-.09,.49-.23,.96-.43,1.39-1.49,3.44-5.88,5.29-7.98,6.18-4.09,1.73-7.66,1.75-10.21,1.75-4.68-.01-10.51-.58-15.61-4.66-.92-.74-3.05-3.27-3.05-6.19,0-.26,.02-.53,.05-.8,.58-4.21,5.91-7.19,10.88-8.53,1.93-.52,3.8-.79,5.33-.79,8.2,0,15.77,1.16,19.81,6.41,.34,.45,.97,1.57,1.21,3.01Z"/>
    <path class="cls-4" d="M160.97,143.63v11.07c-2,1.84-5.28,4.33-9.9,5.82-8.03,2.6-15.03,.56-18.05-.58-3.95-1.5-6.85-3.62-8.7-5.27h0c-.22-.2-.42-.38-.61-.56v-12.02c0,2.92,2.13,5.45,3.05,6.19,5.1,4.08,10.93,4.65,15.61,4.66,2.55,0,6.12-.02,10.21-1.75,2.1-.89,6.49-2.74,7.98-6.18,.2-.44,.34-.9,.43-1.39Z"/>
    <path class="cls-1" d="M160.97,154.7v2.62c-2,1.84-5.28,4.33-9.9,5.82-8.03,2.6-15.03,.56-18.05-.58-3.95-1.5-6.85-3.62-8.7-5.27h0c-.22-.2-.42-.38-.61-.56v-2.62c.19,.18,.39,.36,.61,.55h0c1.85,1.65,4.75,3.77,8.7,5.27,3.03,1.14,10.03,3.18,18.05,.58,4.62-1.5,7.9-3.98,9.9-5.82Z"/>
  </g>
  <g>
    <path class="cls-6" d="M108.37,141.4v2.24c-.09,.49-.23,.96-.43,1.39-1.49,3.44-5.88,5.29-7.98,6.18-4.09,1.73-7.66,1.75-10.21,1.75-4.68-.01-10.51-.58-15.61-4.66-.92-.74-3.05-3.27-3.05-6.19,0-.26,.02-.53,.05-.8,.58-4.21,5.91-7.19,10.88-8.53,1.93-.52,3.8-.79,5.33-.79,8.2,0,15.77,1.16,19.81,6.41,.34,.45,.97,1.57,1.21,3.01Z"/>
    <path class="cls-6" d="M108.37,143.63v11.07c-2,1.84-5.28,4.33-9.9,5.82-8.03,2.6-15.03,.56-18.05-.58-3.95-1.5-6.85-3.62-8.7-5.27h0c-.22-.2-.42-.38-.61-.56v-12.02c0,2.92,2.13,5.45,3.05,6.19,5.1,4.08,10.93,4.65,15.61,4.66,2.55,0,6.12-.02,10.21-1.75,2.1-.89,6.49-2.74,7.98-6.18,.2-.44,.34-.9,.43-1.39Z"/>
    <path class="cls-1" d="M108.37,154.7v2.62c-2,1.84-5.28,4.33-9.9,5.82-8.03,2.6-15.03,.56-18.05-.58-3.95-1.5-6.85-3.62-8.7-5.27h0c-.22-.2-.42-.38-.61-.56v-2.62c.19,.18,.39,.36,.61,.55h0c1.85,1.65,4.75,3.77,8.7,5.27,3.03,1.14,10.03,3.18,18.05,.58,4.62-1.5,7.9-3.98,9.9-5.82Z"/>
  </g>
  <g>
    <path class="cls-9" d="M55.77,141.44v2.24c-.09,.49-.23,.96-.43,1.39-1.49,3.44-5.88,5.29-7.98,6.18-4.09,1.73-7.66,1.75-10.21,1.75-4.68-.01-10.51-.58-15.61-4.66-.92-.74-3.05-3.27-3.05-6.19,0-.26,.02-.53,.05-.8,.58-4.21,5.91-7.19,10.88-8.53,1.93-.52,3.8-.79,5.33-.79,8.2,0,15.77,1.16,19.81,6.41,.34,.45,.97,1.57,1.21,3.01Z"/>
    <path class="cls-9" d="M55.77,143.67v11.07c-2,1.84-5.28,4.33-9.9,5.82-8.03,2.6-15.03,.56-18.05-.58-3.95-1.5-6.85-3.62-8.7-5.27h0c-.22-.2-.42-.38-.61-.56v-12.02c0,2.92,2.13,5.45,3.05,6.19,5.1,4.08,10.93,4.65,15.61,4.66,2.55,0,6.12-.02,10.21-1.75,2.1-.89,6.49-2.74,7.98-6.18,.2-.44,.34-.9,.43-1.39Z"/>
    <path class="cls-1" d="M55.77,154.74v2.62c-2,1.84-5.28,4.33-9.9,5.82-8.03,2.6-15.03,.56-18.05-.58-3.95-1.5-6.85-3.62-8.7-5.27h0c-.22-.2-.42-.38-.61-.56v-2.62c.19,.18,.39,.36,.61,.55h0c1.85,1.65,4.75,3.77,8.7,5.27,3.03,1.14,10.03,3.18,18.05,.58,4.62-1.5,7.9-3.98,9.9-5.82Z"/>
  </g>
  <g>
    <path class="cls-8" d="M266.17,142.22l-.09,2.23c-.11,.49-.26,.95-.48,1.37-1.62,3.38-6.08,5.06-8.21,5.86-4.16,1.57-7.72,1.45-10.27,1.35-4.68-.19-10.48-.99-15.41-5.26-.89-.78-2.92-3.38-2.81-6.31,.01-.26,.04-.53,.08-.8,.75-4.18,6.18-6.96,11.2-8.1,1.95-.44,3.83-.64,5.36-.58,8.19,.32,15.71,1.78,19.54,7.17,.33,.46,.91,1.6,1.09,3.05Z"/>
    <path class="cls-8" d="M266.15,143.73v11.07c-2,1.84-5.28,4.33-9.9,5.82-8.03,2.6-15.03,.56-18.05-.58-3.95-1.5-6.85-3.62-8.7-5.27h0c-.22-.2-.42-.38-.61-.56v-12.02c0,2.92,2.13,5.45,3.05,6.19,5.1,4.08,10.93,4.65,15.61,4.66,2.55,0,6.12-.02,10.21-1.75,2.1-.89,6.49-2.74,7.98-6.18,.2-.44,.34-.9,.43-1.39Z"/>
    <path class="cls-1" d="M266.15,154.79v2.62c-2,1.84-5.28,4.33-9.9,5.82-8.03,2.6-15.03,.56-18.05-.58-3.95-1.5-6.85-3.62-8.7-5.27h0c-.22-.2-.42-.38-.61-.56v-2.62c.19,.18,.39,.36,.61,.55h0c1.85,1.65,4.75,3.77,8.7,5.27,3.03,1.14,10.03,3.18,18.05,.58,4.62-1.5,7.9-3.98,9.9-5.82Z"/>
  </g>
  <path class="cls-2" d="M49.48,124.01c1.37-.51,3.41-1.33,5.79-2.52,11.21-5.6,18.76-13.84,27.92-26.62,13.09-18.25,10.96-19.95,19.47-30.09,6.98-8.32,16.57-16.91,24.78-21.24,30.99-16.34,57.48,21.32,101.48,12.98,34.08-6.46,60.25-34.09,57.82-38.94-2.51-5.01-38.36,8.83-38.35,8.85,0,.02,47.34-21.64,55.46-10.62,8.48,11.5-20.76,65.46-61.36,72.57-39.2,6.86-76.51-28.13-100.89-14.75-9.41,5.17-9.32,10.47-37.76,31.86-10.74,8.08-18.89,13.31-30.16,16.33-9.78,2.62-18.36,2.63-24.21,2.19Z"/>
  <g>
    <path class="cls-7" d="M318.77,142.22l-.09,2.23c-.11,.49-.26,.95-.48,1.37-1.62,3.38-6.08,5.06-8.21,5.86-4.16,1.57-7.72,1.45-10.27,1.35-4.68-.19-10.48-.99-15.41-5.26-.89-.78-2.92-3.38-2.81-6.31,.01-.26,.04-.53,.08-.8,.75-4.18,6.18-6.96,11.2-8.1,1.95-.44,3.83-.64,5.36-.58,8.19,.32,15.71,1.78,19.54,7.17,.33,.46,.91,1.6,1.09,3.05Z"/>
    <path class="cls-3" d="M318.74,143.73v11.07c-2,1.84-5.28,4.33-9.9,5.82-8.03,2.6-15.03,.56-18.05-.58-3.95-1.5-6.85-3.62-8.7-5.27h0c-.22-.2-.42-.38-.61-.56v-12.02c0,2.92,2.13,5.45,3.05,6.19,5.1,4.08,10.93,4.65,15.61,4.66,2.55,0,6.12-.02,10.21-1.75,2.1-.89,6.49-2.74,7.98-6.18,.2-.44,.34-.9,.43-1.39Z"/>
    <path class="cls-1" d="M318.74,154.79v2.62c-2,1.84-5.28,4.33-9.9,5.82-8.03,2.6-15.03,.56-18.05-.58-3.95-1.5-6.85-3.62-8.7-5.27h0c-.22-.2-.42-.38-.61-.56v-2.62c.19,.18,.39,.36,.61,.55h0c1.85,1.65,4.75,3.77,8.7,5.27,3.03,1.14,10.03,3.18,18.05,.58,4.62-1.5,7.9-3.98,9.9-5.82Z"/>
  </g>
  <g>
    <path d="M88.65,99.83s-.02-.05,0-.08c.1-.09,.92-.3,1.17-.04,.25,.26,.69,1.33,1.24,2.86,.55,1.54,1.08,3.59,.84,3.83-.13,.12-.27,.15-.27,.15,0,0-.07,.19-.17,.28-.1,.1-.51,.22-.63,.1-.42-.44-2.09-2.92-2.29-3.35l.68,2.62c.33,1.31,.53,2.17,.36,2.33-.17,.16-.24,.16-.24,.16,0,0-.09,.15-.19,.24-.1,.09-.76,.37-1.13-.01-.37-.38-.92-1.26-1.57-2.54-.65-1.29-1.02-2.4-1.15-2.53-.13-.13-.16-.24-.13-.27,.03-.03,.97-.2,1.13-.02s.68,1.36,1.17,2.42c.49,1.07,1.11,2.09,1.11,2.09,0,0-.13-.9-.5-2.62-.38-1.74-.65-2.9-.73-3.09-.07-.19-.03-.26,.06-.36,.41-.39,.98-.46,1.38-.05,.4,.41,.79,1.33,1.23,2.11,.44,.78,.88,1.5,.88,1.5,0,0-.27-1.28-.81-2.7-.54-1.42-1.15-2.77-1.3-2.93-.05-.05-.13-.06-.16-.09Z"/>
    <path d="M89.94,98.77s.19,0,.35-.15c.17-.14,.97-1.17,1.11-1.3,.05-.05,.56-.04,.68,.08,.1,.1,.09,.19,0,.38-.09,.19-.8,.8-.72,1.02,0,0,1.02,2.36,1.05,2.39,.08,.08,.26-.2,.51-.51,.36-.44,.35-.55,.42-.61,.06-.06,.12,.03,.18,.09,.09,.09,.36,.46,.18,.75-.23,.36-.79,1.03-.82,1.13s.12,.49,.27,.82c.15,.31,.26,.53,.32,.59,.02,.02,.06,.02,.13-.05,.18-.17,.44-.67,.91-1.14,.16-.16,.48-.28,.6-.16,.11,.11,.2,.34-.03,.68-.25,.35-.57,1.07-.87,1.37-.31,.31-1.27,.5-1.52,.24-.23-.23-.25-.52-.52-1.12-.25-.56-.32-.66-.35-.69-.04-.04-.24-.08-.31-.14-.03-.03-.04-.08,0-.12,.04-.04,.11-.09,.14-.12,.03-.03-.27-.65-.69-1.64-.42-.97-.65-1.43-.75-1.54-.11-.11-.25-.11-.31-.17-.03-.03-.01-.08,0-.09Z"/>
    <path d="M93.08,95.53c.06-.06,.14,.04,.29-.11s.42-.55,.97-1.11c.55-.56,1.1-1.07,1.33-1.1,.23-.03,.62,.04,.77,.19,.12,.12,0,.28-.16,.44-.16,.16-.71,.56-.87,.72-.04,.04,.03,.1,.03,.1,.04,.04,.36,.05,.57,.26,.21,.21,.69,1.18,1.23,2.59,.54,1.41,.87,1.93,1,2.06,.13,.13,.12,.31,.03,.4-.09,.09-.71,.19-1.05-.15-.34-.34-.47-.66-1.03-1.88-.57-1.22-1.08-2.52-1.18-2.62-.07-.07-.11-.04-.19,.04s-.27,.4-.5,.63-.98-.08-1.19-.29c-.07-.07-.12-.13-.06-.19Z"/>
    <path d="M98.23,91.22s.54-.12,.91,.24c1.71,1.66,2.77,4.86,1.84,5.82-.46,.48-1.59,.54-2.24-.08-1.36-1.32-2.34-4.98-1.73-5.62,.33-.34,.95-.62,1.21-.36Zm1.64,5.34c.24,.23,.45,.29,.55,.19,.34-.35-.69-3.55-1.88-4.7-.16-.15-.33-.15-.39-.08-.39,.4,.48,3.4,1.71,4.59Z"/>
    <path d="M98.28,90.22c.06-.06,.14,.04,.29-.11,.15-.15,.41-.55,.95-1.12,.55-.57,1.09-1.08,1.32-1.12,.23-.04,.62,.03,.77,.18,.12,.12,0,.28-.15,.44-.16,.17-.7,.57-.86,.73-.04,.04,.03,.1,.03,.1,.04,.04,.36,.05,.57,.26s.71,1.17,1.26,2.57c.55,1.4,.9,1.92,1.03,2.04,.13,.13,.13,.3,.03,.4-.09,.1-.7,.2-1.05-.14-.34-.33-.48-.65-1.06-1.86-.58-1.21-1.11-2.5-1.21-2.6-.07-.07-.11-.04-.19,.04-.07,.08-.27,.41-.49,.64-.22,.23-.98-.07-1.19-.27-.07-.07-.12-.13-.07-.19Z"/>
    <path d="M100.86,87.24s.28,.1,.54-.17c.76-.8,1.42-1.58,1.68-1.85s.72-.32,.92-.13-.34,.96-.68,1.33c0,.02,.3,.13,.55,.36s1.08,1.83,1.7,3.18c.61,1.35,.78,1.57,.77,1.68s-.06,.22-.14,.3c-.07,.08-.53,.15-.75-.05-.33-.32-2.35-4.52-2.66-4.82-.07-.07-.41,.45-.96,.59-.42,.11-.76-.04-.89-.16-.12-.12-.12-.21-.08-.25Z"/>
    <path d="M105.56,88.51c.06-.06,.23,.01,.42-.2,.03-.03,.09-.1,.16-.19-.13-.35-.27-.72-.41-1.13-.62-1.75-1.07-3.33-1.18-3.44-.05-.05-.14-.13-.09-.18,.05-.05,.48-.12,.75-.23,.27-.11,.72-.4,1.05-.09,.29,.27,1.04,1.48,1.92,2.73,.25-.18,.45-.2,.53-.12,.12,.11,.11,.51,0,.86,.82,1.13,1.11,1.39,1.19,1.46,.08,.08,0,.21-.12,.35s-.48,.26-.66,.09c-.14-.13-.5-.45-1.02-1.1-.29,.3-.66,.67-.95,.98,.29,.69,.53,1.14,.73,1.41,.16,.21,.02,.37-.08,.48-.1,.11-.51,.21-.71,.03-.11-.1-.34-.57-.64-1.3-.3,.09-.67-.06-.79-.17-.1-.1-.18-.18-.12-.25Zm1.23-1.15c.24-.3,.5-.6,.71-.86-.74-1.03-1.77-2.51-1.77-2.51,0,0,.28,1.25,.83,2.78l.22,.59Z"/>
    <path d="M106.82,80.88c.05-.06,.8-.25,1.01-.06s1.01,1.77,1.51,2.78c.51,1.01,1.08,2.22,1.13,2.27,.05,.05,.08,.03,.14-.03,.06-.07,.56-1.02,.79-1.27,.23-.25,1.02-.31,1.18-.16,.16,.14,.08,.36-.1,.56-.18,.2-.52,.51-.75,.76-.23,.25-.3,.57-.45,.73-.14,.16-1.32,.39-1.59,.15-.27-.24-.77-1.24-1.4-2.56-.63-1.32-1.28-2.81-1.44-2.95-.08-.07-.08-.15-.03-.21Z"/>
    <path d="M109.38,78.33s-.04-.07,0-.11c.2-.23,.96-.16,1.16,0,.2,.17,.85,1.2,1.47,2.45,.62,1.25,1.02,2.06,1.08,2.11,.03,.03,.06,.04,.11-.01,.12-.13,.54-.85,.85-1.22,.24-.28,.9-.33,1.05-.2,.15,.13,.16,.28,.02,.44-.14,.17-.35,.31-.56,.57-.22,.26-.46,.88-.65,1.11-.2,.23-.45,.19-.76,.27-.31,.09-.5,.19-.72,0-.22-.19-.94-1.63-1.52-2.77-.58-1.15-1.28-2.47-1.41-2.59-.06-.05-.07-.04-.1-.06Z"/>
    <path d="M112.44,74.37s-.03-.09,.04-.18c.12-.16,.79-.51,1.02-.33,.23,.17,.91,1.88,1.49,3.07,.58,1.18,1.45,2.98,1.55,3.06,.11,.08,.1,.19,.05,.26s-.64,.52-.89,.33c-.25-.19-1.22-2.21-1.22-2.21,0,0-.37,.01-.67-.1-.74-.28-2.71-1.13-2.84-1.22-.12-.09-.22,.11-.28,.07-.06-.04,.02-.28,.12-.41,.28-.38,.9-.61,1.44-.38,.53,.23,1.83,.9,1.83,.9,0,0-1.35-2.65-1.51-2.77-.07-.05-.12-.06-.15-.09Z"/>
    <path d="M117.32,68.74c.17,.13,.29,.77,.45,1.95,.17,1.26,.24,2.37,.33,2.41,.09,.05,.36-.16,.95,.06s1.7,.45,2.08,.3c.16-.06,.31-.14,.37-.09s.05,.56-.12,.77c-.22,.29-.87,.46-1.66,.35s-1.66-.57-1.76-.44c-.1,.13,.2,.58,.43,.98,.23,.4,.79,1.12,.87,1.2,.09,.08,.05,.27-.04,.39-.09,.11-.64,.4-.78,.29s-.75-1.11-1.58-2.41c-.82-1.28-1.72-2.84-1.85-2.95s-.16-.2-.06-.33c.24-.31,.76-.41,1.02-.21,.26,.2,1.15,2.24,1.38,2.43,0,0-.25-1.43-.52-2.67-.28-1.24-.54-1.82-.42-1.98,.12-.16,.74-.2,.91-.07Z"/>
    <path d="M117.84,67.42s-.03-.07,.02-.13c.2-.24,1.1-.65,1.55-.36,.98,.62,2.98,2.57,2.98,2.57,0,0-2.03-3.85-2.5-4.24-.11-.09-.17-.04-.22-.08s0-.21,.1-.34,.68-.44,.98-.19c.3,.25,.88,1.29,1.8,3.15,.92,1.85,1.11,2.53,1.2,2.68,.08,.15-.05,.5-.14,.6-.08,.1-.57,.34-.94,.03-.37-.31-3.25-2.97-3.25-2.97,0,0,.52,1.1,1.36,2.37,.85,1.26,1.53,2.15,1.32,2.4-.19,.23-.67,.33-.89,.15s-.42-.5-1.45-2.27c-1.03-1.76-1.65-3.2-1.79-3.32-.07-.06-.11-.02-.14-.05Z"/>
    <path d="M123.14,62.29s.54-.13,.92,.22c1.75,1.62,2.88,4.79,1.97,5.77-.45,.49-1.57,.58-2.23-.03-1.39-1.29-2.46-4.92-1.86-5.57,.32-.35,.94-.64,1.21-.39Zm1.76,5.3c.24,.22,.46,.28,.56,.18,.33-.36-.77-3.53-1.98-4.65-.16-.15-.33-.14-.39-.07-.38,.41,.56,3.38,1.82,4.55Z"/>
    <path d="M127.96,56.65s-.02-.05,0-.08c.1-.09,.93-.27,1.17,0,.25,.27,.66,1.34,1.17,2.89,.51,1.55,.99,3.62,.74,3.85-.13,.12-.27,.14-.27,.14,0,0-.07,.18-.18,.28-.1,.1-.52,.21-.63,.09-.41-.45-2.02-2.97-2.2-3.41l.61,2.63c.3,1.32,.48,2.18,.31,2.34-.17,.16-.24,.15-.24,.15,0,0-.09,.15-.19,.24-.1,.09-.77,.35-1.13-.04-.36-.39-.89-1.28-1.51-2.58s-.96-2.42-1.09-2.56-.15-.24-.12-.27c.03-.03,.97-.17,1.13,0,.16,.18,.65,1.38,1.11,2.45,.46,1.08,1.06,2.12,1.06,2.12,0,0-.11-.91-.44-2.64-.33-1.75-.58-2.91-.65-3.11-.07-.19-.03-.26,.07-.35,.42-.38,.99-.44,1.38-.02s.76,1.35,1.17,2.14c.42,.79,.84,1.52,.84,1.52,0,0-.24-1.28-.74-2.72-.5-1.44-1.08-2.8-1.23-2.97-.05-.05-.13-.06-.16-.09Z"/>
    <path d="M136.07,51.33s-.01-.05,.03-.08c.11-.07,.96-.08,1.15,.24,.18,.31,.36,1.45,.54,3.07,.18,1.62,.22,3.75-.07,3.92-.15,.09-.29,.08-.29,.08,0,0-.11,.17-.23,.24s-.55,.1-.63-.05c-.31-.53-1.36-3.32-1.45-3.79l.06,2.7c.02,1.36,.02,2.23-.18,2.35-.2,.12-.27,.1-.27,.1,0,0-.12,.12-.24,.19-.11,.07-.83,.18-1.1-.28-.27-.46-.6-1.43-.94-2.84-.34-1.41-.44-2.57-.53-2.73s-.1-.27-.06-.29,.99,.03,1.11,.24c.12,.21,.35,1.48,.58,2.63,.23,1.15,.6,2.29,.6,2.29,0,0,.08-.91,.12-2.67,.04-1.78,.03-2.97,0-3.17-.03-.2,.03-.26,.14-.33,.49-.29,1.06-.23,1.35,.27,.29,.49,.46,1.48,.71,2.34,.24,.86,.51,1.66,.51,1.66,0,0,.03-1.3-.16-2.81s-.48-2.97-.59-3.16c-.04-.06-.11-.09-.14-.13Z"/>
    <path d="M141.71,49.45c.15-.05,.76-.01,.85,.27,.09,.28,0,.52-.11,2.24-.11,1.67-.02,2.39,.02,2.51,.04,.13,.14,.1,.17,.19,.03,.1-.32,.28-.34,.83s.08,.84,.1,.9-.27,.35-.4,.39c-.13,.04-.49-.11-.57-.36-.08-.24-.09-.86-.12-.96-.03-.08-.08-.1-.2-.06s-1.08,.38-1.1,.6c-.02,.23-.03,.93,0,1.06s-.18,.35-.31,.39c-.13,.04-.63-.12-.73-.41-.09-.29-.03-1.15-.07-1.27-.04-.11-.29-.29-.32-.38-.03-.08,0-.16,.09-.19,.08-.03,.15,.02,.25-.02,.05-.02,.04-.12,.05-.28,.01-.16,.2-4,.15-4.15-.04-.14-.12-.13-.14-.16s.05-.15,.3-.23c.24-.08,.77,.06,.86,.34,.18,.57-.17,3.8-.13,3.94,.02,.06,.1,.05,.18,.03l1.04-.33s.09-.06,.08-.28c-.01-.22,.3-3.98,.19-4.42-.02-.07,.04-.13,.2-.18Z"/>
    <path d="M143.33,53.98c.66-1.84,1.72-4.54,1.75-4.75,.03-.25,0-.41,.11-.42,.1-.01,.18,.11,.51,.16,.6,.08,.94,.27,1.02,.95,.08,.63-.44,2.88-.21,5.27,.02,.26-.13,.5-.34,.53-.2,.03-.71-.21-.74-.43,0-.05,0-.36,0-.79-.2,.03-.51,.09-.83,.13-.19,.02-.4,.05-.58,.06-.14,.48-.26,.91-.31,1.21-.02,.12-.15,.19-.28,.2-.13,.02-.55-.28-.57-.44-.01-.11,.11-.56,.3-1.14-.15-.13-.26-.34-.27-.46,0-.06,.04-.14,.08-.14,.06,0,.15,.08,.38,.07Zm.94-.15c.44-.07,.91-.16,1.16-.21,.03-1.16,.08-2.62,.16-3.36-.26,.65-.85,2.2-1.32,3.57Z"/>
    <path d="M148.52,48.93c.86,.02,1.1-.04,1.47-.03,.68,.01,1.15,.48,1.14,.85,0,.17-.1,.24-.31,.23-.19,0-1.03-.01-1.03,.05s.14,.2,.13,.48c0,.31-.64,1.69-1.08,2.87-.44,1.17-.73,1.77-.74,1.98-.01,.21-.16,.27-.28,.27-.23,0-.59-.5-.59-.81,0-.3,.38-1.08,.81-2.2,.43-1.11,1.04-2.41,1.05-2.56,0-.09-.09-.11-.17-.11-.1,0-.62-.01-.79-.16s-.4-.75-.4-.97c0-.04,.02-.07,.05-.07,.04,0,.17,.16,.72,.17Z"/>
    <path d="M155.32,50.55c-.11,.4-.4,.87-1.19,2.03-.82,1.22-1.69,2.45-1.69,2.45,0,0,.65-.4,2.05-1.8,1.38-1.37,2.14-2.35,2.2-2.55,.06-.2,.27-.36,.44-.31,.17,.04,.85,.6,.67,1.29-.18,.69-1.35,2.25-1.84,3.22-.1,.2-.39,.75-.43,.89,0,0,.67-.44,1.37-1.17,1.67-1.76,2.21-2.93,2.43-3.66,.03-.11,.11-.16,.21-.14,.27,.07,.61,.61,.48,1.08-.12,.45-.73,1.54-2.92,3.48-.97,.86-1.67,1.44-2,1.35-.19-.05-.25-.25-.25-.25,0,0-.61-.25-.46-.83,.17-.66,1.35-2.61,1.35-2.61,0,0-.62,.62-1.46,1.46-.8,.8-1.55,1.51-1.88,1.43-.45-.12-.89-.89-.8-1.24,.11-.43,2.43-3.83,2.7-4.87,.03-.1,0-.13,.02-.21,.01-.05,.05-.07,.1-.06,.17,.05,1,.6,.88,1.03Z"/>
    <path d="M161.49,51.82c.25,.09,1.09,.17,1.64,.36,.52,.18,.78,.59,.67,.91-.06,.18-.41,.19-.61,.12-.09-.03-.32-.15-.55-.23-.25-.09-.51-.14-.62-.02-.2,.23-1.62,2.1-1.62,2.1,0,0,.36,.07,.69,.18,.33,.12,.27,.5,.27,.5,0,0,.2,.25,.15,.41-.06,.18-.57,.04-1.08-.07-.5-.1-.69-.22-.92,.02s-.68,.8-.73,.93c0,.02,0,.03,.04,.04,.18,.06,1.08,.08,1.48,.22,.26,.09,.56,.69,.49,.88-.06,.18-.25,.2-.4,.14s-.43-.26-.72-.36c-.27-.09-1.21-.25-1.42-.32-.21-.07-.19-.25-.19-.25,0,0-.44-.29-.3-.7,.14-.42,1.05-1.4,1.05-1.4,0,0,.01-.25,.09-.47,.09-.27,.35-.18,.35-.18l1.8-2.16s-.14-.52-.08-.68c.03-.09,.15-.18,.21-.16,.13,.04,.08,.09,.32,.18Z"/>
    <path d="M163.79,57.4c1.43-1.33,3.63-3.23,3.75-3.4,.14-.21,.2-.36,.29-.33,.09,.03,.11,.18,.38,.38,.49,.35,.7,.67,.47,1.31-.22,.6-1.72,2.35-2.63,4.58-.1,.25-.35,.38-.55,.31-.19-.07-.53-.52-.46-.73,.02-.05,.16-.32,.36-.7-.19-.06-.49-.15-.8-.27-.18-.07-.37-.14-.54-.22-.35,.36-.65,.69-.83,.93-.07,.1-.22,.1-.34,.05-.12-.05-.36-.5-.3-.66,.04-.11,.35-.45,.79-.87-.07-.19-.07-.42-.03-.54,.02-.06,.1-.1,.14-.09,.06,.02,.1,.14,.31,.24Zm.91,.31c.42,.14,.88,.28,1.13,.35,.56-1.02,1.29-2.29,1.69-2.9-.53,.46-1.77,1.55-2.82,2.55Z"/>
    <path d="M170.1,55.16c.07,.02,1.17-.03,1.97,.26,.68,.25,1.1,1.37,.8,2.19-.52,1.42-2.54,1.58-3.18,1.57,.02,.02,.35,.33,.26,.88-.1,.57-.3,1.22,.19,1.4,.17,.06,.34-.03,.41,0,.06,.02,.08,.11,.06,.16-.04,.1-.59,.39-1.08,.21-.81-.3-.81-1.09-.66-1.91,.06-.35,.1-.58-.06-.65-.08-.03-.21-.07-.33,.04-.14,.14-1.03,1.15-1.14,1.41-.07,.17-.29,.2-.38,.17-.07-.02-.46-.6-.36-.87,.09-.26,1.09-1.35,1.13-1.47,.04-.11-.05-.26,.01-.42,.06-.17,.15-.26,.28-.21,.12,.05,.14,.1,.19,.12,.04,.02,1.83-2.14,1.83-2.14,0,0-.18-.66-.14-.79,0-.02,.03-.04,.04-.03,.03,.01,.06,.05,.14,.08Zm1.15,1.06c-.19,.09-1.99,2.11-2.09,2.29,.81,0,2.84-.71,3.2-1.68,.09-.23-.1-.45-.31-.53-.22-.08-.61-.17-.8-.08Z"/>
    <path d="M174.81,56.67c.25,.09,1.09,.18,1.63,.38,.52,.19,.77,.6,.66,.92-.06,.18-.41,.18-.61,.11-.09-.03-.32-.15-.55-.23-.25-.09-.51-.15-.62-.03-.2,.23-1.64,2.08-1.64,2.08,0,0,.36,.07,.69,.19,.33,.12,.26,.51,.26,.51,0,0,.2,.25,.14,.41-.06,.18-.57,.03-1.08-.08-.5-.1-.69-.23-.92,0s-.69,.79-.74,.92c0,.02,0,.03,.04,.04,.18,.07,1.08,.09,1.48,.24,.26,.09,.55,.7,.48,.89-.07,.18-.25,.19-.4,.14s-.43-.27-.71-.37c-.27-.1-1.21-.26-1.42-.34-.21-.07-.19-.26-.19-.26,0,0-.44-.3-.29-.71,.15-.42,1.07-1.38,1.07-1.38,0,0,.01-.25,.09-.47,.1-.27,.35-.17,.35-.17l1.82-2.14s-.13-.52-.07-.69c.03-.09,.15-.18,.22-.16,.12,.04,.08,.09,.32,.18Z"/>
    <path d="M180.37,58.49c.18,.06,.31,.03,.78,.19,.95,.32,1.56,1.42,1.22,2.44-.55,1.63-3.05,4.1-4.62,3.56-.71-.24-.8-.83-.8-.83,0,0-.71-.28-.57-.7,.19-.55,2.67-3.45,3.5-4.48,0,0-.05-.16-.02-.24,.03-.08,.11-.14,.16-.12,.13,.04,.17,.11,.35,.18Zm.31,.95c-.27,.05-3.19,3.79-3.21,3.87-.03,.09,.04,.38,.32,.47,1.13,.38,3.21-2.03,3.68-3.43,.17-.51,.02-.85-.23-.93-.15-.05-.3-.04-.57,.01Z"/>
    <path d="M186.51,62.15c-.69,2.11-3.49,4.25-4.31,3.98-1.19-.39-1.18-1.5-.92-2.27,.53-1.62,3.15-4.22,4.15-3.9,.54,.18,.64,.8,.64,.8,.34,.11,.69,.66,.45,1.38Zm-4.38,2.64c-.11,.33-.11,.52,.06,.58,.6,.19,2.89-2.27,3.38-3.78,.15-.45,0-.61,0-.61-.72-.24-2.96,2.34-3.44,3.81Z"/>
    <path d="M188.42,61.02c.15,.05,.62,.57,.51,.91-.1,.33-3.22,4.16-3.53,4.65-.23,.35-.35,.43-.48,.39s-.49-.54-.37-.91c.12-.37,3.48-4.39,3.65-4.86,.04-.12,.07-.22,.22-.17Z"/>
    <path d="M191.19,62.79c-.13,.42-1.14,2.44-1.54,3.6,.34-.49,1.93-2.52,2.81-3.67,.05-.06,.09-.16,.11-.22,.02-.06,0-.12,.02-.18,.02-.06,.09-.06,.15-.04,.34,.1,.72,.64,.58,1.11-.15,.48-1.42,1.55-2.31,2.61-.89,1.05-1.55,2.32-1.79,2.25-.25-.07-.36-.26-.36-.26,0,0-.27-.05-.43-.09-.12-.04-.08-.24-.02-.41,.06-.21,1.31-3.69,1.31-3.69,0,0-.68,.71-1.55,2.05-.87,1.34-1.05,1.67-1.19,1.68-.13,.01-.19,.04-.31,0-.13-.04-.46-.4-.37-.71,.09-.3,.79-1.19,1.81-2.49,1.02-1.29,1.96-2.38,2.06-2.67,.04-.12,.09-.16,.14-.14,.26,.08,1.01,.77,.85,1.27Z"/>
    <path d="M196.08,63.45c.26,.17,.81,.55,.64,1.11-.11,.36-1.09,1.6-1.38,1.51-.19-.06-.66-.36-.56-.69,.03-.09,.09-.11,.25-.22,.2-.14,.55-.46,.66-.83,.05-.16,0-.21-.09-.24-.43-.13-2.58,1.7-3.15,3.61-.16,.54,0,.84,.23,.91,.52,.15,1.29-.85,1.37-1.11-.35-.22-.55-.65-.45-.99,.03-.1,.07-.12,.12-.1,.09,.03,.31,.19,.71,.3,.16,.05,.36,.03,.42,.05,.17,.05,.4,.51,.35,.69s-.21,.33-.38,.6c-.53,.83-1.5,1.49-2.22,1.27-.81-.24-1.42-1.21-1.06-2.44,.52-1.73,3.15-4.12,4.05-3.85,.25,.07,.31,.18,.49,.41Z"/>
    <path d="M196.14,69.2c-.21,.72-.91,1.58-1.25,1.74-.28,.14-.35,.2-.58,.13-.14-.04-.17-.11-.15-.19,.03-.09,.75-.75,.8-.92,.06-.19-.47-.55-.23-1.37,.11-.38,.51-.71,.85-.61,.6,.18,.7,.71,.56,1.21Z"/>
    <path d="M203.54,65.65c.26,.17,.81,.55,.65,1.1-.11,.37-1.07,1.61-1.37,1.52-.19-.05-.66-.36-.57-.68,.03-.09,.09-.11,.25-.22,.2-.14,.55-.47,.66-.83,.05-.16,0-.21-.1-.24-.43-.13-2.56,1.72-3.12,3.63-.16,.54,0,.84,.23,.91,.52,.15,1.28-.85,1.37-1.12-.35-.21-.56-.65-.46-.99,.03-.1,.07-.12,.12-.1,.09,.03,.32,.18,.71,.3,.16,.05,.36,.03,.42,.05,.17,.05,.41,.51,.35,.69-.05,.19-.21,.34-.38,.6-.52,.84-1.49,1.5-2.21,1.29-.82-.24-1.43-1.2-1.07-2.43,.5-1.73,3.12-4.14,4.02-3.88,.25,.07,.31,.18,.49,.41Z"/>
    <path d="M202.88,70.23c1.33-1.44,3.36-3.5,3.47-3.68,.13-.22,.17-.38,.26-.35,.09,.03,.13,.17,.41,.35,.52,.31,.75,.62,.57,1.27-.17,.61-1.54,2.47-2.27,4.77-.08,.25-.32,.41-.52,.35-.2-.06-.57-.47-.51-.69,.01-.05,.13-.33,.31-.72-.2-.05-.5-.11-.82-.2-.19-.05-.38-.11-.56-.18-.32,.39-.59,.73-.76,.99-.07,.1-.21,.12-.34,.08s-.4-.47-.35-.63c.03-.11,.32-.47,.72-.93-.09-.18-.1-.42-.07-.53,.02-.06,.1-.11,.13-.1,.06,.02,.11,.13,.33,.21Zm.93,.23c.43,.1,.9,.21,1.15,.26,.48-1.06,1.11-2.38,1.46-3.03-.49,.5-1.65,1.69-2.61,2.77Z"/>
    <path d="M210.59,67.57c.19,.05,.66,.38,.54,.82-.33,1.24-2.23,4.32-2.23,4.32,0,0,.82-.81,1.71-1.83,1.48-1.69,1.99-2.38,2.13-2.55,.14-.17,.26-.21,.43-.16,.17,.05,.7,.62,.59,1.07-.13,.48-.72,1.67-1.58,3.18-.82,1.46-.89,1.84-.95,1.99-.06,.15-.29,.18-.38,.16-.09-.02-.7-.54-.62-.85,.12-.44,2.28-4.01,2.28-4.01,0,0-.85,.99-1.69,1.88-1.79,1.87-2.29,2.39-2.45,2.34-.36-.09-.8-.74-.71-1.09,.09-.32,.51-1.04,1.03-2.04,.48-.93,.84-1.87,.87-1.95,0,.02-.7,.96-1.73,2.38-.97,1.33-1.6,2.34-1.93,2.25-.33-.09-.76-.45-.72-.61,.04-.17,.23-.19,.55-.48,1.01-.93,1.87-2.12,2.93-3.5,.94-1.22,1.41-1.72,1.54-1.69,.17,.05,.24,.15,.38,.36Z"/>
    <path d="M215.44,68.94c.26,.06,1.1,.06,1.66,.19,.53,.13,.83,.51,.76,.84-.04,.18-.39,.23-.6,.18-.1-.02-.34-.12-.57-.17-.26-.06-.52-.09-.62,.05-.18,.25-1.39,2.25-1.39,2.25,0,0,.37,.03,.71,.11,.34,.08,.32,.47,.32,.47,0,0,.23,.23,.19,.39-.04,.18-.57,.09-1.08,.04-.51-.05-.71-.15-.92,.11-.21,.26-.59,.86-.63,1,0,.02,.01,.03,.05,.04,.19,.04,1.08-.03,1.49,.07,.27,.06,.62,.63,.58,.83-.04,.19-.22,.22-.38,.18s-.46-.22-.75-.29c-.28-.06-1.23-.13-1.45-.18-.22-.05-.22-.23-.22-.23,0,0-.47-.25-.37-.67,.1-.43,.91-1.5,.91-1.5,0,0-.01-.25,.04-.47,.06-.28,.33-.21,.33-.21l1.57-2.33s-.19-.5-.15-.67c.02-.09,.13-.2,.2-.18,.13,.03,.09,.08,.34,.14Z"/>
    <path d="M221.12,70.93c-.14,.68-1.04,2.04-1.45,1.96-.28-.06-.6-.55-.57-.7s.14-.12,.49-.56c.3-.38,.45-.67,.49-.85,.03-.16-.03-.24-.13-.26-.37-.08-1.36,.92-1.54,1.79-.16,.75,1.07,1.72,.88,2.62-.14,.67-1.05,1.31-1.78,1.16-.62-.13-1.56-1.29-1.46-1.79,.05-.24,.39-.54,.57-.51,.26,.05,.45,1.13,.76,1.2,.33,.07,.67-.26,.75-.65,.22-1.06-.83-1.44-.57-2.69,.21-1.04,1.54-2.26,2.15-2.13,.22,.04,.52,.3,.52,.3,.75,.16,1.02,.56,.91,1.11Z"/>
    <path d="M221.9,74.87c1.11-1.61,2.84-3.93,2.92-4.13,.1-.24,.12-.39,.21-.38,.1,.01,.15,.15,.45,.29,.56,.24,.83,.51,.74,1.18-.09,.63-1.18,2.66-1.58,5.03-.04,.26-.26,.45-.47,.42-.2-.03-.63-.39-.6-.61,0-.05,.08-.35,.2-.76-.2-.02-.51-.04-.84-.09-.19-.03-.39-.05-.58-.1-.26,.43-.49,.81-.61,1.09-.05,.11-.19,.14-.32,.13-.13-.02-.46-.41-.44-.58,.02-.11,.25-.51,.59-1.02-.11-.17-.16-.4-.14-.52,0-.06,.08-.12,.11-.12,.06,0,.13,.12,.35,.16Zm.95,.1c.44,.04,.92,.08,1.17,.1,.33-1.12,.76-2.51,1.03-3.2-.42,.56-1.39,1.9-2.2,3.1Z"/>
    <path d="M227.45,71.24c.07,0,1.11-.37,1.96-.32,.73,.04,1.45,.99,1.4,1.87-.09,1.51-1.98,2.25-2.59,2.42,.03,.01,.43,.21,.5,.77,.07,.57,.06,1.25,.58,1.29,.18,.01,.32-.12,.39-.12,.06,0,.11,.08,.11,.14,0,.11-.45,.54-.97,.51-.87-.05-1.09-.81-1.19-1.64-.04-.36-.07-.59-.25-.6-.09,0-.22,0-.3,.13-.1,.17-.66,1.4-.69,1.68-.02,.19-.22,.28-.31,.27-.07,0-.61-.44-.59-.73,.02-.27,.66-1.61,.66-1.73,0-.12-.12-.24-.11-.41,.01-.18,.07-.29,.21-.28,.13,0,.17,.05,.22,.06,.04,0,1.14-2.58,1.14-2.58,0,0-.36-.58-.36-.71,0-.03,.02-.04,.03-.04,.04,0,.07,.03,.16,.04Zm1.41,.69c-.16,.14-1.3,2.59-1.35,2.79,.78-.23,2.52-1.5,2.58-2.53,.02-.25-.22-.4-.44-.42-.23-.01-.63,.02-.79,.16Z"/>
    <path d="M232.23,71.17c.26-.01,1.08-.24,1.65-.27,.55-.02,.94,.26,.96,.61,0,.19-.31,.32-.53,.33-.1,0-.36-.02-.59,0-.26,.01-.53,.06-.58,.21-.1,.29-.73,2.55-.73,2.55,0,0,.36-.07,.71-.08s.43,.37,.43,.37c0,0,.28,.16,.29,.32,0,.19-.52,.24-1.03,.34-.5,.09-.72,.05-.85,.36-.13,.31-.34,.99-.34,1.13,0,.02,.02,.03,.05,.02,.19,0,1.03-.32,1.46-.34,.27-.01,.77,.44,.78,.64,0,.19-.16,.27-.32,.28s-.5-.08-.8-.07c-.28,.01-1.22,.21-1.44,.22-.22,0-.27-.17-.27-.17,0,0-.52-.11-.54-.54-.02-.44,.47-1.68,.47-1.68,0,0-.08-.24-.09-.47-.01-.28,.26-.3,.26-.3l.88-2.67s-.32-.43-.33-.61c0-.1,.07-.22,.14-.23,.13,0,.11,.06,.37,.05Z"/>
    <path d="M238.05,75.71c.07,.34,.23,.6,.42,.56,.15-.03,.32-.15,.55-.64,.26-.56,.33-1.1,.51-1.14,.16-.03,.56,.22,.6,.41,.08,.39-.57,1.93-1.54,2.14-.56,.12-1.57-.38-1.85-1.68-.34-1.6,.74-5.08,1.65-5.28,.17-.04,.41,.12,.41,.12,.48-.1,1.08,.13,1.19,.67,.1,.45,0,1.93-.39,2.01-.22,.05-.79-.25-.82-.42-.02-.1,.09-.18,.17-.35,.25-.5,.3-.92,.27-1.09-.03-.13-.14-.15-.2-.14-.6,.13-1.33,3.15-.97,4.82Z"/>
    <path d="M243.67,69.81c.94,2.02,.35,5.49-.44,5.86-1.13,.53-1.89-.3-2.23-1.03-.72-1.54-.57-5.24,.38-5.68,.51-.24,1.02,.15,1.02,.15,.32-.15,.95,.02,1.28,.71Zm-1.4,4.92c.15,.31,.27,.46,.44,.38,.57-.27,.57-3.63-.1-5.08-.2-.43-.42-.44-.42-.44-.69,.32-.57,3.73,.08,5.14Z"/>
    <path d="M245.06,67.17c.17-.1,.74-.2,.97,.19,.65,1.11,1.5,4.63,1.5,4.63,0,0,0-1.15-.09-2.5-.15-2.24-.29-3.1-.31-3.31-.02-.21,.03-.33,.19-.42,.15-.09,.94-.06,1.17,.34,.25,.43,.67,1.69,1.14,3.36,.45,1.61,.68,1.93,.75,2.08,.07,.15-.07,.33-.16,.38-.08,.04-.88,.11-1.04-.16-.23-.39-1.23-4.45-1.23-4.45,0,0,.11,1.3,.14,2.53,.06,2.59,.08,3.31-.06,3.39-.32,.19-1.09,.05-1.28-.27-.17-.29-.38-1.1-.72-2.17-.32-1-.74-1.92-.77-1.99,0,.02,.19,1.17,.47,2.91,.26,1.63,.54,2.79,.24,2.96-.3,.17-.85,.22-.94,.08-.09-.15,.03-.3,.05-.73,.05-1.37-.19-2.82-.41-4.55-.2-1.53-.23-2.21-.11-2.29,.15-.09,.28-.07,.52-.02Z"/>
    <path d="M249.4,64.41c.13-.09,.83-.11,1.03,.19,.19,.29,1.13,5.14,1.3,5.69,.12,.4,.11,.54-.01,.62-.12,.08-.73,.03-.94-.3-.21-.33-1.13-5.49-1.38-5.92-.07-.1-.12-.19,.01-.28Z"/>
    <path d="M252.51,63.39c.25,.37,1.17,2.42,1.82,3.47-.16-.57-.73-3.09-1.07-4.5-.02-.07-.06-.17-.1-.23-.03-.05-.09-.08-.13-.13-.03-.05,.01-.11,.07-.14,.29-.2,.95-.16,1.23,.25,.28,.42,.31,2.08,.56,3.44,.26,1.35,.82,2.67,.62,2.81-.21,.14-.42,.11-.42,.11,0,0-.21,.18-.34,.27-.1,.07-.23-.09-.33-.24-.12-.18-2.04-3.35-2.04-3.35,0,0,.12,.97,.61,2.49,.49,1.52,.64,1.87,.55,1.98-.07,.11-.09,.17-.19,.24-.11,.07-.6,.11-.78-.17-.17-.26-.42-1.36-.79-2.98-.36-1.61-.61-3.03-.77-3.28-.07-.1-.07-.17-.02-.2,.23-.15,1.23-.29,1.52,.14Z"/>
    <path d="M255.96,60.05c.29-.1,.93-.29,1.27,.18,.22,.31,.59,1.84,.34,2.02-.16,.11-.69,.3-.89,.02-.06-.08-.03-.14-.02-.33,.02-.24-.02-.72-.24-1.03-.1-.14-.17-.13-.25-.07-.37,.26-.25,3.08,.9,4.7,.33,.46,.65,.52,.86,.38,.44-.31,.13-1.53-.02-1.76-.39,.14-.86,.03-1.06-.26-.06-.09-.05-.13,0-.16,.08-.06,.34-.13,.68-.37,.14-.1,.25-.26,.3-.3,.14-.1,.65,0,.76,.16s.13,.37,.24,.67c.33,.93,.25,2.09-.37,2.53-.69,.49-1.83,.37-2.57-.67-1.04-1.47-1.3-5.02-.53-5.56,.21-.15,.33-.13,.63-.13Z"/>
    <path d="M261.4,57.05c.42,.55,.85,2.14,.51,2.39-.23,.17-.81,.09-.9-.03-.09-.12,0-.19-.1-.73-.09-.47-.21-.79-.31-.93-.1-.13-.2-.14-.28-.08-.3,.23-.21,1.63,.32,2.34,.46,.62,2,.34,2.55,1.07,.41,.54,.29,1.65-.31,2.11-.5,.38-2,.32-2.31-.09-.15-.2-.15-.65,0-.76,.21-.16,1.14,.41,1.4,.22,.27-.2,.25-.67,0-.99-.65-.86-1.62-.33-2.4-1.35-.64-.85-.68-2.65-.18-3.02,.18-.13,.57-.19,.57-.19,.61-.46,1.1-.4,1.43,.05Z"/>
    <path d="M264.89,55.17c1.37,1.75,1.59,5.27,.91,5.81-.98,.77-1.9,.14-2.41-.5-1.05-1.34-1.76-4.97-.93-5.62,.45-.35,1.03-.08,1.03-.08,.28-.22,.93-.2,1.4,.4Zm-.24,5.11c.21,.27,.37,.39,.52,.27,.49-.39-.28-3.67-1.26-4.92-.29-.37-.51-.33-.51-.33-.6,.47,.3,3.76,1.26,4.98Z"/>
    <path d="M266.58,52.36c.37-.09,1.13-.02,1.56,.5,.97,1.18,2.13,4.68,1.1,5.53-.73,.6-1.66,.58-2.4-.32-1.57-1.92-1.86-5.09-1.27-5.57,.27-.22,.83-.35,1.01-.13Zm1.34,5.2c.25,.31,.68,.6,.84,.47,.41-.34-.52-3.4-1.5-4.58-.3-.36-.59-.49-.73-.37-.4,.33,.04,2.85,1.39,4.49Z"/>
    <path d="M269.59,50.24c.29,.34,1.45,2.27,2.22,3.23-.23-.55-1.1-2.98-1.6-4.34-.03-.07-.08-.16-.13-.22-.04-.05-.1-.06-.14-.11-.04-.05,0-.11,.05-.15,.27-.23,.92-.27,1.25,.11,.33,.38,.55,2.02,.97,3.35,.42,1.31,1.13,2.55,.95,2.71-.19,.17-.41,.16-.41,.16,0,0-.18,.21-.31,.31-.09,.08-.24-.06-.36-.2-.14-.17-2.42-3.08-2.42-3.08,0,0,.24,.95,.9,2.4,.66,1.45,.85,1.78,.79,1.9-.06,.12-.07,.18-.16,.26-.1,.09-.58,.18-.8-.07-.2-.23-.58-1.3-1.14-2.86-.54-1.55-.96-2.93-1.15-3.17-.08-.09-.09-.16-.04-.2,.21-.18,1.19-.44,1.53-.04Z"/>
    <path d="M271.1,47.35c.22-.19,.45-.26,.89,.23,.01,.01,1.58,2.51,1.83,3.34,.18,.59,.42,.87,.24,1.03-.12,.11-.26,.02-.49-.23-.66-.74-2.28-3.6-2.37-3.71-.09-.11-.22-.17-.28-.23-.11-.12-.07-.21,.18-.44Zm3.88,5.09c.34,.38,.29,.81,.05,1.02-.27,.24-.53,.19-.71,0-.35-.4-.23-.93,0-1.15,.2-.18,.44-.11,.65,.13Z"/>
    <path d="M272.59,45.99c.22-.2,.45-.27,.89,.21,.01,.01,1.61,2.49,1.87,3.31,.19,.58,.43,.86,.25,1.03-.12,.11-.26,.03-.49-.22-.67-.73-2.32-3.57-2.42-3.67s-.22-.17-.28-.22c-.11-.12-.07-.21,.18-.44Zm3.94,5.04c.35,.38,.3,.8,.06,1.02-.27,.25-.53,.2-.71,0-.36-.39-.24-.93,0-1.15,.2-.18,.44-.11,.65,.12Z"/>
    <path d="M274.06,44.61c.21-.2,.45-.27,.9,.2,.01,.01,1.65,2.47,1.92,3.29,.2,.58,.44,.86,.26,1.03-.12,.11-.26,.03-.49-.22-.68-.72-2.37-3.54-2.47-3.64-.1-.1-.23-.16-.28-.22-.11-.12-.07-.21,.17-.44Zm4.01,4.99c.35,.37,.31,.8,.08,1.02-.26,.25-.53,.2-.71,0-.36-.39-.25-.93-.02-1.15,.2-.19,.44-.12,.65,.11Z"/>
  </g>
</svg>