<?xml version="1.0" encoding="UTF-8"?>
<svg id="Layer_2" data-name="Layer 2" xmlns="http://www.w3.org/2000/svg" viewBox="0 0 428.5 44">
  <defs>
    <style>
      .cls-1, .cls-2, .cls-3 {
        stroke: #000;
        stroke-miterlimit: 10;
        stroke-width: .75px;
      }

      .cls-4 {
        fill: #3fa9f5;
      }

      .cls-2 {
        fill: none;
      }

      .cls-3 {
        fill: #ff931e;
      }
    </style>
  </defs>
  <g>
    <path d="M20.73,8.7c0-.21,.25-.37,.79-.37,.95,0,4.1,1.53,4.1,2.9s-4.52,8.7-7.34,14.17c-2.82,5.47-7.13,13.76-7.13,14.38s-.46,.91-.83,.91-3.73-.95-3.73-2.4,4.89-10.73,4.89-10.73c0,0-1.08-1.37-1.49-2.78-.99-3.56-3.36-13.34-3.36-14.05s-1.04-.54-1.04-.87,1.12-.7,1.86-.7c2.2,0,4.81,1.7,5.43,4.35s1.74,9.41,1.74,9.41c0,0,6.18-12.47,6.18-13.39,0-.41-.08-.62-.08-.83Z"/>
    <path d="M39.75,11.47s2.16,1.45,2.16,3.85c0,11.15-7.34,25.16-13.59,25.16-3.11,0-7-3.56-7-7.79,0-8.87,9.12-24.12,13.26-24.12,2.24,0,5.18,1.2,5.18,2.9Zm-12.64,22.92c0,1.53,.5,2.49,1.16,2.49,2.28,0,9.7-13.88,9.7-21.63,0-1.04-.58-1.57-.99-1.57-2.61,0-9.86,12.68-9.86,20.72Z"/>
    <path d="M65.32,10.23c0,1.2-.75,4.06-4.14,12.43-3.36,8.25-7.21,17.61-12.02,17.61-2.32,0-2.28-.41-4.19-1.08-1.62-.58-3.56-2.16-3.56-6.76s2.15-9.9,4.1-14.38c1.95-4.48,3.77-8.83,3.77-9.24s.12-.62,.5-.62c1.24,0,4.19,1.87,4.19,3.27s-1.7,4.52-4.39,10.9c-2.69,6.38-3.11,9.57-3.11,11.52s.58,3.27,1.24,3.27c2.53,0,6.13-9.78,8.99-17.28,1.91-4.97,3.23-9.41,3.36-10.44,.12-.87,1.12-1.66,1.66-1.66,1.57,0,3.61,1.24,3.61,2.45Z"/>
    <path d="M68.17,9.69c.12,0,.29,.21,.62,.21s5.47-1.66,8.5-1.66c5.51,0,8.41,3.61,8.41,7.38,0,6.13-8.91,11.44-12.47,12.47,0,0,1.99,1.45,2.9,3.98,.91,2.53,2.07,5.55,2.9,6.47,.83,.91,1.37,.95,1.37,1.37s-.66,1.2-3.36,1.2c-3.52,0-4.56-3.4-5.84-7.5-1.28-4.1-1.7-4.27-2.2-4.27s-1.41,2.49-2.49,6.05c-.95,3.19-.91,4.14-.91,4.64s-.87,.87-1.33,.87-2.9-1.04-2.9-3.07,2.24-7.42,2.24-7.71-1.95-.79-1.95-1.74c0-.58,.83-2.07,1.82-2.07s1.08,.12,1.41-.08c.33-.21,1.08-2.4,2.4-6.22,1.33-3.81,2.4-6.59,2.4-7.13s-1.82-2.28-1.82-2.78c0-.21,.17-.41,.29-.41Zm6.34,3.19s.17,.62-.08,1.37-3.81,10.07-3.73,10.73c2.24,0,11.52-7.71,11.52-11.52,0-.99-.62-1.86-2.32-1.86-3.81,0-5.39,1.28-5.39,1.28Z"/>
    <path d="M112.31,13.21c0,2.74-2.36,9.41-3.65,9.41s-3.56-1.33-3.56-1.82,.54-.21,1.04-1.28c.5-1.08,1.7-5.1,1.7-5.88,0-.58-.17-.83-.58-.83s-3.65,1.95-7.17,10.03c-3.52,8.08-2.78,12.06-2.78,12.97s.5,1.49,1.04,1.49c1.66,0,5.68-6.51,5.68-7.42s-1.99-2.45-1.99-3.44c0-.37,.54-.62,2.65-.62s4.56,.41,4.56,2.03c0,5.88-5.47,12.97-10.07,12.97-3.15,0-7.09-4.6-7.09-9.37s6.59-22.79,13.51-22.79c2.65,0,6.71,1.82,6.71,4.56Z"/>
    <path d="M111.15,30.5c4.14-8.16,10.69-20.06,10.94-21.01,.29-1.16,.29-1.91,.75-1.91s.79,.62,2.28,1.04c2.74,.75,4.19,1.82,4.19,5.01,0,2.98-3.77,13.1-4.14,24.37-.04,1.24-.91,2.24-1.91,2.24s-3.19-1.41-3.19-2.44c0-.25,.17-1.66,.46-3.65-.95,.04-2.4,.12-3.94,.12-.91,0-1.87,0-2.74-.08-.95,2.15-1.74,4.06-2.16,5.43-.17,.54-.79,.79-1.41,.79s-2.4-1.62-2.4-2.4c0-.54,.83-2.53,2.07-5.1-.62-.7-.99-1.74-.99-2.32,0-.29,.29-.62,.46-.62,.29,0,.66,.46,1.74,.54Zm4.48-.12c2.07-.08,4.31-.21,5.51-.29,.83-5.39,1.95-12.14,2.74-15.5-1.58,2.86-5.26,9.7-8.25,15.79Z"/>
    <path d="M143.3,8.82c.91,0,3.44,.95,3.44,3.07,0,6.01-4.93,22.25-4.93,22.25,0,0,2.74-4.64,5.55-10.32,4.68-9.41,6.18-13.18,6.59-14.09,.41-.91,.91-1.24,1.74-1.24s3.94,1.99,3.94,4.14c0,2.32-1.28,8.41-3.36,16.29-1.99,7.58-1.82,9.41-1.91,10.15s-1.08,1.16-1.53,1.16c-.41,0-3.81-1.62-3.81-3.11,0-2.11,5.55-20.89,5.55-20.89,0,0-2.65,5.51-5.43,10.53-5.88,10.61-7.54,13.55-8.29,13.55-1.74,0-4.52-2.4-4.52-4.1,0-1.58,1.08-5.35,2.24-10.49,1.08-4.81,1.57-9.49,1.62-9.86,0,.08-2.03,5.18-5.01,12.85-2.82,7.21-4.43,12.52-6.05,12.52s-3.98-1.12-3.98-1.91c0-.83,.83-1.12,1.91-2.82,3.44-5.43,5.93-11.85,9.12-19.35,2.82-6.67,4.31-9.49,4.97-9.49,.83,0,1.28,.37,2.16,1.16Z"/>
    <path d="M167.67,9.48c1.24,0,5.1-.91,7.79-.91s4.35,1.41,4.35,3.03c0,.87-1.53,1.45-2.53,1.45-.46,0-1.66-.17-2.78-.17-1.24,0-2.49,.17-2.78,.87-.54,1.33-3.94,11.77-3.94,11.77,0,0,1.7-.25,3.36-.25s1.95,1.82,1.95,1.82c0,0,1.29,.79,1.29,1.57,0,.87-2.49,1.04-4.89,1.37-2.36,.33-3.4,.08-4.06,1.49-.66,1.41-1.78,4.56-1.82,5.22,0,.08,.08,.12,.25,.12,.91,0,4.89-1.29,6.88-1.29,1.28,0,3.52,2.2,3.52,3.15s-.79,1.24-1.53,1.24-2.32-.5-3.73-.5c-1.33,0-5.76,.75-6.8,.75s-1.24-.83-1.24-.83c0,0-2.4-.62-2.4-2.65s2.53-7.79,2.53-7.79c0,0-.33-1.12-.33-2.2,0-1.33,1.28-1.33,1.28-1.33l4.64-12.31s-1.41-2.07-1.41-2.9c0-.46,.37-1.04,.7-1.04,.62,0,.5,.29,1.7,.29Z"/>
    <path d="M204.88,12.97c0,3.23-2.86,10.36-4.81,10.36-1.33,0-3.27-1.95-3.27-2.65s.54-.7,1.7-3.03c1-2.03,1.45-3.52,1.45-4.35,0-.75-.37-1.08-.83-1.08-1.78,0-5.39,5.51-5.39,9.66,0,3.61,6.51,6.88,6.51,11.19,0,3.19-3.56,7-7.09,7-2.94,0-8.37-4.43-8.37-6.84,0-1.16,1.29-2.86,2.11-2.86,1.24,0,3.11,4.77,4.6,4.77,1.58,0,2.82-1.82,2.82-3.69,0-5.06-5.14-5.8-5.14-11.81,0-4.97,4.93-11.81,7.83-11.81,1.04,0,2.65,.91,2.65,.91,3.61,0,5.22,1.62,5.22,4.23Z"/>
    <path d="M209.19,8.9c4.02,0,5.14-.29,6.88-.29,3.19,0,5.43,2.11,5.43,3.85,0,.79-.46,1.12-1.41,1.12s-4.81,.04-4.81,.33,.66,.91,.66,2.24c0,1.45-2.82,7.96-4.77,13.51-1.95,5.51-3.23,8.33-3.27,9.32-.04,.99-.75,1.28-1.28,1.28-1.08,0-2.82-2.28-2.82-3.73s1.66-5.1,3.56-10.36c1.91-5.22,4.64-11.4,4.64-12.06,0-.41-.41-.5-.79-.5-.46,0-2.9,0-3.73-.66-.83-.66-1.95-3.48-1.95-4.48,0-.21,.08-.33,.25-.33,.21,0,.79,.75,3.4,.75Z"/>
    <path d="M217.06,30.5c4.14-8.16,10.69-20.06,10.94-21.01,.29-1.16,.29-1.91,.75-1.91s.79,.62,2.28,1.04c2.73,.75,4.19,1.82,4.19,5.01,0,2.98-3.77,13.1-4.14,24.37-.04,1.24-.91,2.24-1.91,2.24s-3.19-1.41-3.19-2.44c0-.25,.17-1.66,.46-3.65-.95,.04-2.4,.12-3.94,.12-.91,0-1.86,0-2.74-.08-.95,2.15-1.74,4.06-2.15,5.43-.17,.54-.79,.79-1.41,.79s-2.4-1.62-2.4-2.4c0-.54,.83-2.53,2.07-5.1-.62-.7-.99-1.74-.99-2.32,0-.29,.29-.62,.46-.62,.29,0,.66,.46,1.74,.54Zm4.48-.12c2.07-.08,4.31-.21,5.51-.29,.83-5.39,1.95-12.14,2.73-15.5-1.57,2.86-5.26,9.7-8.25,15.79Z"/>
    <path d="M240.73,8.9c4.02,0,5.14-.29,6.88-.29,3.19,0,5.43,2.11,5.43,3.85,0,.79-.46,1.12-1.41,1.12s-4.81,.04-4.81,.33,.66,.91,.66,2.24c0,1.45-2.82,7.96-4.77,13.51-1.95,5.51-3.23,8.33-3.27,9.32-.04,.99-.75,1.28-1.28,1.28-1.08,0-2.82-2.28-2.82-3.73s1.66-5.1,3.56-10.36c1.91-5.22,4.64-11.4,4.64-12.06,0-.41-.41-.5-.79-.5-.46,0-2.9,0-3.73-.66-.83-.66-1.95-3.48-1.95-4.48,0-.21,.08-.33,.25-.33,.21,0,.79,.75,3.4,.75Z"/>
    <path d="M267.62,12.97c0,3.23-2.86,10.36-4.81,10.36-1.33,0-3.27-1.95-3.27-2.65s.54-.7,1.7-3.03c1-2.03,1.45-3.52,1.45-4.35,0-.75-.37-1.08-.83-1.08-1.78,0-5.39,5.51-5.39,9.66,0,3.61,6.51,6.88,6.51,11.19,0,3.19-3.56,7-7.09,7-2.94,0-8.37-4.43-8.37-6.84,0-1.16,1.29-2.86,2.11-2.86,1.24,0,3.11,4.77,4.6,4.77,1.58,0,2.82-1.82,2.82-3.69,0-5.06-5.14-5.8-5.14-11.81,0-4.97,4.93-11.81,7.83-11.81,1.04,0,2.65,.91,2.65,.91,3.61,0,5.22,1.62,5.22,4.23Z"/>
    <path d="M283,8.82c1.24,.54,3.9,1.53,3.9,4.31,0,2.94-2.94,8.37-4.19,8.37s-3.27-2.4-3.27-3.07c0-.21,.29-.33,.66-.62,.62-.5,2.49-3.61,2.49-5.72,0-.7-.46-1.12-1.08-1.12s-4.39,4.39-4.39,8.66,4.89,8.12,4.89,13.22c0,4.27-5.14,7.79-8.99,7.79-4.64,0-7.92-4.77-7.92-9.28,0-1.82,.46-3.65,.46-4.39s.12-1.08,.5-1.08,4.89,1.53,4.89,3.77c0,.66-.37,1.95-.37,3.32,0,2.86,1.16,4.85,2.11,4.85,1.41,0,3.52-2.86,3.52-6.55s-4.35-7.63-4.35-12.85c0-4.89,5.68-10.65,7.92-10.65,1.12,0,1.99,.5,3.23,1.04Z"/>
  </g>
  <path class="cls-4" d="M267,2.5l-9.38,8.66c-3.09,2.91-6.23,5.81-9.07,8.92-.34,.39-.69,.79-.95,1.18-.04,.05-.06,.09-.08,.13-.02,.04-.05,.09-.03,.07,0-.03-.01,.05,0-.07,0-.12-.07-.18-.15-.27-.04-.04-.13-.07-.14-.07-.01,0-.03-.01-.05-.01-.05,0-.01,0-.01,0,.11-.02,.38-.13,.59-.24,.9-.46,1.8-1.04,2.69-1.6,1.77-1.15,3.52-2.36,5.26-3.57l10.45-7.34c.88-.61,1.76-1.21,2.67-1.79,.45-.29,.91-.58,1.4-.86,.27-.14,.46-.27,.9-.42,.09-.02,.08-.03,.27-.05,.08,0,.15,0,.23,0,.2,.03,.45,.18,.57,.34,.13,.16,.2,.45,.17,.64-.01,.07-.03,.15-.06,.22-.07,.18-.08,.16-.12,.25-.13,.21-.23,.32-.33,.44-.79,.87-1.58,1.54-2.39,2.26l-2.42,2.1c-3.24,2.77-6.49,5.5-9.66,8.32-1.58,1.41-3.15,2.83-4.6,4.32-.36,.37-.71,.75-1.04,1.13-.32,.37-.64,.79-.79,1.09-.04,.07-.05,.13-.04,.07,0,0,0-.05,0-.09,0-.04-.01-.08-.04-.16-.04-.13-.2-.28-.27-.32-.17-.09-.15-.05-.1-.06,.06,0,.15,0,.25-.02,.41-.07,.9-.22,1.37-.39,1.92-.69,3.84-1.61,5.73-2.53,1.9-.93,3.78-1.9,5.66-2.89l2.85-1.46,.38-.18,.21-.1,.15-.06s.08-.03,.18-.05c-.49-.34,2.26,.46,.95,1.66-.1,.1-.12,.1-.18,.16l-.07,.05-.12,.07-.2,.11-.36,.2-1.42,.75-5.63,2.98c-1.86,1.01-3.71,2.04-5.52,3.12-1.8,1.08-3.61,2.2-5.17,3.47-.38,.32-.75,.66-.99,.97-.12,.14-.19,.32-.17,.26,.01-.04-.01-.19-.08-.26-.05-.07-.07-.06-.02-.04,.2,.1,.73,.17,1.2,.17,.49,.01,1,0,1.51-.05,2.06-.15,4.15-.49,6.24-.83l3.16-.51c.53-.08,1.06-.16,1.61-.22,.28-.03,.55-.06,.86-.07,.16,0,.31-.01,.54,.02,.14,.05,.22-.03,.63,.26,.06,.03,.25,.27,.29,.45,.05,.17,.04,.39-.02,.56-.07,.18-.2,.35-.25,.38-.26,.24-.39,.29-.54,.37-.14,.08-.28,.14-.41,.2-.27,.12-.52,.22-.78,.32-.51,.19-1.02,.37-1.53,.54l-3.05,.98-6.09,1.89c-2.01,.65-4.06,1.28-5.96,2.08-.23,.1-.46,.21-.68,.32-.11,.06-.21,.11-.29,.17-.09,.05-.16,.13-.15,.11-.02,.01,.1-.12,.04-.33-.07-.22-.18-.24-.16-.24,0,0,.09,.04,.19,.05,.21,.04,.46,.06,.71,.07,1.01,.03,2.07-.03,3.13-.09,2.11-.14,4.22-.35,6.34-.55,2.12-.19,4.24-.39,6.37-.54,1.07-.06,2.12-.15,3.24-.07,.14,.01,.28,.03,.45,.07,.09,.03,.17,.03,.31,.15,.05,.03,.16,.2,.14,.32,0,.16-.06,.2-.1,.27-.31,.32-.54,.37-.8,.5-.51,.21-1.01,.39-1.53,.55-4.08,1.27-8.23,2.2-12.38,3.15,2.05-.57,4.1-1.15,6.14-1.75,2.04-.6,4.08-1.2,6.07-1.91,.5-.18,.99-.37,1.45-.59,.21-.1,.49-.26,.55-.33,0,.01-.01,0-.03,.09-.01,.05,.06,.15,.06,.15,.04,.03-.01,0-.05,0-.09-.02-.22-.03-.34-.04-1.01-.03-2.08,.08-3.13,.18-2.11,.22-4.22,.49-6.33,.76-2.11,.26-4.23,.51-6.36,.7-1.07,.09-2.13,.18-3.25,.16-.28,0-.56-.02-.88-.07-.16-.03-.33-.05-.57-.17-.11-.07-.33-.17-.43-.52-.08-.34,.08-.6,.15-.69,.35-.42,.58-.49,.84-.66,.26-.14,.51-.26,.76-.38,2-.89,4.02-1.56,6.04-2.26l6.06-2.02,3-1.03c.49-.18,.99-.36,1.46-.55,.24-.1,.47-.19,.69-.3,.11-.05,.22-.1,.31-.15,.09-.04,.19-.13,.12-.07,0,0-.1,.1-.13,.22-.06,.14-.06,.32-.02,.46,.02,.15,.2,.35,.23,.37,.31,.21,.24,.12,.26,.14-.03,0-.15,0-.26,0-.22,.01-.48,.04-.73,.07-.51,.06-1.03,.14-1.54,.23l-3.14,.53c-2.11,.35-4.21,.71-6.4,.89-.55,.04-1.1,.07-1.68,.06-.59-.03-1.15,0-1.93-.34-.19-.09-.44-.23-.65-.51-.22-.28-.31-.71-.27-1.01,.09-.59,.33-.87,.52-1.15,.41-.53,.83-.9,1.26-1.27,1.73-1.43,3.55-2.55,5.38-3.68,1.84-1.11,3.7-2.16,5.57-3.2l5.63-3.04,1.39-.75,.33-.19,.15-.09,.05-.03h.01s-.03,0-.1,.09c-1.27,1.16,1.44,1.96,.91,1.63,.06-.01,.1-.03,.08-.02l-.04,.02-.15,.07-.34,.17-2.82,1.46c-1.89,.97-3.8,1.94-5.73,2.87-1.94,.92-3.87,1.84-5.96,2.58-.53,.18-1.06,.35-1.7,.46-.16,.02-.34,.04-.55,.04-.21-.01-.46,0-.87-.22-.19-.1-.43-.36-.52-.62-.06-.15-.07-.25-.08-.35,0-.1,0-.23,0-.29,.04-.32,.14-.51,.22-.68,.34-.65,.7-1.05,1.07-1.49,.37-.42,.75-.82,1.13-1.21,1.53-1.55,3.13-2.97,4.73-4.38,3.21-2.81,6.5-5.53,9.74-8.27,1.59-1.36,3.3-2.76,4.68-4.16,.07-.08,.15-.18,.16-.19-.01,.03,.02-.05-.03,.07-.01,.04-.02,.08-.02,.13-.03,.16,.03,.42,.15,.55,.09,.15,.31,.28,.49,.3,.04,0,.09,.01,.13,.01,.13-.02,.04,0,.07,0-.07,.01-.35,.15-.55,.26-.44,.24-.89,.51-1.33,.78-.89,.55-1.78,1.13-2.67,1.71l-10.6,7.1c-1.77,1.18-3.55,2.35-5.37,3.48-.92,.56-1.82,1.12-2.83,1.6-.27,.12-.48,.24-.9,.32-.07,0-.09,.02-.21,0-.05,0-.1-.01-.15-.02-.05,0-.16-.07-.23-.12-.16-.11-.19-.27-.22-.45-.01-.1,0-.13,0-.16l.03-.1c.04-.16,.08-.22,.13-.3,.04-.08,.09-.15,.13-.21,.34-.49,.71-.88,1.08-1.28,3.01-3.07,6.23-5.84,9.43-8.65,3.21-2.8,6.46-5.55,9.73-8.27Z"/>
  <g>
    <path class="cls-3" d="M409.93,18.27v1.92c-.07,.42-.19,.82-.36,1.19-1.28,2.94-5.03,4.54-6.84,5.29-3.51,1.48-6.56,1.5-8.75,1.5-4.01,0-9-.5-13.37-3.99-.79-.63-2.61-2.8-2.61-5.3,0-.22,.01-.45,.04-.68,.5-3.61,5.06-6.16,9.32-7.3,1.65-.44,3.25-.68,4.57-.68,7.03,0,13.51,1,16.97,5.49,.29,.38,.83,1.34,1.03,2.57Z"/>
    <path class="cls-3" d="M409.93,20.18v9.48c-1.71,1.58-4.53,3.71-8.48,4.99-6.88,2.23-12.87,.48-15.47-.5-3.39-1.28-5.87-3.1-7.45-4.51h0c-.19-.17-.36-.32-.52-.48v-10.29c0,2.5,1.83,4.67,2.61,5.3,4.37,3.49,9.36,3.98,13.37,3.99,2.19,0,5.24-.01,8.75-1.5,1.8-.76,5.56-2.35,6.84-5.29,.17-.37,.29-.77,.36-1.19Z"/>
    <path class="cls-1" d="M409.93,29.66v2.25c-1.71,1.58-4.53,3.71-8.48,4.99-6.88,2.23-12.87,.48-15.47-.5-3.39-1.28-5.87-3.1-7.45-4.51h0c-.19-.17-.36-.32-.52-.48v-2.25c.16,.15,.33,.31,.52,.47h0c1.59,1.41,4.07,3.23,7.45,4.52,2.59,.98,8.59,2.72,15.47,.5,3.96-1.28,6.77-3.41,8.48-4.99Z"/>
  </g>
  <g>
    <path class="cls-2" d="M296.5,19c9.18-3.77,23.31-8.28,41-9,10.7-.44,20.05,.62,27.58,2.06"/>
    <path d="M369.5,13c-2.24,.35-5.1,1.15-6.99,2.23l1.97-3.24-.56-3.75c1.32,1.72,3.65,3.57,5.58,4.76Z"/>
  </g>
  <g>
    <path class="cls-2" d="M296.49,28.59c9.12,3.77,23.15,8.28,40.72,9,10.61,.44,19.89-.62,27.36-2.06"/>
    <path d="M369,34.59c-1.93,1.2-4.25,3.05-5.57,4.77l.55-3.75-1.97-3.24c1.89,1.07,4.75,1.87,6.99,2.22Z"/>
  </g>
</svg>