<?xml version="1.0" encoding="UTF-8"?>
<svg id="Layer_2" data-name="Layer 2" xmlns="http://www.w3.org/2000/svg" viewBox="0 0 116 93">
  <defs>
    <style>
      .cls-1, .cls-2, .cls-3 {
        stroke: #000;
        stroke-miterlimit: 10;
        stroke-width: .75px;
      }

      .cls-2 {
        fill: #fcf6e1;
      }

      .cls-3 {
        fill: #3fa9f5;
      }
    </style>
  </defs>
  <g>
    <path class="cls-3" d="M46.21,61.26v2.55c-.1,.56-.26,1.09-.48,1.58-1.7,3.91-6.69,6.03-9.08,7.03-4.66,1.97-8.72,2-11.62,1.99-5.33-.01-11.96-.66-17.77-5.3-1.05-.84-3.47-3.72-3.47-7.05,0-.3,.02-.6,.06-.91,.66-4.79,6.72-8.19,12.38-9.71,2.19-.59,4.32-.9,6.07-.9,9.33,0,17.95,1.33,22.55,7.29,.39,.51,1.11,1.78,1.37,3.42Z"/>
    <path class="cls-3" d="M46.21,63.81v12.6c-2.27,2.09-6.01,4.93-11.27,6.63-9.14,2.96-17.1,.64-20.55-.66-4.5-1.7-7.8-4.12-9.9-5.99h0c-.25-.23-.48-.43-.7-.64v-13.68c0,3.33,2.43,6.21,3.47,7.05,5.81,4.64,12.44,5.29,17.77,5.3,2.9,0,6.96-.02,11.62-1.99,2.39-1.01,7.39-3.12,9.08-7.03,.23-.5,.38-1.03,.48-1.58Z"/>
    <path class="cls-1" d="M46.21,76.4v2.98c-2.27,2.09-6.01,4.93-11.27,6.63-9.14,2.96-17.1,.64-20.55-.66-4.5-1.7-7.8-4.12-9.9-5.99h0c-.25-.23-.48-.43-.7-.64v-2.98c.22,.21,.44,.41,.7,.63h0c2.11,1.88,5.4,4.3,9.9,6,3.45,1.3,11.42,3.62,20.55,.66,5.26-1.7,9-4.53,11.27-6.63Z"/>
  </g>
  <path class="cls-2" d="M34.5,46.5c-.19-1.85-1.14-12.92,7-22,1.58-1.77,7.75-8.18,17-9,10.43-.92,12.35,6.36,22,6,12.93-.48,18.54-13.9,26-11,4.1,1.59,5.73,6.94,6,10,.79,8.84-8.23,15.08-11,17-10.36,7.17-22.24,5.44-25,5-7.72-1.24-8.75-3.98-15-5-5.98-.97-14.86-.06-27,9Z"/>
  <g>
    <path d="M51.01,24.94c.13,.26,.27,.96,.41,3.14,.14,2.14,.29,4.58-.75,5.09-.5,.24-.54,.15-1.02,.21-.41,.04-1-.09-1.49-1.09-.48-1-.58-2.38-.62-3.55-.05-1.18-.11-2.31-.16-2.4-.04-.09-.04-.15,.04-.19,.27-.13,1.11-.04,1.25,.27,.15,.31,.11,1.16,.19,2.83,.09,1.67,.33,2.41,.54,2.83,.21,.42,.47,.65,.61,.58,.55-.27,.3-2.77,.13-4.7-.11-1.28-.29-2.38-.37-2.62-.06-.2,.07-.48,.19-.54,.34-.17,.91-.11,1.04,.15Z"/>
    <path d="M54.86,24.58c.12,.49,.29,3.03,.57,4.39,.05-.67,.43-3.56,.63-5.18,.01-.08,0-.21-.02-.28-.02-.07-.07-.12-.09-.18-.02-.07,.06-.11,.12-.12,.39-.09,1.07,.2,1.2,.75,.13,.55-.49,2.32-.75,3.87-.26,1.53-.17,3.15-.45,3.22-.28,.07-.49-.04-.49-.04,0,0-.29,.11-.47,.15-.14,.03-.21-.19-.26-.38-.06-.24-.85-4.34-.85-4.34,0,0-.25,1.08-.33,2.88s-.06,2.23-.19,2.32c-.12,.09-.16,.14-.3,.17-.15,.04-.68-.12-.77-.48-.08-.34,.08-1.61,.33-3.47,.25-1.84,.54-3.45,.47-3.78-.03-.14,0-.2,.06-.22,.3-.07,1.42,.17,1.56,.74Z"/>
    <path d="M60.09,23.13c.21,0,.34-.07,.9-.06,1.13,.03,2.17,1,2.14,2.22-.04,1.94-1.89,5.45-3.76,5.41-.85-.02-1.15-.63-1.15-.63,0,0-.86-.06-.85-.56,.02-.66,1.7-4.62,2.25-6.01,0,0-.11-.15-.1-.25,0-.1,.07-.19,.13-.19,.15,0,.22,.07,.44,.07Zm.66,.92c-.27,.14-2.15,5.16-2.15,5.26,0,.11,.17,.39,.51,.4,1.35,.03,2.76-3.28,2.8-4.95,.01-.61-.27-.92-.56-.92-.18,0-.33,.06-.6,.21Z"/>
    <path d="M66.13,24.07c.29,.07,1.25,.07,1.88,.22,.6,.14,.94,.57,.85,.95-.05,.2-.44,.25-.67,.2-.11-.03-.38-.13-.64-.19-.29-.07-.59-.1-.7,.05-.2,.28-1.58,2.54-1.58,2.54,0,0,.41,.04,.8,.13,.39,.09,.36,.54,.36,.54,0,0,.26,.26,.21,.44-.05,.2-.64,.1-1.22,.05-.57-.05-.8-.17-1.04,.12-.23,.29-.67,.97-.72,1.12,0,.02,.01,.03,.05,.04,.21,.05,1.22-.03,1.69,.08,.3,.07,.7,.71,.65,.94-.05,.21-.25,.25-.43,.21-.17-.04-.52-.25-.85-.33-.31-.07-1.39-.15-1.64-.2-.24-.06-.25-.26-.25-.26,0,0-.53-.28-.42-.76,.12-.49,1.03-1.69,1.03-1.69,0,0-.02-.28,.04-.53,.07-.31,.38-.24,.38-.24l1.78-2.63s-.22-.57-.17-.76c.03-.11,.15-.22,.22-.2,.15,.03,.1,.1,.38,.16Z"/>
    <path d="M69.65,25.16c.08,.02,1.3-.23,2.24-.04,.8,.17,1.46,1.34,1.26,2.31-.35,1.67-2.58,2.2-3.29,2.29,.03,.02,.45,.31,.44,.94-.01,.65-.14,1.41,.44,1.53,.2,.04,.38-.09,.45-.07,.07,.01,.11,.1,.1,.17-.02,.12-.59,.53-1.17,.41-.96-.2-1.08-1.08-1.06-2.03,.01-.41,.02-.67-.18-.71-.1-.02-.25-.04-.36,.1-.14,.18-.96,1.46-1.04,1.77-.05,.2-.29,.28-.39,.26-.08-.02-.61-.6-.55-.91,.06-.3,.99-1.7,1.02-1.83,.03-.13-.09-.29-.06-.47,.04-.2,.12-.31,.28-.28,.15,.03,.18,.09,.23,.1,.05,0,1.69-2.71,1.69-2.71,0,0-.31-.71-.28-.86,0-.03,.03-.04,.04-.04,.04,0,.07,.05,.17,.07Zm1.47,1c-.2,.13-1.87,2.69-1.96,2.91,.91-.13,3.06-1.27,3.29-2.42,.06-.27-.19-.49-.43-.54-.25-.05-.71-.08-.91,.05Z"/>
    <path d="M77.45,27.07c-.1,.77-1.01,2.39-1.48,2.33-.32-.04-.72-.57-.7-.74,.02-.17,.15-.15,.5-.67,.3-.45,.46-.8,.48-1,.02-.18-.06-.27-.16-.28-.43-.06-1.46,1.15-1.59,2.14-.11,.86,1.34,1.85,1.2,2.88-.1,.76-1.07,1.56-1.92,1.45-.7-.09-1.86-1.32-1.79-1.9,.04-.28,.4-.64,.6-.62,.3,.04,.59,1.24,.95,1.28,.38,.05,.73-.35,.79-.79,.16-1.21-1.05-1.55-.86-2.99,.16-1.19,1.55-2.67,2.24-2.58,.25,.03,.61,.3,.61,.3,.86,.11,1.2,.55,1.12,1.17Z"/>
    <path d="M78.49,26.16c.96,.1,1.24,.06,1.66,.11,.76,.08,1.25,.65,1.2,1.07-.02,.19-.14,.26-.37,.23-.22-.02-1.15-.11-1.16-.04,0,.07,.14,.24,.1,.55-.04,.35-.88,1.83-1.49,3.12-.61,1.27-.99,1.91-1.03,2.15-.04,.24-.21,.29-.34,.28-.26-.03-.62-.62-.58-.97,.04-.34,.53-1.18,1.12-2.39,.59-1.2,1.41-2.61,1.42-2.77,.01-.1-.09-.13-.18-.14-.11-.01-.7-.08-.88-.26-.18-.18-.38-.89-.35-1.12,0-.05,.03-.08,.07-.07,.05,0,.17,.2,.8,.27Z"/>
    <path d="M79.9,31.6c1.11-1.91,2.84-4.69,2.91-4.92,.08-.28,.09-.46,.2-.45s.18,.16,.54,.28c.65,.22,.98,.49,.94,1.26-.04,.72-1.08,3.11-1.32,5.82-.03,.3-.25,.53-.49,.51-.23-.01-.75-.38-.74-.63,0-.06,.06-.4,.16-.87-.23,0-.58,0-.95-.02-.22-.01-.45-.03-.66-.06-.26,.51-.47,.96-.59,1.28-.05,.13-.2,.18-.35,.17-.15,0-.56-.42-.55-.61,0-.13,.23-.6,.57-1.2-.14-.18-.22-.43-.21-.57,0-.07,.08-.15,.12-.14,.07,0,.15,.12,.41,.15Zm1.08,.03c.5,0,1.04,0,1.33,0,.27-1.29,.63-2.9,.86-3.7-.42,.67-1.4,2.27-2.2,3.7Z"/>
    <path d="M87.46,27.12c.09,.49,.11,3.04,.31,4.42,.09-.67,.64-3.53,.93-5.14,.02-.08,.01-.21,0-.28-.01-.07-.06-.12-.08-.19-.01-.07,.06-.1,.13-.12,.39-.07,1.05,.27,1.15,.82,.1,.56-.62,2.29-.98,3.82-.34,1.52-.36,3.13-.63,3.18-.29,.05-.49-.07-.49-.07,0,0-.3,.09-.48,.13-.14,.02-.2-.2-.23-.39-.04-.25-.59-4.39-.59-4.39,0,0-.31,1.06-.5,2.86-.18,1.79-.19,2.22-.32,2.3-.13,.08-.17,.13-.31,.16-.15,.03-.67-.16-.74-.53-.06-.34,.18-1.6,.53-3.44,.36-1.82,.74-3.41,.69-3.74-.02-.14,0-.2,.07-.22,.3-.05,1.41,.25,1.51,.83Z"/>
    <path d="M90.04,25.2c.18-.1,.26-.23,.75-.5,.99-.54,2.38-.2,2.96,.87,.92,1.71,1.05,5.67-.6,6.56-.75,.4-1.31,.02-1.31,.02,0,0-.78,.37-1.01-.07-.31-.58-.81-4.86-1.02-6.34,0,0-.17-.08-.22-.17-.05-.09-.03-.2,.02-.23,.13-.07,.22-.05,.42-.16Zm1.03,.47c-.17,.26,.69,5.55,.74,5.64,.05,.1,.34,.26,.64,.1,1.19-.64,.78-4.22-.01-5.69-.29-.54-.69-.66-.94-.53-.16,.09-.26,.22-.42,.48Z"/>
    <path d="M93.96,25c-.22-.79-.33-2.47,.55-3.28,.79-.74,2.14-.25,2.75,.4,.51,.55,.43,1.67,.11,2.69-.33,1.08-.12,1.74-.01,1.85,.07,.07,.02,.16-.05,.23-.07,.07-.59,.25-1.05-.25-.19-.21-.41-.89-.33-1.94,.08-1.04,.11-2.23-.21-2.58-.14-.15-.3-.2-.47-.04-.17,.16-.32,.83-.14,1.81,.18,.98,.26,1.4,.13,1.52-.13,.12-1.21,.03-1.29-.05-.06-.07,.08-.13,.01-.37Zm2.79,2.76c.12-.11,.97-.28,1.16-.07,.2,.21,.6,.97,.29,1.26s-.94,.14-1.08-.01-.2-.79-.28-.87c-.05-.05-.11-.03-.15-.07-.06-.07-.07-.12,.04-.23Z"/>
  </g>
</svg>