<?xml version="1.0" encoding="UTF-8"?>
<svg id="Layer_2" data-name="Layer 2" xmlns="http://www.w3.org/2000/svg" viewBox="0 0 1216 180">
  <defs>
    <style>
      .cls-1, .cls-2 {
        stroke: #000;
        stroke-miterlimit: 10;
      }

      .cls-2 {
        fill: #fcf6e1;
      }
    </style>
  </defs>
  <path class="cls-1" d="M1210.72,48.13v87.23c0,24.31-19.9,44.02-44.44,44.02H60.78c-6.75,0-13.15-1.49-18.88-4.16,2.53,.45,5.16,.68,7.82,.68H1155.22c24.54,0,44.44-19.71,44.44-44.02V44.64c0-17.62-10.46-32.82-25.56-39.85,20.81,3.66,36.62,21.68,36.62,43.34Z"/>
  <path class="cls-2" d="M1174.11,4.79c-5.74-2.67-12.14-4.17-18.89-4.17H49.72C25.18,.62,5.28,20.33,5.28,44.64v87.23c0,21.66,15.8,39.68,36.61,43.34,2.54,.45,5.16,.68,7.83,.68H1155.22c24.55,0,44.44-19.71,44.44-44.02V44.64c0-17.62-10.45-32.82-25.55-39.85Zm18.89,124.27c0,22.61-19.66,40.94-43.9,40.94H598.98L518.17,7h630.93c6.66,0,12.99,1.39,18.65,3.87,14.92,6.54,25.25,20.68,25.25,37.07v81.12Z"/>
  <path class="cls-1" d="M1193,47.94v81.12c0,22.61-19.66,40.94-43.9,40.94H623.34L542.52,7h606.58c6.66,0,12.99,1.39,18.65,3.87,14.92,6.54,25.25,20.68,25.25,37.07Z"/>
  <polygon class="cls-2" points="623.34 170 607.34 170 526.52 7 542.52 7 623.34 170"/>
  <polygon class="cls-1" points="607.34 170 598.98 170 518.17 7 526.52 7 607.34 170"/>
  <path class="cls-2" d="M598.98,170H56.9c-2.63,0-5.22-.21-7.73-.63-20.56-3.41-36.17-20.16-36.17-40.31V47.94C13,25.33,32.66,7,56.9,7h461.27l80.81,163Z"/>
</svg>