<?xml version="1.0" encoding="UTF-8"?>
<svg xmlns="http://www.w3.org/2000/svg" xmlns:xlink="http://www.w3.org/1999/xlink" viewBox="0 0 1920 5988.5">
  <defs>
    <style>
      .cls-1, .cls-2, .cls-3, .cls-4, .cls-5, .cls-6, .cls-7, .cls-8, .cls-9, .cls-10, .cls-11, .cls-12 {
        stroke: #000;
        stroke-miterlimit: 10;
      }

      .cls-1, .cls-7 {
        stroke-width: .75px;
      }

      .cls-13 {
        letter-spacing: -.02em;
      }

      .cls-14 {
        font-size: 83.31px;
      }

      .cls-14, .cls-15, .cls-16, .cls-17 {
        font-family: PPNeueMontreal-Bold, 'PP Neue Montreal';
      }

      .cls-18 {
        fill: aqua;
      }

      .cls-19 {
        fill: #009245;
      }

      .cls-20 {
        fill: #662d91;
      }

      .cls-21 {
        fill: #9e005d;
      }

      .cls-22 {
        fill: #d4145a;
      }

      .cls-23, .cls-6 {
        fill: #39b54a;
      }

      .cls-24 {
        fill: #2e3192;
      }

      .cls-3 {
        fill: #ff7bac;
      }

      .cls-3, .cls-4, .cls-5, .cls-6, .cls-10, .cls-11 {
        stroke-width: 2px;
      }

      .cls-4, .cls-8 {
        fill: #fcf6e1;
      }

      .cls-25 {
        letter-spacing: -.01em;
      }

      .cls-5 {
        fill: #836aad;
      }

      .cls-26 {
        letter-spacing: -.03em;
      }

      .cls-27 {
        letter-spacing: -.08em;
      }

      .cls-7, .cls-10, .cls-12 {
        fill: none;
      }

      .cls-15 {
        font-size: 58.19px;
      }

      .cls-28 {
        letter-spacing: -.03em;
      }

      .cls-9 {
        fill: #3fa9f5;
      }

      .cls-29 {
        opacity: .37;
      }

      .cls-16 {
        font-size: 29.2px;
      }

      .cls-17 {
        font-size: 25.96px;
      }

      .cls-30 {
        letter-spacing: -.03em;
      }
    </style>
  </defs>
  <g id="Layer_1" data-name="Layer 1">
    <image class="cls-29" width="1200" height="5445" transform="translate(-156.75 -489) scale(1.87 1.83)" xlink:href="IMG_0005.jpeg"/>
  </g>
  <g id="Layer_2" data-name="Layer 2">
    <path class="cls-10" d="M548.15,605.26c-24.12,2.4-96.11,6.3-164.44-39.65-20.87-14.04-72.76-48.94-89.8-116.63-12.4-49.28,.36-90.49,5.83-107.3,39.72-122.07,182.56-165.49,201.18-170.86,12.47-3.98,30.53-9.46,52.48-15.16,68.64-17.82,135.05-27.28,244.91-32.66,102.01-4.99,185.11-9.06,299.73,1.17,131.24,11.71,200.81,32.97,225.09,40.82,55.47,17.93,102.75,33.72,152.78,74.64,26.07,21.33,75.27,62.64,101.46,136.45,7.98,22.48,29.97,93.48,4.67,177.27-16.66,55.17-46.11,90.31-60.65,107.3-56.83,66.42-124.91,91.39-171.44,108.46-79.62,29.21-152.76,33.81-206.43,31.49"/>
    <path class="cls-10" d="M534.74,477.56c-11.01,1.61-44.52,3.98-80.47-14-9.33-4.67-34.22-23.16-36.15-53.65-.4-6.28-2.92-32.71,24.49-62.98,42.22-46.62,99.5-60.49,115.46-64.14,147.55-33.78,281.07-36.15,281.07-36.15,145.49-2.58,241.74,4.65,292.73,9.33,65.91,6.04,162.05,17.52,242.58,66.48,26.98,16.4,51.51,36.59,68.81,67.64,21.48,38.55,21.45,75.26,20.99,87.47-2.08,55.04-31.12,91.86-40.82,103.8-31.6,38.89-69.96,53.26-113.13,68.81-35.01,12.61-93.99,28.73-171.44,25.66"/>
    <path class="cls-6" d="M629.21,615.18c-19.45,2.71-38.89,5.44-58.32,8.16l-45.48-73.47,20.99-83.97c19.83-2.72,39.65-5.45,59.48-8.17,7.77,52.48,15.55,104.97,23.33,157.45Z"/>
    <path class="cls-4" d="M1583.2,514.88c-1.26,7.98-2.84,15.64-4.71,22.96-35.36-9.01-70.71-18.04-106.07-27.05,4.45-18.82,6.6-41.69,2.32-67.05-1.7-10.07-4.21-19.32-7.16-27.7,12.81-4.41,25.6-8.81,38.41-13.2,8.03,23.78,10.27,44.64,10.84,58.66h-22.16c11.28,11.66,22.55,23.32,33.83,34.99l2.71-2.71c1.05,1.29,2.08,2.58,3.12,3.87l37.32-37.32c-7.78-.38-15.55-.78-23.33-1.16-.66-15.11-3.1-39.04-12.35-66.64,11.08-3.82,22.15-7.62,33.23-11.42,4.55,12.43,7.01,21.81,8.17,26.47,13.6,54.54,7.28,98.07,5.83,107.3Z"/>
    <path class="cls-4" d="M1505.99,402.84c-12.81,4.39-25.6,8.79-38.41,13.2-7.35-20.91-17.41-36.41-24.33-45.78-7.1-9.15-17.07-20.73-30.38-32.68,8.69-10.48,17.38-20.95,26.08-31.44,2.61,2.3,5.25,4.7,7.91,7.24,12.88,12.33,36.02,34.91,52.48,72.31,2.56,5.85,4.77,11.57,6.65,17.15Z"/>
    <path class="cls-4" d="M1569.2,381.11c-11.08,3.8-22.15,7.6-33.23,11.42-4.32-12.92-10.15-26.65-17.97-40.66-18.24-32.61-40.78-54.88-59.2-69.68,7.59-9.16,15.18-18.32,22.78-27.48,4.33,3.66,8.65,7.58,12.99,11.76,42.45,40.84,64.11,85.89,74.63,114.64Z"/>
    <path class="cls-4" d="M1481.58,254.71c-7.6,9.16-15.19,18.32-22.78,27.48-9.89-7.95-18.58-13.73-24.77-17.79-26.88-17.63-53.35-28.17-75.92-34.55-5.51-2.34-11.29-4.68-17.37-7,4.8-12.15,9.61-24.3,14.41-36.45,7.06,2.75,14.27,5.72,21.63,8.92,38.68,16.85,71.59,31.17,104.8,59.39Z"/>
    <path class="cls-4" d="M1438.95,306.14c-8.7,10.49-17.39,20.96-26.08,31.44-5.6-5.03-11.79-10.13-18.6-15.13-24.67-18.12-48.62-28.53-77.77-38.36,5.1-12.89,10.2-25.76,15.29-38.65,17.96,6.79,33.03,13.85,45.09,20.13,18.14,9.42,39.34,20.62,62.07,40.57Z"/>
    <path class="cls-4" d="M1578.49,537.84c-14.18,55.75-43.94,92.65-58.27,109.99-3.58,4.34-10.69,12.7-22.07,23.43-24.36-25.42-48.74-50.86-73.1-76.28,10.13-9.64,19.44-20.96,27.52-34.61,4.26-7.18,14.01-24.89,19.84-49.58,35.36,9.02,70.71,18.04,106.07,27.06Z"/>
    <path class="cls-4" d="M1425.06,594.98c-23.71,22.57-51.97,36.07-79.77,49.36-4.44,2.12-8.83,4.09-13.13,5.92,14.25,33.13,28.51,66.27,42.76,99.4,13.8-5.91,27.66-12.61,41.52-20.19,38.32-20.96,64.76-42.22,81.73-58.21-24.36-25.42-48.74-50.86-73.1-76.28Zm36.96,86.94c-1.62,3.53-5.11,4.49-5.83,4.67-3.63,.9-6.48-.84-7-1.17-1.26,.26-2.51,.5-3.77,.76-5.95,1.19-11.91,2.38-17.86,3.57-3.56,.71-7.1,1.42-10.66,2.13-2.85,.56-5.69,1.13-8.54,1.7-4.79,.96-9.57,1.91-14.37,2.87-2.99,.61-5.97,1.2-8.96,1.8,.52-1.22,1.05-2.44,1.57-3.66-2.08,.44-4.16,.89-6.24,1.33,3.39-7.64,7.1-15.49,11.16-23.51,1.31-2.58,2.65-5.19,4.04-7.8,.78-1.48,1.56-2.96,2.37-4.44h.01c1.11-2.06,2.25-4.14,3.42-6.23,1.49-2.67,3-5.31,4.5-7.88,.77-1.33,1.54-2.65,2.31-3.94,.87-1.47,1.75-2.93,2.62-4.37-.05-.08-.12-.2-.16-.28-1.1-2.74,.09-5.76,2.39-6.85,1.84-.87,4.2-.42,5.83,1.17,.28,.31,.56,.64,.84,.96,.78-.56,1.69-.91,2.66-.96,1.8-.09,3.1,.85,3.5,1.17,11.59,13.46,23.19,26.93,34.78,40.39,1.89,2.19,2.62,5.25,1.63,7.97-.07,.21-.16,.42-.26,.63Z"/>
    <path class="cls-4" d="M1425.86,664.43c-6.43-7.62-12.3-15.09-17.68-22.32-.77,1.29-1.54,2.61-2.31,3.94,1.91,1.25,3.28,3.24,3.66,5.55,.75,4.46-2.45,8.39-5.83,9.33-1.81,.5-3.86,.21-5.75-.77h-.01c-.8,1.48-1.59,2.96-2.37,4.44,1.07-.21,2.24-.29,3.46-.17,1.5,.14,5.96,.55,7,3.5,.9,2.55-1.22,5.61-3.5,7-3.72,2.27-7.98,.11-8.16,0-1.11-.58-2.06-1.45-2.83-2.52-4.06,8.02-7.77,15.87-11.16,23.51,2.08-.44,4.16-.89,6.24-1.33,1.96-.42,3.91-.83,5.87-1.25-.71-2.39-.47-4.84,.72-6.75,1.22-1.97,3.49-3.43,5.83-3.5,3.34-.11,6.86,2.61,8.5,7.04,2.31-.5,4.63-.99,6.94-1.48-.4-1.05-.5-2.17-.28-3.23,.77-3.67,5.21-5.41,8.16-4.67,2.15,.55,4,2.52,4.8,5.19,5-1.06,9.99-2.13,15-3.2-5.35-5.71-10.81-11.81-16.3-18.32Zm-10.25,11.06c-1.38-.63-2.5-1.76-3.14-3.13-2.67-5.73,3.73-11.44,9.21-8.16,.84,.51,1.56,1.24,2.08,2.09,3.28,5.47-2.44,11.87-8.15,9.2Z"/>
    <path class="cls-4" d="M1402.54,674.92c-3.72,2.27-7.98,.11-8.16,0-1.11-.58-2.06-1.45-2.83-2.52,1.31-2.58,2.65-5.19,4.04-7.8,1.07-.21,2.24-.29,3.46-.17,1.5,.14,5.96,.55,7,3.5,.9,2.55-1.22,5.61-3.5,7Z"/>
    <path class="cls-4" d="M1403.71,660.93c-1.81,.5-3.86,.21-5.75-.77,1.11-2.06,2.25-4.14,3.42-6.23,1.49-2.67,3-5.31,4.5-7.88,1.91,1.25,3.28,3.24,3.66,5.55,.75,4.46-2.45,8.39-5.83,9.33Z"/>
    <path class="cls-4" d="M1407.54,690.13c-5.01,1.06-10.04,2.13-15.06,3.21-.71-2.39-.47-4.84,.72-6.75,1.22-1.97,3.49-3.43,5.83-3.5,3.34-.11,6.86,2.61,8.5,7.04Z"/>
    <path class="cls-4" d="M1427.17,685.95c-4.23,.9-8.46,1.81-12.69,2.71-.4-1.05-.5-2.17-.28-3.23,.77-3.67,5.21-5.41,8.16-4.67,2.15,.55,4,2.52,4.8,5.19Z"/>
    <path class="cls-4" d="M1448.47,681.41c-2.1,.44-4.2,.89-6.3,1.34-5.35-5.71-10.81-11.81-16.3-18.32-6.43-7.62-12.3-15.09-17.68-22.32,.87-1.47,1.75-2.93,2.62-4.37,11.24,13.56,22.47,27.13,33.72,40.69,.42,.54,1.75,2.11,3.94,2.99Z"/>
    <path class="cls-10" d="M1462.28,681.29c-.07,.21-.16,.42-.26,.63-1.62,3.53-5.11,4.49-5.83,4.67-3.63,.9-6.48-.84-7-1.17-1.26,.26-2.51,.5-3.77,.76-5.95,1.19-11.91,2.38-17.86,3.57-3.56,.71-7.1,1.42-10.66,2.13-2.85,.56-5.69,1.13-8.54,1.7-4.79,.96-9.57,1.91-14.37,2.87-2.99,.61-5.97,1.2-8.96,1.8,.52-1.22,1.05-2.44,1.57-3.66,1.96-.42,3.91-.83,5.87-1.25,5.01-1.07,10.04-2.15,15.06-3.21,2.31-.5,4.63-.99,6.94-1.48,4.23-.9,8.46-1.81,12.69-2.71,5-1.06,9.99-2.13,15-3.2,2.1-.45,4.2-.9,6.3-1.34,.57,.23,1.2,.41,1.89,.51,.56,.08,5.46,.79,7-2.33,1.03-2.1,.16-5.13-2.33-7-11.77-13.3-23.55-26.57-35.31-39.86,.78-.56,1.69-.91,2.66-.96,1.8-.09,3.1,.85,3.5,1.17,11.59,13.46,23.19,26.93,34.78,40.39,1.89,2.19,2.62,5.25,1.63,7.97Z"/>
    <path class="cls-4" d="M1374.91,749.66c-48.21,20.69-95.45,31.82-137.51,37.48-5.74-35.83-11.48-71.68-17.2-107.51,9.05-1.33,18.5-2.97,28.29-4.98,22.19-4.55,50.77-10.4,83.67-24.4,14.25,33.13,28.51,66.27,42.76,99.4Z"/>
    <path class="cls-4" d="M1171.52,764.46c8.81-27.27-1.04-50.56-3.5-55.98-5.05-11.08-11.72-18.77-16.33-23.33,18.33-.26,41.66-1.55,68.51-5.52,5.73,35.83,11.46,71.68,17.2,107.51-30.71,4.15-58.65,5.39-82.21,5.31,5.54-6.11,12.25-15.37,16.33-27.99Z"/>
    <path class="cls-10" d="M1249.76,196.76c-1.55,8.55-3.11,17.11-4.67,25.66,33.87,5.48,62.85,13.99,86.7,23.02-5.09,12.89-10.19,25.76-15.29,38.65-.12-.05-.24-.08-.37-.13-44.08-14.83-82.92-22.61-116.01-27.8,7.53-35.1,15.05-70.19,22.57-105.28,43.36,8.03,84.79,16.94,132.46,35.52-4.8,12.15-9.61,24.3-14.41,36.45-25.39-9.72-55.76-19.11-90.98-26.09Z"/>
    <path class="cls-4" d="M1222.69,150.88c-7.52,35.09-15.04,70.18-22.57,105.28-8.78-1.39-17.15-2.59-25.11-3.69-30.5-4.21-60.66-8.37-94.14-11.79,2.92-36,5.81-71.99,8.73-108,34.92,2.79,72.73,7.28,114.57,14.83,6.23,1.12,12.4,2.24,18.52,3.37Z"/>
    <path class="cls-4" d="M829.8,130.01c-1.01,.05-2.03,.1-3.04,.15,2.15,35.03,4.29,70.07,6.44,105.1,35.69-1.83,75.71-3.15,123.83-2.12V127.35c-26.08-.27-71.34-.15-127.23,2.66Zm106.23,37.59v27.41c-4,3.69-10.58,8.67-19.83,11.66-16.07,5.2-30.09,1.12-36.15-1.17-7.92-3-13.72-7.25-17.42-10.54h-.01c-.44-.4-.84-.76-1.22-1.12v-29.31c0-.53,.04-1.06,.1-1.6,1.62-11.69,21.47-18.66,32.46-18.66,16.42,0,31.58,2.33,39.66,12.83,.69,.9,1.95,3.14,2.41,6.02,.22,1.38,.28,2.89,0,4.48Z"/>
    <path class="cls-10" d="M936.04,167.6v27.41c-4,3.69-10.58,8.67-19.83,11.66-16.07,5.2-30.09,1.12-36.15-1.17-7.92-3-13.72-7.25-17.42-10.54h-.01c-.44-.4-.84-.76-1.22-1.12v-29.31c0-.53,.04-1.06,.1-1.6,1.62-11.69,21.47-18.66,32.46-18.66,16.42,0,31.58,2.33,39.66,12.83,.69,.9,1.95,3.14,2.41,6.02,.22,1.38,.28,2.89,0,4.48Z"/>
    <path class="cls-4" d="M1089.6,132.68c-2.92,36-5.81,71.99-8.72,108-30.01-3.07-62.66-5.52-100.62-6.87-7.94-.28-15.69-.5-23.22-.66V127.35c8.95,.09,15.63,.23,19.72,.33,34.81,.79,71.83,1.73,112.85,5Z"/>
    <path class="cls-4" d="M586.57,266.17c-23.31,5.84-46.03,12.85-66.99,21.28-3.7,1.48-17.44,7.15-34.95,18.16-19.41-30.56-38.82-61.14-58.24-91.69,42.78-26.33,79.62-37.23,133.36-49.68,8.93,33.98,17.88,67.95,26.82,101.93Z"/>
    <path class="cls-4" d="M708,244.9c-38.22,4.43-80.74,11.07-121.43,21.27-8.95-33.98-17.89-67.95-26.82-101.93,8.69-2.02,17.81-4.07,27.48-6.24,37.87-8.49,72.59-14.08,105.94-18h.01c4.94,34.96,9.88,69.93,14.82,104.89Z"/>
    <path class="cls-4" d="M833.2,235.27c-12.49,.64-24.46,1.35-36.05,2.04-23.08,1.38-54.34,3.57-89.15,7.59-4.94-34.96-9.88-69.93-14.82-104.89,45.58-5.35,88.59-7.58,133.58-9.84,2.15,35.03,4.29,70.07,6.44,105.1Z"/>
    <path class="cls-4" d="M484.63,305.62c-12.46,7.81-26.82,18.35-40.85,31.99-14.43,14.03-22.38,25.4-26.91,34.07-6.94-3.28-13.87-6.55-20.81-9.83v-7.66c-.47-2.88-1.73-5.12-2.41-6.02-8.08-10.5-23.24-12.83-39.66-12.83-3.07,0-6.81,.55-10.67,1.59-8.55-4.05-17.1-8.08-25.65-12.12,26.47-59.34,74.16-89.6,108.61-110.82,.04-.02,.07-.05,.1-.06,19.42,30.56,38.84,61.14,58.24,91.69Z"/>
    <path class="cls-10" d="M396.06,354.18v7.66c-.28-.14-.57-.27-.85-.4-17.3-8.19-34.6-16.36-51.9-24.53,3.86-1.04,7.6-1.59,10.67-1.59,16.42,0,31.58,2.33,39.66,12.83,.69,.9,1.95,3.14,2.41,6.02Z"/>
    <path class="cls-4" d="M417.73,439.59c-30.49,19.73-60.98,39.47-91.47,59.19-9.18-14.16-17.41-31.27-22.44-51.54-13.96-56.2,5.12-102.27,12.83-120.12,.34-.77,.68-1.54,1.01-2.31,8.55,4.04,17.1,8.07,25.65,12.12-9.96,2.67-20.62,8.64-21.79,17.07-.07,.54-.1,1.07-.1,1.6v29.31c.38,.36,.78,.72,1.22,1.11h.01c3.71,3.3,9.51,7.56,17.42,10.55,6.06,2.29,20.08,6.37,36.15,1.17,9.25-3,15.83-7.98,19.83-11.66v-24.22c6.94,3.28,13.87,6.55,20.81,9.83-3.42,6.5-4.9,11.49-5.75,14.92-1.33,5.32-5.13,29.2,6.61,52.99Z"/>
    <path class="cls-10" d="M396.06,361.84v24.22c-4,3.69-10.58,8.67-19.83,11.66-16.07,5.2-30.09,1.12-36.15-1.17-7.92-3-13.72-7.25-17.42-10.54h-.01c-.44-.4-.84-.76-1.22-1.12v-29.31c0-.52,.04-1.06,.1-1.6,1.17-8.43,11.83-14.4,21.79-17.07,17.3,8.16,34.6,16.34,51.9,24.53,.28,.13,.57,.26,.85,.4Z"/>
    <path class="cls-4" d="M490.6,485.83c-8.58,35.03-17.17,70.05-25.74,105.08-1.96-.43-3.94-.9-5.92-1.39-13.23-3.29-51.15-12.74-87.47-41.99-9.81-7.9-28.99-23.73-45.2-48.76,30.49-19.72,60.98-39.45,91.47-59.19,.48,.99,1,1.99,1.55,2.99,14.05,25.54,38.14,33.75,57.15,39.65,4.88,1.52,9.62,2.69,14.17,3.6Z"/>
    <path class="cls-4" d="M544.07,596.52c-11.08,.83-24.93,1.19-40.82,0-3.51-.27-19.99-1.56-38.39-5.61,8.57-35.03,17.16-70.05,25.74-105.08,16.79,3.36,31.13,3.04,40.64,2.23-5.45,21.38-10.89,42.77-16.33,64.14,9.71,14.78,19.43,29.54,29.16,44.32Z"/>
    <path class="cls-10" d="M1484.18,251.57c-.86,1.05-1.74,2.09-2.6,3.14"/>
    <path class="cls-10" d="M1561.15,463.83l-29.94,29.94h0s-2.71,2.72-2.71,2.72c-11.28-11.67-22.55-23.33-33.83-34.99h22.16c-.57-14.02-2.81-34.88-10.84-58.66-1.88-5.58-4.09-11.3-6.65-17.15-16.46-37.4-39.6-59.98-52.48-72.31-2.66-2.54-5.3-4.94-7.91-7.24-22.73-19.95-43.93-31.15-62.07-40.57-12.06-6.28-27.13-13.34-45.09-20.13-23.85-9.03-52.83-17.54-86.7-23.02,1.56-8.55,3.12-17.11,4.67-25.66,35.22,6.98,65.59,16.37,90.98,26.09,6.08,2.32,11.86,4.66,17.37,7,13.93,5.9,26.03,11.74,36.27,17.06,30.28,15.73,49.57,29.62,61.19,39.17,5.07,4.15,8.69,7.5,11.11,9.81,29.03,27.56,45.03,55.37,52.49,69.98,3.55,6.97,8.23,16.25,12.47,28.14,2.78,7.75,5.38,16.62,7.35,26.67,3.31,16.83,3.79,31.35,3.5,41.99,6.22,.38,12.44,.78,18.66,1.16Z"/>
    <path class="cls-11" d="M1571.65,460.33l-37.32,37.32c-1.04-1.29-2.07-2.58-3.12-3.87h0s29.94-29.95,29.94-29.95c-6.22-.38-12.44-.78-18.66-1.16,.29-10.64-.19-25.16-3.5-41.99-1.97-10.05-4.57-18.92-7.35-26.67-4.24-11.89-8.92-21.17-12.47-28.14-7.46-14.61-23.46-42.42-52.49-69.98-2.42-2.31-6.04-5.66-11.11-9.81-11.62-9.55-30.91-23.44-61.19-39.17-10.24-5.32-22.34-11.16-36.27-17.06,22.57,6.38,49.04,16.92,75.92,34.55,6.19,4.06,14.88,9.84,24.77,17.79,18.41,14.8,40.96,37.07,59.2,69.68,7.82,14.01,13.66,27.73,17.97,40.66,9.25,27.6,11.69,51.53,12.35,66.64,7.78,.38,15.55,.78,23.33,1.16Z"/>
    <path class="cls-5" d="M936.04,163.12v4.48c-1.52,8.69-12.08,13.16-16.83,15.16-8.2,3.46-15.34,3.51-20.44,3.5-9.38-.02-21.04-1.17-31.26-9.33-1.84-1.48-6.11-6.54-6.11-12.4,0-.53,.04-1.06,.1-1.6,1.62-11.69,21.47-18.66,32.46-18.66,16.42,0,31.58,2.33,39.66,12.83,.69,.9,1.95,3.14,2.41,6.02Z"/>
    <path class="cls-5" d="M936.04,167.6v-4.48c.22,1.38,.28,2.89,0,4.48Z"/>
    <path class="cls-5" d="M936.04,167.6v22.16c-4,3.69-10.58,8.67-19.83,11.66-16.07,5.2-30.09,1.12-36.15-1.17-7.92-3-13.72-7.25-17.42-10.54h-.01c-.44-.4-.84-.76-1.22-1.12v-24.06c0,5.85,4.27,10.92,6.11,12.4,10.22,8.16,21.88,9.31,31.26,9.33,5.11,.01,12.25-.04,20.44-3.5,4.75-2.01,15.31-6.47,16.83-15.16Z"/>
    <path class="cls-11" d="M936.04,189.76v5.25c-4,3.69-10.58,8.67-19.83,11.66-16.07,5.2-30.09,1.12-36.15-1.17-7.92-3-13.72-7.25-17.42-10.54h-.01c-.44-.4-.84-.76-1.22-1.12v-5.25c.38,.36,.78,.72,1.22,1.11h.01c3.71,3.3,9.51,7.56,17.42,10.55,6.06,2.29,20.08,6.37,36.15,1.17,9.25-3,15.83-7.98,19.83-11.66Z"/>
    <circle class="cls-4" cx="1100.48" cy="739.07" r="67.64"/>
    <text class="cls-15" transform="translate(1067.19 758.29)"><tspan x="0" y="0">01</tspan></text>
    <text class="cls-14" transform="translate(720.07 448.83)"><tspan x="0" y="0">DO</tspan><tspan class="cls-30" x="124.63" y="0">S</tspan><tspan x="177.12" y="0">TUPNE </tspan><tspan x="137.67" y="99.97">IGRE</tspan></text>
    <g>
      <rect class="cls-18" x="1221.26" y="440.47" width="41.65" height="68.01"/>
      <rect class="cls-18" x="1251.01" y="445.45" width="41.65" height="68.01" transform="translate(174.18 1281.07) rotate(-56.8)"/>
      <rect class="cls-18" x="1232.31" y="465.86" width="41.65" height="68.01" transform="translate(989.17 -823.22) rotate(56.97)"/>
      <rect class="cls-24" x="1249.05" y="499.66" width="25.97" height="68.01" transform="translate(2610.38 777.65) rotate(167.34)"/>
      <rect class="cls-24" x="1233.45" y="449.25" width="25.97" height="68.01" transform="translate(2568.49 681.48) rotate(167.34)"/>
      <rect class="cls-24" x="1235.4" y="460.47" width="35.59" height="21.23" transform="translate(2579.18 655.95) rotate(167.34)"/>
      <rect class="cls-22" x="1234.86" y="560.33" width="85.01" height="41.87"/>
      <rect class="cls-21" x="1267.59" y="527.6" width="50.16" height="45.06"/>
      <rect class="cls-18" x="1268.52" y="498.41" width="28.15" height="59.2" transform="translate(-97.04 384.99) rotate(-16.46)"/>
      <rect class="cls-21" x="1258.88" y="573.72" width="50.16" height="22.53" transform="translate(-64.52 1000.15) rotate(-41.61)"/>
      <rect class="cls-20" x="1288.23" y="456.25" width="93.09" height="40.98" transform="translate(-44.15 804.59) rotate(-33.03)"/>
      <rect class="cls-23" x="1274.14" y="481.74" width="125" height="40.98" transform="translate(-57.74 809.72) rotate(-33.03)"/>
      <rect class="cls-19" x="1293.92" y="436.59" width="84.99" height="32.28" transform="translate(-30.79 801.6) rotate(-33.03)"/>
      <rect class="cls-20" x="1281.42" y="501.04" width="37.3" height="40.98" transform="translate(25.58 -59.72) rotate(2.66)"/>
      <g>
        <path class="cls-7" d="M1273.75,459.81c-3.9-3.34-9.26-3.54-13.18-1.7-5.47,2.58-8.53,9.34-6.8,16.15,.57,1.2,1.7,3.14,3.83,4.68,.43,.31,.87,.58,1.33,.82,3.77,2,8.36,1.71,11.85,.03,.31-.15,1-.48,1.85-1.05,1.7-1.14,4-3.22,4.95-6.6,1.25-4.42-.3-9.31-3.83-12.33Zm-12.11,6.16c-.62,1.16-1.11,2.07-1.28,3.4-.16,1.25,.03,2.38-.43,2.55-.27,.1-.65-.2-.85-.43-1.05-1.24,.19-4.4,1.7-6.38,2.35-3.07,5.86-3.99,5.95-3.83,.09,.16-3.35,1.39-5.1,4.68Z"/>
        <path class="cls-7" d="M1266.74,461.29c.09,.16-3.35,1.39-5.1,4.68-.62,1.16-1.11,2.07-1.28,3.4-.16,1.25,.03,2.38-.43,2.55-.27,.1-.65-.2-.85-.43-1.05-1.24,.19-4.4,1.7-6.38,2.35-3.07,5.86-3.99,5.95-3.83Z"/>
        <path class="cls-1" d="M1266.74,461.29c.09,.16-3.35,1.39-5.1,4.68-.62,1.16-1.11,2.07-1.28,3.4-.16,1.25,.03,2.38-.43,2.55-.27,.1-.65-.2-.85-.43-1.05-1.24,.19-4.4,1.7-6.38,2.35-3.07,5.86-3.99,5.95-3.83Z"/>
        <path class="cls-7" d="M1287.99,519.95c-1.08,1.65-2.63,3.34-4.59,4.83-.75,.58-1.56,1.13-2.43,1.63-.57,.34-1.17,.65-1.79,.95-.16,.07-.32,.14-.48,.22-.15,.07-.31,.14-.46,.2-.17,.08-.35,.15-.53,.22-.36,.14-.73,.28-1.1,.4-.18,.06-.37,.12-.56,.18-.14,.05-.28,.08-.42,.13-.22,.06-.44,.12-.66,.18-.03,0-.06,.01-.09,.02-.23,.06-.45,.11-.68,.17-.14,.03-.28,.06-.43,.09-.22,.05-.44,.09-.67,.13-1.08,.2-4.47,.74-8.68,.02-.77-.13-1.58-.3-2.4-.53h0c-.33-.09-.66-.19-.99-.29-1.33-.43-2.7-1-4.07-1.75-1.8-.99-5.23-2.87-6.99-5.31,0,0,0,0,0,0-.34-.46-.61-.94-.8-1.44-.17-.43-.27-.87-.31-1.32h0c-.02-.29,0-.57,.03-.85,.02-.17,.06-.33,.1-.49,.66-2.53,3.67-4.74,7.74-5.62,2.13,1.02,4.94,2,8.31,2.29,5.46,.46,10.08-1.09,13.44-2.85,1.72-.91,3.11-1.86,4.11-2.63,.36,1.14,.96,2.36,2.01,3.36,.17,.17,.35,.31,.53,.45,1.74,1.34,3.53,1.39,4.15,2.95,.18,.46,.58,1.84-1.28,4.68Z"/>
        <path class="cls-7" d="M1286.72,489.77c-.18,4.02-1.59,6.41-2.82,8.65-.86,1.57-1.64,3.07-1.85,5-.03,.29-.06,.6-.06,.91,0,.37,0,.75,.05,1.16,.03,.25,.05,.55,.09,.88,0,.08,.02,.15,.03,.23,.08,.57,.21,1.22,.42,1.9h0c-1,.77-2.39,1.73-4.11,2.64-3.36,1.76-7.98,3.32-13.44,2.85-3.37-.28-6.18-1.27-8.31-2.29,.49-.11,.99-.2,1.51-.26-3.58-4.49-5.84-8.58-7.23-11.48-3.21-6.7-2.81-9.15-2.55-10.2,.71-2.86,2.7-4.62,4.68-6.38,.78-.69,2.77-2.42,5.79-3.64,3.77,2,8.36,1.71,11.85,.03,.31-.15,1-.48,1.85-1.05,4.09,0,4.85-.07,6.44,.42,1.42,.43,4.56,1.39,6.38,4.25,.27,.43,1.46,2.39,1.28,6.38Z"/>
        <path class="cls-7" d="M1280.97,526.41c-.57,.34-1.17,.65-1.79,.95-.16,.07-.32,.14-.48,.22-.15,.07-.31,.14-.46,.2-.17,.08-.35,.15-.53,.22-.36,.14-.73,.28-1.1,.4-.18,.06-.37,.13-.56,.18-.14,.05-.28,.09-.42,.13-.22,.06-.44,.12-.66,.18-.03,0-.06,.01-.09,.02-.23,.06-.45,.11-.68,.17-.14,.03-.28,.06-.43,.09-.22,.05-.44,.09-.67,.13-1.08,.2-4.47,.74-8.68,.02-.77-.13-1.58-.3-2.4-.53h0c-.33-.09-.66-.19-.99-.29"/>
        <path class="cls-7" d="M1261.13,528.71c.08,.19,.16,.38,.24,.58,.45,1.15,.85,2.43,1.12,3.83,.26,1.35,.95,5.25-.43,9.78-2.12,6.96-7.09,8.76-6.38,12.75,.19,1.06,.72,1.92,1.4,2.66,.72,.78,1.6,1.42,2.43,2.02,9.73,7.04,24.25,0,25.93-.85,2.15-1.08,5.41-2.76,6.46-4.97,.21-.45,.34-.92,.34-1.41,.01-1.58-1.2-2.45-4.25-6.38,0,0-.32-.41-4.25-5.95-1.33-1.89-2.55-4.91-2.79-10.08,0,0,0,0,0,0h0"/>
        <path class="cls-7" d="M1291.9,554.51c.67,.59,1.36,1.25,2.04,1.99,2.05,2.23,5.91,6.44,6.38,12.75,.09,1.24,.04,2.41-.11,3.52"/>
        <path class="cls-7" d="M1252.28,580.42c-1.27-2.78-1.6-5.24-1.69-6.06-.19-1.66-.63-6.27,2.13-11.05,1.3-2.26,2.93-3.88,4.37-4.99"/>
        <path class="cls-1" d="M1300.85,585.08c-.05,1.3-.67,2.5-1.71,3.28-3.8,2.84-9.85,6.46-17.95,8.1-4.13,.83-11.54,2.33-19.98-.85-3.04-1.14-5.5-2.63-7.39-4.02-1.48-1.09-2.3-2.87-2.13-4.7,.2-2.16,.39-4.31,.59-6.47,.82,1.79,2.04,3.72,3.83,5.42,5.78,5.44,13.65,4.8,20.4,4.25,6.44-.53,13.48-1.1,18.7-6.8,.7-.76,4.21-4.73,4.99-10.5,.23,1.58,.42,3.23,.54,4.98,.18,2.63,.2,5.08,.11,7.33Z"/>
        <path class="cls-7" d="M1261.37,529.29c.98,.07,2,.08,3.06,.03"/>
        <path class="cls-7" d="M1363.65,485.52c-2.13,4.84-6.11,5.64-11.48,12.33-.23,.29-.46,.58-.68,.86-8.17,1.79-16.88,3.38-26.1,4.66-13.11,1.82-25.52,2.77-37.06,3.11-2.09,.06-4.14,.11-6.18,.13,0-.08-.02-.15-.03-.23-.04-.33-.07-.63-.09-.88-.04-.41-.06-.79-.05-1.16,1.86-.15,3.9-.31,6.1-.48,1.44-.11,2.94-.24,4.5-.37,20.49-1.81,50.74-6.07,72.1-24.97,.26,3.17-.35,5.44-1.04,7.01Z"/>
        <path class="cls-7" d="M1351.5,498.71c-2.33,3.08-3.44,5.44-4,6.36-.44,.73-1.04,1.41-1.78,2.04-8.61,7.29-36.45,7.92-55.83,5.81-.1,0-.2-.02-.31-.03h0c-1.55-.17-3.04-.36-4.46-.56-.17-.14-.35-.28-.53-.45-1.05-.99-1.65-2.21-2.01-3.36h0c-.21-.68-.34-1.34-.42-1.91,2.03-.02,4.09-.06,6.18-.13,11.54-.34,23.94-1.29,37.06-3.11,9.22-1.28,17.93-2.87,26.1-4.66Z"/>
        <path class="cls-7" d="M1373.01,452.34c3.87-.74,6.57-.54,7.65,.88,2.73,3.61-5.75,14.2-7.65,16.58-2.57,3.21-5.35,6.1-8.31,8.72"/>
        <path class="cls-7" d="M1373.04,452.35c1.34,.34,1.79,2.03,.81,3-10.13,9.98-25.39,22.81-46.33,33.58-11.39,5.86-24.7,11.24-34.93,14.56-1.56,.14-3.06,.26-4.5,.37-2.19,.18-4.23,.33-6.1,.48,0-.31,.02-.62,.06-.91,.21-1.93,.99-3.43,1.85-5,1.98-1.47,4.27-3.07,6.82-4.78,22.46-15.03,64.59-37.94,82.29-41.31,.01,0,.03,0,.04,0Z"/>
        <path class="cls-7" d="M1373.01,452.34c-17.7,3.37-59.83,26.29-82.29,41.31,9.1-9.65,17.48-16.72,24.05-21.73,6.76-5.16,11.12-7.77,12.74-8.72,9.54-5.59,26.03-14.96,43.79-11.26,.61,.13,1.18,.26,1.7,.4Z"/>
        <path class="cls-7" d="M1345.8,510.6c-1.48,10.35-18.24,14.63-22.53,15.73-1.09,.28-2.18,.56-3.28,.81h0c-3.02,.7-6.11,1.21-9.36,1.02h0c-2.08-.13-4.23-.55-6.47-1.4-7.91-3.01-12.2-9.59-14.25-13.83,19.37,2.11,47.21,1.48,55.83-5.81,.2,1.11,.26,2.28,.08,3.49Z"/>
        <path class="cls-7" d="M1283.4,524.78c1.13,2.56,3.46,6.25,7.99,8.34,.93,.43,5.43,2.4,10.81,.93"/>
        <path class="cls-7" d="M1319.98,527.14c-1.02,2.22-2.53,4.64-4.79,6.84-2.01,1.96-4.51,3.64-7.27,4.83-5.25,2.27-11.51,2.81-17.38,.27-4.62-2-7.64-5.3-9.59-8.39h0c-.74-1.18-1.32-2.31-1.77-3.33"/>
        <path class="cls-7" d="M1310.62,528.15c-1.45,2-3.65,4.13-6.9,5.4-.51,.2-1.02,.37-1.52,.5-3.95-3.81-8.02-8.99-10.81-15.8-.75-1.84-1.35-3.64-1.81-5.36,.1,.01,.2,.03,.31,.03,2.05,4.24,6.34,10.82,14.25,13.83,2.24,.85,4.39,1.28,6.47,1.4Z"/>
        <path class="cls-7" d="M1307.92,538.81c-1.76-1.26-3.72-2.84-5.72-4.76"/>
        <path d="M1292.67,485.1c-3.05,7.44-4.4,15.72-3.67,23.73,.05,.18,.11,.41,.26,.47,.17,0,.28-.21,.37-.37,1.54-3.83,2.1-8,3.04-12.02,1.26-5.47,2.53-13.17,4.2-18.46,2.11-6.44,2.31,2.29,2.3,4.29,.05,9.47-.94,18.94-2.85,28.22,2.65-10.54,5.91-24.52,8.63-34.89,.24-.59,3.63-15.21,4.19-11.3-.45,8.28-2.13,16.45-3.25,24.66-.69,5.69-2.36,13.62-2.48,19.28,.12,.11-.14-.06-.17,0,1.12-2.57,1.6-5.42,2.34-8.13,3.16-12.4,6.41-29.2,10.13-41.39,.11-.29,.22-.58,.39-.85,.02-.03,.22-.39,.57-.14,.26,.43,.16,.86,.18,1.32-1.11,13.38-3.66,26.58-5.21,39.9-.25,2.78-.85,5.62-.58,8.4,4.73-14.4,7.92-30.98,11.84-46.19,.97-3.53,1.6-7.2,3.01-10.61-.07-.32,.9-.07,.66,.15,.04,2.6-.55,5.15-.87,7.72-1.71,10.82-4.43,26.38-6.27,37.34-.52,3.58-1.29,7.16-1.46,10.76,.27,.2-.34-.16-.38-.03,.94-2.31,1.41-4.86,2.07-7.27,4.03-16.06,7.28-32.34,11.75-48.3,.22-.68,.41-1.37,.76-2.01,.11,0,0-.46,.71-.2,.19,.27,.13,.34,.17,.47,.06,1.51-.19,3-.34,4.49-.8,6.27-1.82,12.5-2.79,18.73-1.31,9.44-4.31,24.52-4.75,33.87,0,.08,.02,.17,.04,.21,.18,0-.45-.18-.35-.07,.47-.75,.72-1.72,1.02-2.59,4.9-16.75,9.55-38.02,13.8-55.06,.49-1.83,.86-3.71,1.51-5.5,1-.56,.73,.67,.75,.37-3.83,21.29-9.38,42.45-12.43,63.87-.07,.76-.17,1.59-.08,2.26,0,.07,.07,.15-.01,.06-.25-.13-.29,.02-.22-.06,1.81-3.18,2.71-6.87,3.95-10.32,.98-3,1.93-6,2.86-9.02,3.3-10.1,11.77-40.65,15.71-50.01,.15-.03-.05-.35,.66-.26,.33,.38,.16,.39,.22,.54-.91,7.56-3.04,14.94-4.62,22.37-3.52,15.37-7.34,30.68-10.45,46.14-.36,2.19-.96,4.39-.9,6.61,.03,.12,.04-.03-.19-.02,1.86-3.23,2.91-7.16,4.25-10.73,1.03-2.98,2.02-5.97,3.01-8.97,6-17.96,11.26-36.16,17.72-53.96,.32-.74,.55-1.46,1.05-2.2-.12-.11,.59-.32,.66,.06,.07,2.31-.7,4.57-1.1,6.83-.68,3.08-1.4,6.16-2.14,9.23-2.96,12.27-6.07,24.5-9.08,36.75-1.82,8.04-4.24,16.02-5.29,24.19,0,.08,.02,.19,.02,.2-.09-.1-.27-.01-.14-.09,1.92-3.61,2.99-7.66,4.41-11.51,4.04-11.95,7.86-23.98,11.78-35.98,3.16-9.34,5.91-18.85,9.75-27.94,.14-.27,.28-.55,.47-.8,.09-.05,.1-.26,.47-.19,.24,.19,.16,.31,.2,.42-.04,2.29-.67,4.53-1.09,6.76-4.1,18.49-9.03,36.77-13.31,55.21-.87,4.4-2.33,8.81-2.47,13.29-.01,.13,.13-.04,.24-.19,3.45-7.05,5.59-14.74,8.23-22.13,6.01-17.95,11.74-35.99,17.44-54.04-3.77,12.04-7.57,24.08-11.43,36.09-1.93,6.01-3.89,12.01-5.88,17.99-2.64,7.43-4.74,15.1-8.2,22.2-.06,.08-.12,.17-.21,.25-.06,.13-.39,.07-.38-.09-.07-.23-.05-.42-.05-.62,1.48-10.54,4.51-20.83,6.88-31.2,3.26-14.48,7.7-28.79,9.85-43.47-1.37,2.21-3,7.43-4.17,10.64-2.05,5.97-4.01,11.96-5.96,17.96-3.91,12-7.72,24.03-11.75,35.99-1.44,3.89-2.49,7.99-4.48,11.66,.04,.05-.41,.36-.6,0-.07-.17-.06-.27-.07-.38,1.03-8.23,3.46-16.24,5.28-24.32,3-12.26,6.11-24.49,9.05-36.76,1.12-5.23,2.76-10.45,3.24-15.78-8.59,23.52-15.6,49.89-24.69,74-.38,.73-.62,1.76-1.34,2.2-.61,.05-.54-.5-.58-.75,.38-5.34,1.82-10.54,2.86-15.77,4.15-19.59,9.73-39.89,13.14-59.13,.51,.03,.2-.03,.23,.07-.75,1.43-1.22,3.05-1.77,4.61-5.68,16.93-13.56,46.66-19.88,63.22-.27,.57-.48,1.15-.92,1.66-.06,.05-.3,.37-.73,.11-.23-.23-.2-.35-.24-.48,.03-5.59,1.51-11.01,2.39-16.5,2.94-15.39,6.36-31,9.47-46.37,.08-.52,.57-2.88,.61-3.46,.02-.39-.18,.31,.64,.03-.02,.04-.06,.14-.08,.22-3.08,11.49-7.39,30.32-10.31,41.9-1.55,6.12-3.04,12.25-4.91,18.3-.36,.97-.55,1.99-1.2,2.87-.03,.31-.92,.03-.77-.19-.05-.15-.06-.26-.07-.37,.09-5.16,1.15-10.24,1.83-15.34,0,0,2.96-18.7,2.96-18.7,1.09-7.64,2.76-15.62,3.16-23.15,.51,.13,.27-.04,.28,.09-5.19,16.39-8.14,33.46-12.48,50.11-.7,2.51-1.12,5.09-2.18,7.49-.19,.4-.96-.31-.66-.27-.01-.12-.01-.23,0-.33,.6-6.98,3.55-22.12,4.67-29.24,1.35-8.72,3.33-17.41,4-26.2-.22-.04,.48,.13,.31,.06-4.8,15.48-7.69,31.55-11.98,47.19-.85,3.06-1.55,6.13-2.78,9.09-.1,.19-.16,.36-.38,.58-.08,.23-.68-.01-.6-.16-.39-2.87,.31-5.8,.55-8.67,1.54-13.5,4.27-26.89,5.24-40.43,0-.09-.01-.19-.02-.27,0-.08-.05-.19-.03-.15,.18,.07,.2-.02,.12,.08-.14,.23-.25,.49-.34,.76-4.22,13.94-7.53,31.83-11.33,45.91-.39,1.25-.6,2.58-1.27,3.72-.18,.29-.63-.12-.52-.2,.11-5.73,1.75-13.66,2.49-19.42,.95-6.24,1.93-12.47,2.76-18.72,.21-2.03,.61-4.09,.5-6.12,0-.12-.07-.09,.07-.07,.03-.02-.06,.07-.09,.14-1.56,3.7-2.39,7.69-3.48,11.55-2.73,10.39-5.4,21.69-8.04,32.13-.13,.59-.74,2.81-.94,3.43,.05-.07-.15,.52-.33,.09,0-.12,.02-.21,.04-.31,1.3-6.37,2.3-12.81,2.71-19.31,.22-5.08,.73-10.28-.14-15.32-1.03-3.39-3.59,10.01-3.83,10.79-1.12,5.43-2.73,13.18-4.07,18.49-.27,.95-.51,1.92-.96,2.8-.1,.15-.19,.39-.44,.4-.22-.1-.25-.33-.31-.51-.33-1.75-.2-3.55-.16-5.32,.23-6.31,1.39-12.6,3.88-18.42h0Z"/>
        <path class="cls-1" d="M1254.84,579.03c-.59,.85,2.54,4.61,5.95,6.8,7.24,4.66,16.14,2.55,16.15,2.13,.01-.39-7.44,1.41-12.33-2.98-1.88-1.69-3.21-4.14-6.8-5.53-.54-.21-2.58-1-2.98-.43Z"/>
        <path class="cls-1" d="M1293.09,560.75c.43-.18,6.28,5.84,4.68,13.6-1.45,7.02-7.99,10.62-8.5,10.2-.28-.23,1.13-1.79,2.98-5.95,1.08-2.43,2.17-4.9,2.55-7.65,.8-5.84-2.04-10.06-1.7-10.2Z"/>
        <path class="cls-1" d="M1282.04,511.45c.32-.06,.37,1.58,1.7,2.98,1.48,1.56,2.97,1.15,3.4,2.13,.9,2.01-4.31,6.26-4.68,5.95-.26-.23,2.36-2.47,1.7-4.68-.38-1.25-1.47-1.32-2.13-2.98-.64-1.61-.33-3.34,0-3.4Z"/>
        <path class="cls-1" d="M1251.44,516.93c-.97,1.34,1.7,5.43,5.1,7.55,5.95,3.7,14.03,1.28,14.03,1.19,0-.06-3.9,.58-8.5-.79-.37-.11-1.94-.59-3.83-1.59-1.88-.99-2.82-1.49-3.4-2.38-1.24-1.9-.16-3.76-1.28-4.37-.63-.35-1.73-.15-2.13,.4Z"/>
        <path class="cls-1" d="M1261.13,528.71c-3.45-.4-6.55-1.78-8.84-4.09-1-1.02-1.76-2.12-2.32-3.19,1.76,2.44,5.19,4.32,6.99,5.31,1.37,.75,2.74,1.32,4.07,1.75,.03,.07,.06,.14,.09,.21Z"/>
        <path class="cls-1" d="M1256.11,485.95c-.25-.24-3.11,1.27-4.25,3.83-2.12,4.74,2.51,11.22,2.98,11.05,.22-.08-.51-1.66-.85-5.53-.37-4.17,.18-5.75,.43-6.38,.75-1.89,1.87-2.81,1.7-2.98Z"/>
        <path class="cls-1" d="M1278.22,481.27c1.04,.24,4.68,1.07,5.95,3.83,1.64,3.57-1.36,8.92-2.55,11.05-1.11,1.98-2.6,3.94-2.13,6.38,.18,.94,.66,1.99,.43,2.13-.25,.14-1.2-.79-1.7-1.7-1.16-2.1-.03-4.34,1.28-8.93,1.28-4.48,1.91-6.72,1.28-8.08-1.68-3.56-8.17-3.38-8.08-4.25,.06-.57,2.87-1.03,5.53-.43Z"/>
        <path class="cls-1" d="M1278.22,559.48c.12,.32,3.44-.49,6.8-2.13,2.57-1.24,4.44-2.18,4.68-3.83,.14-.99-.36-1.84-1.28-3.4-.87-1.48-2.21-3.16-2.55-2.98-.42,.24,1.79,2.85,1.28,5.53-.87,4.58-9.11,6.3-8.93,6.8Z"/>
        <path class="cls-1" d="M1262.49,548c-.44-.27-3.67,2.29-3.83,5.95-.02,.46-.12,2.96,1.7,4.68,1.96,1.85,4.97,1.69,5.1,1.28,.14-.46-3.3-.9-4.25-3.4-.45-1.2-.16-2.5,.43-5.1,.55-2.45,1.07-3.27,.85-3.4Z"/>
        <path d="M1290,503.65c-4.92,1.62-9.48,4.17-13.66,7.21-1.23,.98-2.76,1.82-3.63,3.12,0,.13,.25,.07,.38,.05,7.94-3.2,15.12-8.03,22.97-11.45,5.23-2.15-.51,2.49-1.79,3.44-6.25,4.87-12.95,9.14-19.95,12.85,0,0-.21,.12-.21,.12-.06-.03-.16,.24-.15-.04-.16-.09,.07-.06,.1-.11l.22-.09c8.74-4.14,17.86-8.81,26.58-12.94,3.1-1.4,6.11-3.07,9.37-4.09-.03-.06,.46-.01,.33,.34-1.22,1.22-2.83,1.98-4.25,2.94-4.41,2.71-8.88,5.3-13.33,7.93-4.64,2.84-9.56,5.38-13.94,8.56,0-.24-.23-.25-.05-.23,2.04-.69,3.96-1.75,5.91-2.66,4.39-2.16,16.27-8.13,20.8-10.41,3.89-1.79,7.69-4.13,11.78-5.37,.42,.08,.19,.59,.14,.54-4.78,3.63-10.16,6.4-15.23,9.58-4.44,2.65-8.88,5.29-13.28,8.01-2.09,1.37-4.43,2.6-6.28,4.26,.04-.2-.24-.27-.09-.23,14.29-5.68,27.65-13.56,41.69-19.86,.31-.12,1.26-.55,1.62-.64,.15,.08,.04-.28,.55,.19-.09,.5-.17,.31-.24,.45-.07,.06-.14,.11-.21,.16-12.41,7.9-27.31,15.29-39.77,23.16-.05,.04-.12,.1-.13,.11,.11-.36-.47-.47-.17-.41,.13-.03,.28-.09,.42-.15,13.21-6.05,25.97-13.05,39.13-19.22,1.43-.62,2.82-1.42,4.36-1.79,.29-.25,.58,.81,.31,.66-.3,.32-.54,.46-.82,.66-11.96,7.67-26.31,15.18-38.33,22.8-.61,.42-1.32,.84-1.82,1.34,.17-.12-.38-.57-.21-.39,5.19-1.8,10.09-4.51,15.1-6.83,9.01-4.38,23.19-11.51,32.2-15.82,0,0,.45-.2,.45-.2l.23-.1c.26,.09-.23-.33,.71,.17-.26,.85-.23,.36-.34,.57,0,0-.22,.13-.22,.13l-.43,.25c-11.64,6.34-23.47,12.32-35.1,18.66-4.29,2.45-8.86,4.58-12.82,7.54-.08,.06,.1,.06-.1-.28,13.12-4.48,36.56-15.63,49.9-21.01,1.59-.63,3.16-1.35,4.82-1.8,.12,0,.13-.07,.43,0,.48,.78-.08,.59,0,.72-17.48,9.99-36.06,17.94-53.64,27.76-.79,.48-1.69,.94-2.35,1.53-.08,.11,.1-.05-.13-.26,4.4-1.07,10.59-3.96,14.97-5.62,10.03-4.17,33.19-13.98,43.02-17.74,.86-.29,1.71-.67,2.62-.8,.08-.27,.59,.49,.29,.55-3.5,2.4-7.45,4.01-11.19,5.99-12.36,6.28-35.04,16.52-46.74,23.37-.06,.17,.04-.13-.14-.2,.01,0,.1,0,.17-.02,17.5-6.12,34.35-14.1,51.64-20.82,3.04-1.14,5.99-2.5,9.16-3.29,.09,0,.16-.04,.34,.02,.34,.25,.01,.5,.01,.5-10.38,6.25-21.66,10.96-32.46,16.47-4.65,2.27-9.29,4.54-13.91,6.86-3.36,1.81-7.05,3.31-10.12,5.56,18.4-5.93,42.67-17.18,60.91-24.52-16.93,7.03-40.4,17.39-57.35,23.66-1.16,.38-2.3,.88-3.51,1.03-.03,.05-.34-.07-.23-.26,3.09-2.37,6.78-3.81,10.19-5.68,15.27-7.77,31.63-15.25,46.31-23.27-8.01,2.35-15.75,6.1-23.56,9.16-9.55,3.96-19.07,7.99-28.67,11.85-2.98,1.08-5.88,2.58-9,3.19-.41-.1-.14-.65-.1-.55,1.6-1.2,3.36-1.98,5.1-2.93,14.7-7.77,38.29-18.2,52.76-26.45-.12-.08,.23,.5,.12,.29-.22,.02-.43,.09-.65,.15-14.34,5.24-37.66,15.68-52,21.31-2.58,.96-5.11,2.12-7.84,2.75-.1,0-.17,.04-.39-.03-.7-.52,.49-1.06,.75-1.29,17.94-10.4,37.2-18.45,55.17-28.75,.16,.04-.15-.3,.18,.36,.14,.03-.01,.01-.05,.03-.38,.09-.74,.22-1.11,.35-7.42,2.81-31.47,13.56-39.17,16.83-4.83,1.94-9.5,4.31-14.55,5.65-.12-.02-.17,.08-.5-.12-.3-.48,.02-.64,.03-.7,.14-.16,.28-.27,.41-.38,4-2.78,8.37-4.96,12.61-7.34,11.76-6.44,23.73-12.47,35.49-18.91,0,0,.2-.12,.2-.12,.02,.12,.21-.45,.04,.28,.8,.48,.15,.15,.26,.29l-.21,.09-.44,.19c-14.67,6.92-31.44,15.88-46.3,22.29-.4,.14-.8,.32-1.26,.37,0,.24-.74-.35-.43-.63,.59-.7,1.34-1.06,2.04-1.56,3.27-2.1,6.63-4.05,9.97-6.02,8.79-5.28,20.69-11.56,29.05-17.27-.13-.25,.17,.56,.23,.37-1.42,.4-2.76,1.13-4.13,1.73-13.35,6.2-26.22,13.42-39.68,19.37,.2,.11-.73,.04-.44-.52,10.81-7,24.49-13.93,35.54-20.56,1.57-.95,3.21-1.84,4.68-2.93,.05,.03,.12-.26,.07,.09,.42,.35,.1,.1,.11,.2-.38,.11-1.16,.45-1.54,.61-13.96,6.22-27.71,14.35-41.87,19.86,.02,.07-.54-.04-.4-.44,1.66-1.76,4.44-3.1,6.48-4.49,4.41-2.71,8.85-5.35,13.29-8,5.05-3.14,10.38-5.92,15.13-9.47,.04-.15-.04,.12,.14,.19,0,0-.1,.01-.16,.03-9.8,4.04-22.52,11.09-32.19,15.68-1.99,.92-3.92,2-6.01,2.69,.07,.04-.52,.09-.38-.36,.29-.35,.53-.47,.81-.68,9.92-6.35,21.44-12.51,30.78-18.55-7.98,3-15.52,7.16-23.24,10.78-2.25,1.11-8.26,4.03-10.46,5.09,0,0-1.76,.83-1.76,.83,0,0-.44,.2-.44,.2l-.23,.1c-.13,0-.04,.11-.36,.04,.06-.38,.15-.19,.22-.3,0,0,.21-.12,.21-.12,7-3.68,13.71-7.93,19.97-12.78,1.1-.88,6.82-5.27,1.94-3.19-7.85,3.39-15.07,8.22-23.01,11.39-.08,.02-.16,.04-.25,.03-.07,.01-.22-.02-.21-.15,.87-1.35,2.42-2.16,3.66-3.16,4.19-3.03,8.76-5.57,13.68-7.17h0Z"/>
      </g>
    </g>
    <g>
      <path class="cls-3" d="M396.06,354.18v4.48c-.17,.98-.45,1.91-.85,2.79-2.99,6.88-11.77,10.6-15.98,12.37-8.2,3.46-15.34,3.51-20.44,3.5-9.38-.02-21.04-1.17-31.26-9.33-1.84-1.48-6.11-6.54-6.11-12.4,0-.52,.04-1.06,.1-1.6,1.17-8.43,11.83-14.4,21.79-17.07,3.86-1.04,7.6-1.59,10.67-1.59,16.42,0,31.58,2.33,39.66,12.83,.69,.9,1.95,3.14,2.41,6.02Z"/>
      <path class="cls-3" d="M396.06,358.66v22.16c-4,3.69-10.58,8.67-19.83,11.66-16.07,5.2-30.09,1.12-36.15-1.17-7.92-3-13.72-7.25-17.42-10.54h-.01c-.44-.4-.84-.76-1.22-1.12v-24.06c0,5.85,4.27,10.92,6.11,12.4,10.22,8.16,21.88,9.31,31.26,9.33,5.11,.01,12.25-.04,20.44-3.5,4.21-1.77,12.99-5.49,15.98-12.37,.4-.87,.68-1.81,.85-2.79Z"/>
      <path class="cls-11" d="M396.06,380.82v5.25c-4,3.69-10.58,8.67-19.83,11.66-16.07,5.2-30.09,1.12-36.15-1.17-7.92-3-13.72-7.25-17.42-10.54h-.01c-.44-.4-.84-.76-1.22-1.12v-5.25c.38,.36,.78,.72,1.22,1.11h.01c3.71,3.3,9.51,7.56,17.42,10.55,6.06,2.29,20.08,6.37,36.15,1.17,9.25-3,15.83-7.98,19.83-11.66Z"/>
    </g>
    <path class="cls-4" d="M1457.35,679.59c-1.54,3.13-6.44,2.41-7,2.33-.69-.11-1.32-.28-1.89-.51-2.19-.87-3.52-2.45-3.94-2.99-11.24-13.56-22.47-27.13-33.72-40.69-.05-.08-.12-.2-.16-.28-1.1-2.74,.09-5.76,2.39-6.85,1.84-.87,4.2-.42,5.83,1.17,.28,.31,.56,.64,.84,.96,11.77,13.3,23.55,26.57,35.31,39.86,2.5,1.87,3.36,4.9,2.33,7Z"/>
    <path class="cls-4" d="M1415.61,675.48c-1.38-.63-2.5-1.76-3.14-3.13-2.67-5.73,3.73-11.44,9.21-8.16,.84,.51,1.56,1.24,2.08,2.09,3.28,5.47-2.44,11.87-8.15,9.2Z"/>
    <path class="cls-11" d="M1462.28,681.29c-.07,.21-.16,.42-.26,.63-1.62,3.53-5.11,4.49-5.83,4.67-3.63,.9-6.48-.84-7-1.17-1.26,.26-2.51,.5-3.77,.76-5.95,1.19-11.91,2.38-17.86,3.57-3.56,.71-7.1,1.42-10.66,2.13-2.85,.56-5.69,1.13-8.54,1.7-4.79,.96-9.57,1.91-14.37,2.87-2.99,.61-5.97,1.2-8.96,1.8,.52-1.22,1.05-2.44,1.57-3.66,1.96-.42,3.91-.83,5.87-1.25,5.01-1.07,10.04-2.15,15.06-3.21,2.31-.5,4.63-.99,6.94-1.48,4.23-.9,8.46-1.81,12.69-2.71,5-1.06,9.99-2.13,15-3.2,2.1-.45,4.2-.9,6.3-1.34,.57,.23,1.2,.41,1.89,.51,.56,.08,5.46,.79,7-2.33,1.03-2.1,.16-5.13-2.33-7-11.77-13.3-23.55-26.57-35.31-39.86,.78-.56,1.69-.91,2.66-.96,1.8-.09,3.1,.85,3.5,1.17,11.59,13.46,23.19,26.93,34.78,40.39,1.89,2.19,2.62,5.25,1.63,7.97Z"/>
    <text class="cls-16" transform="translate(598.54 582.09) rotate(-99.7)"><tspan class="cls-28" x="0" y="0">S</tspan><tspan class="cls-27" x="18.39" y="0">T</tspan><tspan x="34.16" y="0">A</tspan><tspan class="cls-13" x="55.06" y="0">R</tspan><tspan class="cls-26" x="74.54" y="0">T</tspan></text>
    <path class="cls-4" d="M506,1977c-23.62-1.22-45.75-3.65-66.28-6.85,5.19-35.08,10.37-70.17,15.56-105.25,15.98,1.74,33.99,2.68,53.72,2.1-4.2,3.56-23.16,20.43-26,49-3.47,34.89,20.01,58.13,23,61Z"/>
    <path class="cls-4" d="M455.28,1864.9c-5.19,35.08-10.37,70.17-15.56,105.25-51.42-8.02-92.86-20.93-122.72-32.15-4.6-1.73-9.17-3.45-13.7-5.18,4.46-10.07,8.93-20.15,13.39-30.22,16.81,7.02,35.93,13.75,57.31,19.4-2,5.67-4,11.33-6,17,3.11-2.07,6.22-4.15,9.33-6.22-.44,1.41-.89,2.81-1.33,4.22,17-7.33,34-14.67,51-22l-33-39c-.44,2.33-.87,4.65-1.31,6.98-1.9-1.66-3.79-3.32-5.69-4.98l-2.22,12.57c-14.84-3.53-33.72-9.09-54.72-18.11,5.35-12.08,10.71-24.15,16.06-36.23,18.02,7.78,39.04,15.16,62.88,20.77,12.52,2.94,28.09,5.94,46.28,7.9Z"/>
    <path class="cls-4" d="M346.12,1836.23c-5.35,12.08-10.71,24.15-16.06,36.23-10.56-4.55-21.67-9.98-33.06-16.46-16.3-9.28-42.62-24.27-68.13-48.51,9.21-9.31,18.42-18.63,27.62-27.94,5.16,4.73,11.28,9.91,18.51,15.45,10.19,7.8,34.42,25.36,71.12,41.23Z"/>
    <path class="cls-4" d="M316.69,1902.6c-4.46,10.07-8.93,20.15-13.39,30.22-46.03-17.57-88.15-35.96-125.7-73.45,8.55-8.66,17.11-17.31,25.67-25.97,18.75,17.63,38.5,29.47,58.73,41.6,14.07,8.44,32.34,18.27,54.69,27.6Z"/>
    <path class="cls-4" d="M203.27,1833.4c-8.56,8.66-17.12,17.31-25.67,25.97-3.92-3.91-7.78-8.02-11.6-12.37-30.48-34.7-45.53-70.07-53-88-4.59-11.02-8.41-21.78-11.6-32.16,11.34-2.97,22.67-5.95,34.01-8.93,2.01,6.48,4.83,14.78,8.59,24.09,4.4,10.88,16.56,40.43,38,68,6.92,8.9,14.02,16.59,21.27,23.4Z"/>
    <path class="cls-4" d="M256.49,1779.55c-9.2,9.31-18.41,18.63-27.62,27.94-19.33-18.35-38.19-42-51.87-72.49-3.89-8.67-7.06-17.2-9.61-25.49,13.72-3.61,27.44-7.21,41.16-10.82,4.34,15.62,10.94,34.59,23.45,53.31,2.61,3.91,9.52,13.84,24.49,27.55Z"/>
    <path class="cls-4" d="M208.55,1698.69c-13.72,3.61-27.44,7.21-41.16,10.82-8.37-27.06-10.34-51.51-10.39-69.51-9.67,.67-19.33,1.33-29,2,.05,.97,.1,1.97,.16,3h-5.16c.59,15.63,2.68,36.76,9,61,.63,2.43,1.74,6.55,3.41,11.91-11.34,2.98-22.67,5.96-34.01,8.93-11.21-36.57-14.52-68.53-15.4-90.84,.06-33.68,.11-67.37,.17-101.05,37.1-.3,74.21-.6,111.31-.9,.13,31.18,.28,62.35,.44,93.53,.09,18.41,2.15,36.77,6.41,54.69,.22,.9,.44,1.81,.67,2.73,1.03,4.15,2.18,8.75,3.55,13.69Z"/>
    <path class="cls-4" d="M197.48,1534.05c-37.1,.3-74.21,.6-111.31,.9,.09-51.98,.17-103.97,.26-155.95h110.42c.05,14,.1,28,.15,42,.14,37.68,.3,75.37,.48,113.05Z"/>
    <path class="cls-4" d="M196.85,1379H86.43c.09-51.68,.18-103.35,.26-155.03,36.56-.3,73.12-.61,109.68-.91,.13,51.98,.29,103.96,.48,155.94Z"/>
    <path class="cls-4" d="M196.37,1223.06c-36.56,.3-73.12,.61-109.68,.91,.09-51.66,.18-103.33,.27-154.99,36.37-.31,72.73-.64,109.1-.95,.07,51.68,.18,103.35,.31,155.03Z"/>
    <path class="cls-4" d="M196,1034c.02,11.34,.03,22.69,.06,34.03-36.37,.31-72.73,.64-109.1,.95,0-8.66,.03-17.32,.04-25.98,.28-18.28,2.04-44.45,9-75,2.03-8.91,4.73-20.49,8.83-33.83,34.75,10.65,69.51,21.3,104.26,31.94-9.66,27.44-12.38,51.6-13.09,67.89Z"/>
    <path class="cls-4" d="M259.26,883.09c-26.22,26.99-39.11,55.99-44.26,67.91-2.22,5.13-4.18,10.17-5.91,15.11-34.75-10.64-69.51-21.29-104.26-31.94,9.71-31.55,27.25-72.96,62.17-112.17,5.82-6.54,11.74-12.58,17.68-18.16,24.86,26.41,49.72,52.84,74.58,79.25Z"/>
    <path class="cls-4" d="M349.34,832.09c-25.27,6.7-49.09,16.41-72.34,34.91-6.5,5.17-12.4,10.59-17.74,16.09-24.86-26.41-49.72-52.84-74.58-79.25,38.89-36.58,78.5-53.47,96.32-60.84,11.25-4.66,22.46-8.53,33.46-11.79,11.62,33.63,23.25,67.25,34.88,100.88Z"/>
    <path class="cls-4" d="M463.48,812.03c-26.74,3.16-53.79,7.33-82.48,12.97-10.84,2.13-21.37,4.36-31.66,7.09-11.63-33.63-23.26-67.25-34.88-100.88,30.9-9.17,60.22-13.57,84.54-17.21,26.14-3.92,46.1-5.37,55-6,.14-.01,.29-.02,.43-.03,3.02,34.68,6.04,69.38,9.05,104.06Z"/>
    <path class="cls-4" d="M590.86,802.75c-45.05,1.86-85.85,4.36-127.38,9.28-3.01-34.68-6.03-69.38-9.05-104.06,50.7-3.58,93.66-6.62,129.87-9.15,2.19,34.64,4.38,69.29,6.56,103.93Z"/>
    <path class="cls-4" d="M717.8,798.37c-13.22,.45-29.2,.99-48.8,1.63-27.84,.92-53.62,1.74-78.14,2.75-2.18-34.64-4.37-69.29-6.56-103.93,60.1-4.2,101.58-7,128.88-8.57,.23,5.39,.46,10.77,.69,16.16-32.62,.19-65.25,.39-97.87,.59,5.45,23.3,10.89,46.6,16.34,69.89,.55,2.37,1.11,4.74,1.66,7.11,1.22-.03,2.43-.06,3.65-.08,.45,2.03,.9,4.05,1.35,6.08,30.23-.97,56.66-1.95,78.32-2.81,.16,3.73,.32,7.45,.48,11.18Z"/>
    <path class="cls-4" d="M842.58,705.63c-42.9,.26-85.81,.52-128.71,.78-.23-5.39-.46-10.77-.69-16.16,10.16-.58,18.36-1,24.82-1.25,31.88-1.24,66.63-2.34,104.07-3.13,.17,6.59,.34,13.18,.51,19.76Z"/>
    <path class="cls-4" d="M844.88,794.39c-8.49,.19-17.12,.39-25.88,.61-38.41,.95-32.83,1.04-101.2,3.37-.16-3.73-.32-7.45-.48-11.18,10.79-.43,20.39-.83,28.68-1.19,37.79-1.62,66.37-3.06,98.55-4.29,.11,4.23,.22,8.45,.33,12.68Z"/>
    <path class="cls-4" d="M972.96,684.51c-.3,35.96-.62,71.93-.92,107.89-37.52,.34-80.2,.96-127.16,1.99-.11-4.23-.22-8.45-.33-12.68,16.33-.62,33.59-1.2,53.45-1.71,20.53-.53,37.3-.83,48-1,3-23.67,6-47.33,9-71-2.82,.19-5.64,.38-8.46,.56,.15-1.19,.31-2.37,.46-3.56-34.81,.21-69.61,.42-104.42,.63-.17-6.58-.34-13.17-.51-19.76,40.56-.86,84.28-1.38,130.89-1.36Z"/>
    <path class="cls-4" d="M1048,792c-22.11,.03-47.56,.14-75.96,.4,.3-35.96,.62-71.93,.92-107.89,23.93,.01,48.62,.17,74.04,.49-3.56,3.56-22,22.71-22,53s19.55,50.68,23,54Z"/>
    <path class="cls-10" d="M1063,802c-46.29,.61-103.35,1.4-146,2-217.58,3.07-262,4-325,9-41.42,3.29-56,3-112,7-21.84,1.56-55.52,6.52-77,10-24.59,3.99-54.35,8.81-86,25-15.51,7.93-57.13,29.93-85,79-22.7,39.96-25.18,78.34-25,98v613c1.17,18.89,5.87,53.18,27,89,22.78,38.61,52.66,58.65,70,70,38.69,25.32,74.2,33.14,119,43,38.6,8.5,71.3,11.69,94,13"/>
    <path class="cls-10" d="M1059,676c-153.63,1.51-282.15,4.31-380,7,0,0-75.68,2.08-206,13-93.33,7.82-118.36,12.59-146,21-42.46,12.92-108.97,34.07-164,95-37.26,41.26-54.07,83.94-61,102-.47,1.21-.92,2.42-1.37,3.63-12.22,32.95-20.41,71.68-20.63,116.85v609.52c.29,8.73,1.03,20.78,3,35,8.84,63.98,33.8,109.16,40,120,37.84,66.14,90.6,100.25,114,115,47.18,29.73,88.5,40.45,133,52,59.66,15.48,110.99,19.93,147,21"/>
    <circle class="cls-4" cx="559.07" cy="1922.26" r="67.64"/>
    <text class="cls-15" transform="translate(519.78 1942.48)"><tspan x="0" y="0">03</tspan></text>
    <path class="cls-11" d="M382,1918c-1.56,4.92-3.11,9.85-4.67,14.78-3.11,2.07-6.22,4.15-9.33,6.22,2-5.67,4-11.33,6-17-21.38-5.65-40.5-12.38-57.31-19.4-22.35-9.33-40.62-19.16-54.69-27.6-20.23-12.13-39.98-23.97-58.73-41.6-7.25-6.81-14.35-14.5-21.27-23.4-21.44-27.57-33.6-57.12-38-68-3.76-9.31-6.58-17.61-8.59-24.09-1.67-5.36-2.78-9.48-3.41-11.91-6.32-24.24-8.41-45.37-9-61h5.16c.99,17.29,3.85,42.88,12.56,71.51,8.78,28.87,23.52,60.83,48.28,90.49,6.38,7.64,12.98,14.6,19.65,20.95,27.65,26.33,56.37,42.15,74.35,52.05,12.4,6.83,24.48,12.59,35.98,17.45,24.25,10.26,45.98,16.55,63.02,20.55Z"/>
    <path class="cls-4" d="M377.33,1932.78c1.56-4.93,3.11-9.86,4.67-14.78-17.04-4-38.77-10.29-63.02-20.55-11.5-4.86-23.58-10.62-35.98-17.45-17.98-9.9-46.7-25.72-74.35-52.05-6.67-6.35-13.27-13.31-19.65-20.95-24.76-29.66-39.5-61.62-48.28-90.49-8.71-28.63-11.57-54.22-12.56-71.51-.06-1.03-.11-2.03-.16-3,9.67-.67,19.33-1.33,29-2,.05,18,2.02,42.45,10.39,69.51,2.55,8.29,5.72,16.82,9.61,25.49,13.68,30.49,32.54,54.14,51.87,72.49,25.51,24.24,51.83,39.23,68.13,48.51,11.39,6.48,22.5,11.91,33.06,16.46,21,9.02,39.88,14.58,54.72,18.11,2.16,.52,4.24,1,6.22,1.43,.56-3,1.13-6.01,1.69-9.02,.44-2.33,.87-4.65,1.31-6.98l33,39c-17,7.33-34,14.67-51,22,.44-1.41,.89-2.81,1.33-4.22Z"/>
    <path class="cls-11" d="M392.69,1882.98c-.56,3.01-1.13,6.02-1.69,9.02-1.98-.43-4.06-.91-6.22-1.43l2.22-12.57c1.9,1.66,3.79,3.32,5.69,4.98Z"/>
    <path class="cls-4" d="M947,705c-.15,1.19-.31,2.37-.46,3.56-2.85,21.81-5.69,43.63-8.54,65.44-31.18,1.34-62.36,2.59-93.55,3.73-21.81,.81-43.63,1.56-65.45,2.27-20.63,.67-41.27,1.3-61.9,1.88-26.48,.75-52.96,1.43-79.45,2.04-1.22,.02-2.43,.05-3.65,.08-.55-2.37-1.11-4.74-1.66-7.11-5.45-23.29-10.89-46.59-16.34-69.89,32.62-.2,65.25-.4,97.87-.59,42.9-.26,85.81-.52,128.71-.78,34.81-.21,69.61-.42,104.42-.63Z"/>
    <path class="cls-11" d="M955,708c-3,23.67-6,47.33-9,71-10.7,.17-27.47,.47-48,1-19.86,.51-37.12,1.09-53.45,1.71-32.18,1.23-60.76,2.67-98.55,4.29-8.29,.36-17.89,.76-28.68,1.19-21.66,.86-48.09,1.84-78.32,2.81-.45-2.03-.9-4.05-1.35-6.08,26.49-.61,52.97-1.29,79.45-2.04,20.63-.58,41.27-1.21,61.9-1.88,21.82-.71,43.64-1.46,65.45-2.27,31.19-1.14,62.37-2.39,93.55-3.73,2.85-21.81,5.69-43.63,8.54-65.44,2.82-.18,5.64-.37,8.46-.56Z"/>
    <path class="cls-8" d="M670.39,5629.71c-37.15,3.18-82.43,5.59-137.89,6.79-.17-36.04-.33-72.06-.5-108.1,3.3-.13,6.64-.29,10.03-.49,42.66-.56,80.57-3.24,113.13-6.73,5.07,36.18,10.15,72.35,15.23,108.53Z"/>
    <path class="cls-8" d="M802.1,5608.19c-1.76,.49-3.3,.94-4.6,1.31-26.31,7.55-65.56,14.94-127.11,20.21-5.08-36.18-10.16-72.35-15.23-108.53,25.71-2.76,48.08-6.03,66.84-9.18,25.37-4.26,44.58-8.37,61.37-11.52,6.24,35.9,12.48,71.81,18.73,107.71Z"/>
    <path class="cls-8" d="M943.3,5516.22c-15.27,32.65-30.52,65.3-45.78,97.95-4.9-2.49-10.24-4.77-16.02-6.67-33.38-10.97-64.38-3.54-79.4,.69-6.25-35.9-12.49-71.81-18.73-107.71,26.63-4.99,47.19-7.57,76.63-4.48,17.96,1.88,49.36,5.53,83.3,20.22Z"/>
    <path class="cls-8" d="M1056.79,5633.51c-33.28,14.22-66.54,28.43-99.82,42.65-5.22-11.17-12.62-23.16-23.47-34.66-4.66-4.94-16.92-17.66-35.98-27.33,15.26-32.65,30.51-65.3,45.78-97.95,19.42,8.4,39.67,20.41,58.7,37.78,27.62,25.21,44.27,54,54.79,79.51Z"/>
    <path class="cls-8" d="M1081,5767h-108c1.06-13.08,1.25-33.12-4.5-56.5-2.13-8.68-5.24-20.9-11.53-34.34,33.28-14.22,66.54-28.43,99.82-42.65,8.67,21.02,13.17,39.79,16.21,52.49,7.96,33.21,8.71,61.74,8,81Z"/>
    <path class="cls-12" d="M99.5,5414.5c12.18,32.7,39.8,92.46,100,141,49.75,40.11,98.9,54.13,144,67,72.13,20.58,136.8,21.92,189,23,31.87,.66,57.18-.45,68-1,45.07-2.31,79.37-6.66,122-14,50.66-8.72,59.81-13.85,96-16,34.62-2.05,51.93-3.08,67,3,55.26,22.3,74.13,107.58,76,118,2.31,12.86,2.89,23.69,3,31"/>
    <path class="cls-12" d="M1092.5,5765.5c1.16-23.79,.11-61.29-14-104-8.36-25.3-29.83-87.37-91-131-55.38-39.5-113.17-42.4-145-44-52.37-2.63-72.63,8.99-151,21-10.26,1.57-75.73,9.84-158,13-30.25,1.16-59.85,1.49-97.11-4.22-14.14-2.17-34.97-5.45-60.89-13.78-32.13-10.33-90.28-29.03-130-82-12.99-17.32-20.6-33.76-25-45"/>
    <path class="cls-9" d="M1109.5,5774.5v61c-27.33,11-54.67,22-82,33-26.67-11.67-53.33-23.33-80-35v-60c54,.33,108,.67,162,1Z"/>
    <path class="cls-8" d="M243.66,5434.84c-28.15,23.15-56.31,46.29-84.46,69.44-6.74-8.09-13.38-16.99-19.7-26.78-13.5-20.92-21.86-40.13-27-54,3.41,1.65,37.91,17.65,71-1,20.7-11.67,29.32-30.4,32-37,4.95,12.86,13.45,30.91,28.16,49.34Z"/>
    <path class="cls-8" d="M423.96,5612.27c-.72,5.33-1.44,10.66-2.16,15.99-46.09-5.39-93.74-14.33-141.1-35.33,2.49-5.33,4.98-10.67,7.47-16,23.32,11.35,43.5,17.15,52.33,19.57,29.23,8,58.2,12.83,83.46,15.77Z"/>
    <path class="cls-8" d="M263.5,5485.5l-42,42c2.87,2.53,6.06,5.24,9.58,8.08,.01,0,.01,0,.02,.02,2.53,2.92,5.32,5.91,8.4,8.9,8.79,8.55,18.22,15.55,31,23,6,3.5,11.93,6.63,17.67,9.43-2.49,5.33-4.98,10.67-7.47,16-14.78-6.55-29.53-14.27-44.2-23.43-17.6-10.99-48.48-30.68-77.3-65.22,28.15-23.15,56.31-46.29,84.46-69.44,1.23,1.55,2.51,3.11,3.84,4.66,25.15,29.46,53.46,43.4,79.19,54.87-2.21,4.74-4.42,9.49-6.64,14.23-21.1-7.27-39.99-15.23-56.55-23.1Z"/>
    <path class="cls-8" d="M532.5,5636.5c-13.7-.24-33.41-.93-57-3-17.58-1.54-35.52-3.12-53.7-5.24,.72-5.33,1.44-10.66,2.16-15.99,22.14,2.57,41.43,3.7,55.54,4.23,14.67-10,29.33-20,44-30-7.29-10.82-14.59-21.65-21.88-32.47-2.71-5.18-5.41-10.35-8.12-15.53-17.49-.17-37.35-1.2-59.06-3.76,.5-3.73,1.01-7.45,1.51-11.18,24.16,3.45,56.89,6.38,96.05,4.84,.17,36.04,.33,72.06,.5,108.1Z"/>
    <path class="cls-8" d="M435.95,5523.56c-.5,3.73-1.01,7.45-1.51,11.18-24.23-2.85-50.78-7.62-78.94-15.24-12.43-3.36-24.25-7.03-35.45-10.9,2.22-4.74,4.43-9.49,6.64-14.23,1.62,.72,3.22,1.43,4.81,2.13,39.99,17.66,73.18,22.59,104,27,.15,.02,.3,.04,.45,.06Z"/>
    <path class="cls-8" d="M516.5,5582.5c-13.67,9-27.33,18-41,27-18.23-.1-35.19-1.12-50.79-2.74-31.63-3.27-57.64-8.96-77.21-14.26-25.45-6.89-44.4-14.31-57.22-20.11-8.73-3.94-14.61-7.13-17.78-8.89-16.86-9.37-30.65-19.24-41.4-27.9,0-.01,0-.02-.02-.02-3.52-2.84-6.71-5.55-9.58-8.08l42-42c16.56,7.87,35.45,15.83,56.55,23.1,11.2,3.87,23.02,7.54,35.45,10.9,28.16,7.62,54.71,12.39,78.94,15.24,21.71,2.56,41.57,3.59,59.06,3.76,2.71,5.18,5.41,10.35,8.12,15.53,4.96,9.49,9.92,18.98,14.88,28.47Z"/>
    <path class="cls-2" d="M523.5,5586.5c-14.67,10-29.33,20-44,30-14.11-.53-33.4-1.66-55.54-4.23-25.26-2.94-54.23-7.77-83.46-15.77-8.83-2.42-29.01-8.22-52.33-19.57-5.74-2.8-11.67-5.93-17.67-9.43-12.78-7.45-22.21-14.45-31-23-3.08-2.99-5.87-5.98-8.4-8.9,10.75,8.66,24.54,18.53,41.4,27.9,3.17,1.76,9.05,4.95,17.78,8.89,12.82,5.8,31.77,13.22,57.22,20.11,19.57,5.3,45.58,10.99,77.21,14.26,15.6,1.62,32.56,2.64,50.79,2.74,13.67-9,27.33-18,41-27-4.96-9.49-9.92-18.98-14.88-28.47,7.29,10.82,14.59,21.65,21.88,32.47Z"/>
    <circle class="cls-4" cx="1691.04" cy="2855" r="67.64"/>
    <text class="cls-15" transform="translate(1651.75 2875.22)"><tspan x="0" y="0">04</tspan></text>
    <circle class="cls-4" cx="241.08" cy="4135.66" r="67.64"/>
    <text class="cls-15" transform="translate(201.8 4155.88)"><tspan x="0" y="0">06</tspan></text>
    <circle class="cls-4" cx="1775.35" cy="4328.44" r="67.64"/>
    <text class="cls-15" transform="translate(1736.06 4348.66)"><tspan class="cls-25" x="0" y="0">0</tspan><tspan x="38.82" y="0">7</tspan></text>
    <circle class="cls-4" cx="146.98" cy="5355.38" r="67.64"/>
    <text class="cls-15" transform="translate(107.7 5375.6)"><tspan x="0" y="0">08</tspan></text>
    <circle class="cls-4" cx="227.89" cy="3025.04" r="67.64"/>
    <text class="cls-15" transform="translate(188.61 3045.26)"><tspan x="0" y="0">05</tspan></text>
    <circle class="cls-4" cx="141.62" cy="1201.02" r="67.64"/>
    <text class="cls-15" transform="translate(102.34 1221.24)"><tspan x="0" y="0">02</tspan></text>
    <text class="cls-17" transform="translate(964.41 5820.68)"><tspan x="0" y="0">SPREMNI?</tspan></text>
    <path class="cls-12" d="M601,1859c45.14-1.39,110.41-4.8,189-14,52.21-6.11,83.27-11.61,172-25,106.54-16.08,159.85-23.85,194-28,93.36-11.34,152.92-14.69,238.5-19.5,67.68-3.81,119.73-5.3,185,6,50.49,8.74,75.9,19.43,88,25,13.08,6.02,65.05,31.13,110,87,25.99,32.3,42.2,65.65,52.39,95.09,11.12,32.11,16.59,65.9,16.65,99.88,.32,204.01,.64,408.02,.96,612.03-.1,18.91-2.47,44.5-12,73-18.09,54.08-51.74,88.06-70,104"/>
    <path class="cls-12" d="M1681.5,2779.5c7.58-6.88,20.31-20.26,29-41,7.78-18.56,9.01-35.1,9-45-.33-206.29-.65-412.58-.98-618.87-.04-23.85-4.97-47.5-15.03-69.12-1.23-2.65-2.56-5.32-3.99-8-34.99-65.51-103.89-86.01-124-92-22.45-6.68-41.63-8.77-95-9-94.78-.41-168.08,5.58-185,7-83.21,7-146.04,12.28-237,25-91.08,12.74-105.96,18.34-183,30-65.01,9.84-159.47,21.76-277,28"/>
    <path class="cls-12" d="M1695.5,2777.5c7.39,.54,27.92,3.03,46,19,27.43,24.24,26.24,59.22,26,64,12.22-12.03,27.19-29.46,40-53,3.32-6.11,15.72-29.56,23-63,2.11-9.7,3.3-17.97,4-24l3-660c-1.8-21.44-6.74-52.44-21-87-5.63-13.64-28.56-66.22-83-113-53.19-45.7-107.36-60.86-134-68-41.18-11.04-76.35-11.51-145-12-33.08-.24-73.39,.57-146,6-36.91,2.76-105.86,8.48-220,23-84.49,10.74-70.26,10.6-201,28-77.17,10.27-133.13,17.11-191.99,23.49-34.22,3.71-62.8,6.56-83.01,8.51,4.56,4.86,19.33,21.82,21,48,2.12,33.22-18.5,55.36-22,59,24.42-.87,57.17-2.47,95.78-5.66,13.48-1.11,43.53-3.73,81.22-8.34,104.18-12.73,158.82-27.49,267-43,69.94-10.03,123.16-14.76,182-20,71.87-6.4,38.82-1.67,173-11,86.6-6.02,126.36-9.79,177,8,33.59,11.8,55.97,27.48,67,36,15.41,11.9,39.09,30.61,56,64,13.98,27.6,17.26,53.26,18,69v622c.57,9.21,.27,21.33-3,35-6.57,27.46-21.46,45.92-30,55Z"/>
    <path class="cls-12" d="M694.5,1858.5c4.33,38.67,8.67,77.33,13,116"/>
    <path class="cls-12" d="M818.5,1843.5l18,117"/>
    <path class="cls-12" d="M943.5,1826.5c6.33,37.67,12.67,75.33,19,113"/>
    <path class="cls-12" d="M742.5,1874.5c3.33,25.67,6.67,51.33,10,77,95.67-15.67,191.33-31.33,287-47,.67-24.67,1.33-49.33,2-74-99.67,14.67-199.33,29.33-299,44Z"/>
    <path class="cls-12" d="M757.5,1942.5c-.33,5-.67,10-1,15,96.67-15.33,193.33-30.67,290-46,.67-25.67,1.33-51.33,2-77l-27,6"/>
    <path class="cls-12" d="M1069.5,1807.5c5.33,37.33,10.67,74.67,16,112"/>
    <path class="cls-12" d="M1196.5,1791.5c5,38.67,10,77.33,15,116"/>
    <path class="cls-12" d="M1327.5,1780.5c2.33,38.67,4.67,77.33,7,116"/>
    <path class="cls-12" d="M1459.5,1775.5c-.67,38.33-1.33,76.67-2,115"/>
    <path class="cls-12" d="M1596.5,1786.5c-7.67,37-15.33,74-23,111"/>
    <path class="cls-12" d="M1735.5,1855.5c-25.67,29-51.33,58-77,87"/>
    <path class="cls-12" d="M1822.5,1978.5c-35.33,13-70.67,26-106,39"/>
    <path class="cls-12" d="M1726.5,2124.5h116"/>
    <path class="cls-12" d="M1725.5,2593.5c38.33-.67,76.67-1.33,115-2"/>
    <path class="cls-12" d="M1717.5,2735.5c36.33,13.33,72.67,26.67,109,40"/>
    <path class="cls-12" d="M1627.5,2814.5c-28.17,2.74-73.28,6.03-129,5-71.91-1.33-97.47-8.67-165-10-78.37-1.55-138.33,6.48-156,9-68.13,9.73-135.19,19.3-208,59-35.32,19.26-36.61,26.31-70,41-49.31,21.69-94.55,27.45-148,30-23.43,1.12-82.06,3.22-214-8-105.49-8.97-149.76-17.27-224-6-31.16,4.73-56.39,11.21-73,16"/>
    <path class="cls-12" d="M259.5,2955.5c4.04,1.62,29.33,12.25,40,41,10.86,29.27-1.99,54.24-4,58,19.25-1.83,48.43-4.14,84-5,67.49-1.63,108.46,3.13,174,8,108.35,8.05,162.52,12.08,217,8,61.71-4.62,112.04-8.87,169-37,29.66-14.65,34.39-22.57,75-42,26.22-12.55,70.53-31.39,127-44,50.94-11.38,88.37-12.46,142-14,57.1-1.64,103.01,1.13,167,5,58.55,3.54,81.47,6.63,124,4,39.24-2.43,71.34-8.25,93-13-4.45-1.34-31.02-9.84-45-38-14.03-28.26-4.63-54.66-3-59-29.05,1.8-73.46,3.47-128,1-43.88-1.99-52.85-4.78-103-7-70.98-3.15-122.16-.62-134,0-36.55,1.92-70.6,3.72-116,12-30.25,5.52-68.86,12.56-115,31-57.44,22.95-59.12,36.61-113,59-52.19,21.69-96.12,27.79-128,32-44.44,5.87-85.9,3.99-167,0-73.09-3.6-152-10-152-10-54.57-4.43-96.98-8.77-155,0-20.58,3.11-37.44,7.02-49,10Z"/>
    <path class="cls-12" d="M288.5,3068.5c17.89-3.37,44.11-7.59,76-10,61.22-4.63,101.52,.54,161,6,95.49,8.76,144.41,13.25,208,12,62.33-1.23,106.12-2.42,161-20,53.15-17.02,61.69-31.79,120-59,96.06-44.82,181.36-55.35,213-59,95.27-11,186.58-.19,222,4,45.01,5.33,88.76,13.4,152,6,37.71-4.42,68.11-12.67,88-19"/>
    <path class="cls-12" d="M162.5,2990.5c-3.3,2.53-7.86,6.22-13,11-20.39,18.97-35.14,41.51-47,69-19.24,44.6-23.99,84.73-24,92-.33,272-.67,544-1,816-.01,10.57,2.61,33.84,12,63,18.89,58.67,55.05,99.3,82,124"/>
    <path class="cls-12" d="M245.5,4060.5c-11.75-13.88-27.45-36.66-35-68-2.24-9.32-3.45-18.07-4-26-.56-107.33-.89-214.66-1-322-.16-159.67,.17-319.34,1-479-.21-9.36,.74-27.28,11-46,5.08-9.27,11.03-16.16,16-21"/>
    <path class="cls-12" d="M151.5,3012.5c-.82,5.69-3.82,31.08,13,55,19.53,27.77,50.31,31.51,55,32-5.89,9.36-13.15,23.16-18,41-5.43,19.99-5.72,37.31-5,49,.33,262,.67,524,1,786,.83,9.56,2.76,21.22,7,34,8.06,24.27,20.81,41.56,30,52-5.67,.18-29.85,1.59-49,21-25.76,26.1-19.63,61.68-19,65-16.09-15.84-39.45-42.78-57-82-14.44-32.26-19.86-61.48-22-82,.33-268.87,.65-537.73,.98-806.6,.03-27.67,4.55-55.19,13.87-81.24,.38-1.05,.76-2.1,1.15-3.16,13.82-37.09,33.6-63.65,48-80Z"/>
    <path class="cls-12" d="M1156.5,2843.5c-.33,23-.67,46-1,69,118.67,.33,237.33,.67,356,1v-74c-118.33,1.33-236.67,2.67-355,4Z"/>
    <path class="cls-12" d="M1158.5,2907.5c-.33,3-.67,6-1,9,119.33,.67,238.67,1.33,358,2v-73h-14"/>
    <path class="cls-12" d="M307.5,4097.5c34.37,8.07,87.96,18.35,154,21,72.56,2.91,136.74-4.35,381-63,140.94-33.84,165.93-42.56,281-68,116.2-25.69,158.57-35.88,218-42,112.6-11.59,185.74-3.4,240,8,78,16.39,114.46,38.88,134,53,7.42,5.37,42.65,31.38,74,78,33.16,49.3,43.96,94.84,49,117,8.95,39.36,9.91,73.23,9,97"/>
    <path class="cls-12" d="M1720.5,4276.5c.32-18.23-1.5-51.99-19-89-6.72-14.22-30.31-59.71-82-88-8.5-4.65-30.91-16.03-98-24-72.37-8.59-128.92-5.16-146-4-27.87,1.9-83.73,6.84-201,33-76.67,17.11-91.25,23.57-207,53-92.5,23.51-138.74,35.27-196,47-60.99,12.49-158.86,30.35-277,38-47.96,3.1-86.41,3.69-133-3-47.99-6.89-86.92-18.96-114-29"/>
    <path class="cls-8" d="M359.66,4118.19c-6.4,36.01-12.81,72.04-19.22,108.05-31.32-5.89-57.13-13.45-75.94-19.74,4.41-1.44,33.98-11.61,47-43,10.82-26.08,3.02-49.45,1-55,13.76,3.34,29.56,6.72,47.16,9.69Z"/>
    <path class="cls-8" d="M599.67,4136.07c-41.08,3.27-82.15,6.55-123.23,9.82-.27-6.18-.54-12.35-.81-18.53,13.83-.13,28.14-.72,42.87-1.86,31.59-2.43,56.91-6.74,77.53-10.89,1.21,7.15,2.42,14.31,3.64,21.46Z"/>
    <path class="cls-8" d="M614.05,4220.84c-28.5,3.87-59.6,7.56-92.55,10.66-13.5,1.27-27.15,2.43-41.17,3.23-.26-6.08-.53-12.15-.8-18.23,44.02-3.39,88.04-6.77,132.06-10.16,.82,4.83,1.64,9.67,2.46,14.5Z"/>
    <path class="cls-8" d="M1358.32,4064.11c-70.43,5.36-121.77,15.17-142.82,19.39-45.23,9.08-45.71,11.44-158,41-22.48,5.92-43.64,11.49-63.9,16.78-9.73-34.97-19.46-69.94-29.19-104.91,32.98-8.85,70.25-19.18,111.15-31.08h.01c65.45-15.86,142.37-33.03,218.93-44.79,11.27-1.73,30.43-4.55,55.38-7.01,2.81,36.87,5.63,73.75,8.44,110.62Z"/>
    <path class="cls-8" d="M870.12,4172.3c-32.65,7.74-65.38,15.01-100.62,22.2-6.3,1.29-14.39,2.92-24.08,4.79l-26.82-104.61c8.9-1.66,17.87-3.39,26.9-5.18,35.44-7.04,65.56-13.94,96.89-21.66,9.24,34.82,18.49,69.64,27.73,104.46Z"/>
    <path class="cls-8" d="M745.42,4199.29c-30.16,5.83-75.82,14.03-131.37,21.55-.82-4.83-1.64-9.67-2.46-14.5,20.97-1.61,41.94-3.23,62.91-4.84-.33-22.67-.67-45.33-1-68-1.34,.34-2.67,.67-4,1v-4c-23.28,1.85-46.55,3.71-69.83,5.57-1.22-7.15-2.43-14.31-3.64-21.46,1.44-.29,2.85-.58,4.24-.86,.02-.01,.05-.01,.09-.02,37.92-5.14,77.39-11.41,118.24-19.05l26.82,104.61Z"/>
    <path class="cls-8" d="M480.33,4234.73c-36.4,2.08-75.33,1.75-120.83-5.23-6.56-1-12.92-2.1-19.06-3.26,6.41-36.01,12.82-72.04,19.22-108.05,32.87,5.55,72.02,9.63,115.97,9.17,.27,6.18,.54,12.35,.81,18.53-27.65,2.2-55.29,4.41-82.94,6.61,5.33,21,10.67,42,16,63,1.67-.12,3.33-.24,5-.37v6.37c21.68-1.67,43.35-3.34,65.03-5,.27,6.08,.54,12.15,.8,18.23Z"/>
    <path class="cls-8" d="M1839.5,4285.5c-2.81-4.03-20.56-28.61-54-33-30.56-4.02-52.56,11.68-57,15,.24-11.16-.27-29.7-5.55-51.63,35.15-9.11,70.29-18.23,105.44-27.34,1.89,7.01,3.61,14.34,5.11,21.97,5.94,30.19,6.64,56.19,6,75Z"/>
    <path class="cls-8" d="M1828.39,4188.53c-35.15,9.11-70.29,18.23-105.44,27.34-3.81-15.85-10.12-33.48-20.45-51.37-8.14-14.11-17.39-25.97-26.88-35.92,26.78-24.29,53.56-48.58,80.34-72.87,14.73,15.95,24.72,30.03,30.54,38.79,7.47,11.24,28.64,44.72,41.89,94.03Z"/>
    <path class="cls-8" d="M1755.96,4055.71c-26.78,24.29-53.56,48.58-80.34,72.87-23.5-24.7-48.37-37.64-61.12-44.08-16.39-8.29-36.3-15.88-75.59-20.23,.74-5.81,1.48-11.62,2.22-17.43,2.06,.43,4.19,.66,6.37,.66,17.12,0,31-13.88,31-31,0-9.04-3.87-17.18-10.05-22.84-.03-.04-.07-.07-.11-.11-4.89-5.33-11.62-8.95-19.18-9.83l3.03-23.82c19.31,1.94,37.98,4.19,56,6.67,.02,0,.04,0,.06,0,22.88,5.84,45.61,14.13,70.25,27.92,33.77,18.9,59.24,41.48,77.46,61.21Z"/>
    <path class="cls-8" d="M1552.19,3959.9l-3.03,23.82c-1.2-.15-2.42-.22-3.66-.22-17.12,0-31,13.88-31,31,0,9.04,3.87,17.18,10.05,22.84,.04,.04,.07,.08,.11,.11,4.29,4.69,10.01,8.05,16.47,9.39-.74,5.81-1.48,11.62-2.22,17.43-19.43-2.15-43.59-3.51-74.41-3.77-38.6-.33-74.34,1.18-106.18,3.61-2.81-36.87-5.63-73.75-8.44-110.62,3.43-.34,6.97-.67,10.62-.99,.35-.04,.72-.08,1.08-.11,.08,0,.17-.01,.26-.01,32.15-.69,66.1-.43,101.66,1.12,30.84,1.34,60.44,3.55,88.69,6.4Z"/>
    <path class="cls-2" d="M1608.19,3966.57c-18.02-2.48-36.69-4.73-56-6.67-28.25-2.85-57.85-5.06-88.69-6.4-35.56-1.55-69.51-1.81-101.66-1.12,47.48-4.16,109.52-9.44,182.66,2.12,22.34,3.53,43.08,6.81,63.69,12.07Z"/>
    <path class="cls-8" d="M993.6,4141.28c-43.93,11.46-83.64,21.58-123.48,31.02-9.24-34.82-18.49-69.64-27.73-104.46,22.58-5.56,45.8-11.55,72.11-18.34,15.3-3.95,31.97-8.32,49.91-13.13,9.73,34.97,19.46,69.94,29.19,104.91Z"/>
    <path class="cls-2" d="M1075.56,4005.29c-40.9,11.9-78.17,22.23-111.15,31.08-17.94,4.81-34.61,9.18-49.91,13.13-26.31,6.79-49.53,12.78-72.11,18.34-31.33,7.72-61.45,14.62-96.89,21.66-9.03,1.79-18,3.52-26.9,5.18-40.85,7.64-80.32,13.91-118.24,19.05,5.37-1.11,10.41-2.2,15.14-3.23,37.14-8.06,70.82-15.36,101.5-22.03,117.25-25.5,190.8-41.76,246.52-55.29h.01c8-1.94,15.63-3.83,22.97-5.68,25.71-6.48,55.91-14.17,89.06-22.21Z"/>
    <path class="cls-8" d="M669.5,4130.5v66c-19.62,1.43-39.23,2.87-58.85,4.3-43.79,3.2-87.59,6.4-131.38,9.6-21.59,1.58-43.18,3.16-64.77,4.73-1.67,.13-3.33,.25-5,.37-5.33-21-10.67-42-16-63,27.65-2.2,55.29-4.41,82.94-6.61,41.08-3.27,82.15-6.55,123.23-9.82,23.28-1.86,46.55-3.72,69.83-5.57Z"/>
    <path class="cls-2" d="M674.5,4201.5c-20.97,1.61-41.94,3.23-62.91,4.84-44.02,3.39-88.04,6.77-132.06,10.16-21.68,1.66-43.35,3.33-65.03,5v-6.37c21.59-1.57,43.18-3.15,64.77-4.73,43.79-3.2,87.59-6.4,131.38-9.6,19.62-1.43,39.23-2.87,58.85-4.3v-62c1.33-.33,2.66-.66,4-1,.33,22.67,.67,45.33,1,68Z"/>
    <path class="cls-12" d="M475.63,4127.36c-.05-.95-.09-1.91-.13-2.86"/>
    <path class="cls-12" d="M596.03,4114.61c-.02-.09-.03-.19-.05-.28"/>
    <path class="cls-12" d="M600.27,4113.75c-1.44,.19-2.87,.38-4.29,.58"/>
    <path class="cls-2" d="M1578.5,4016.5c0,17.12-13.88,31-31,31-2.18,0-4.31-.23-6.37-.66-6.46-1.34-12.18-4.7-16.47-9.39,4.53,4.12,10.3,6.92,16.68,7.77,1.36,.19,2.75,.28,4.16,.28,17.12,0,31-13.88,31-31,0-8.02-3.05-15.34-8.05-20.84,6.18,5.66,10.05,13.8,10.05,22.84Z"/>
    <path class="cls-8" d="M1576.5,4014.5c0,17.12-13.88,31-31,31-1.41,0-2.8-.09-4.16-.28-6.38-.85-12.15-3.65-16.68-7.77-.04-.03-.07-.07-.11-.11-6.18-5.66-10.05-13.8-10.05-22.84,0-17.12,13.88-31,31-31,1.24,0,2.46,.07,3.66,.22,7.56,.88,14.29,4.5,19.18,9.83,.04,.04,.08,.07,.11,.11,5,5.5,8.05,12.82,8.05,20.84Z"/>
    <path class="cls-12" d="M1828.5,4188.5s-.07,.02-.11,.03"/>
  </g>
</svg>