<?xml version="1.0" encoding="UTF-8"?>
<svg id="Layer_2" data-name="Layer 2" xmlns="http://www.w3.org/2000/svg" viewBox="0 0 918 140">
  <defs>
    <style>
      .cls-1, .cls-2, .cls-3 {
        stroke: #000;
        stroke-miterlimit: 10;
      }

      .cls-2 {
        fill: #fcf6e1;
      }

      .cls-3 {
        fill: none;
      }
    </style>
  </defs>
  <g>
    <path class="cls-2" d="M895.18,.7c-.13,1.47-.23,2.95-.36,4.43-3.55,42.48-7.12,84.94-10.68,127.42-8.61,.01-17.23,.02-25.84,.03-26.14,.03-52.28,.07-78.42,.11-15.5,.02-30.98,.04-46.48,.06-24.64,.03-49.3,.07-73.94,.1-16.93,.02-33.85,.04-50.78,.07-23.28,.03-46.55,.06-69.83,.09-19.03,.03-38.07,.05-57.1,.08-20.41,.02-40.8,.05-61.21,.08-13.36,.02-26.71,.03-40.07,.06-121.06,.16-242.13,.32-363.19,.47-3.07,0-6.12,0-9.2,.01C6.25,89.17,4.41,44.65,2.57,.12c131.19,.08,262.36,.17,393.54,.25,8.27,.01,16.55,.02,24.82,.02,25.46,.02,50.91,.03,76.37,.05,16.34,.01,32.69,.02,49.03,.03,23.62,.02,47.26,.03,70.89,.04,17.73,.01,35.46,.02,53.19,.03,22.68,.02,45.37,.03,68.05,.04,18.95,.01,37.87,.02,56.82,.03,19.46,.02,38.94,.03,58.41,.04,1.75,0,3.52,0,5.27,0,12.07,0,24.14,.01,36.23,.02Z"/>
    <path class="cls-1" d="M915.43,4.71c-3.07,45.09-6.12,90.19-9.2,135.29-175.51-.11-351.03-.23-526.53-.34-120.81-.08-241.61-.16-362.42-.23v-5.75c121.06-.16,242.13-.32,363.19-.47,13.36-.02,26.71-.04,40.07-.06,20.41-.03,40.8-.06,61.21-.08,19.03-.03,38.07-.05,57.1-.08,23.28-.03,46.55-.06,69.83-.09,16.93-.02,33.85-.04,50.78-.07,24.64-.03,49.3-.07,73.94-.1,15.5-.02,30.98-.04,46.48-.06,26.14-.04,52.28-.07,78.42-.11,8.61-.01,17.23-.02,25.84-.03,3.55-42.48,7.12-84.94,10.68-127.42,6.86-.14,13.75-.28,20.61-.41Z"/>
  </g>
  <line class="cls-3" x1="459.5" y1="21.5" x2="459.5" y2="112.5"/>
</svg>