<?xml version="1.0" encoding="UTF-8"?>
<svg id="Layer_2" data-name="Layer 2" xmlns="http://www.w3.org/2000/svg" viewBox="0 0 520 260">
  <defs>
    <style>
      .cls-1, .cls-2, .cls-3, .cls-4, .cls-5 {
        stroke: #000;
        stroke-miterlimit: 10;
      }

      .cls-2 {
        fill: #0071bc;
      }

      .cls-3 {
        fill: #fcd321;
      }

      .cls-4 {
        fill: #fcf6e1;
      }

      .cls-5 {
        fill: #ff1d25;
      }
    </style>
  </defs>
  <g>
    <path class="cls-2" d="M483.99,5.24c6.13,5.2,9.94,13.02,9.75,21.69-.35,15.25-13,27.34-28.25,26.99-15.26-.34-27.34-12.99-27-28.25,.19-8.25,3.98-15.58,9.84-20.51-10.61-.02-21.21-.04-31.82-.06,5.41,5.16,8.71,12.51,8.53,20.58-.35,15.26-12.99,27.34-28.25,27-15.25-.35-27.34-12.99-27-28.25,.18-7.66,3.46-14.52,8.61-19.41-9.93-.02-19.86-.04-29.79-.06,4.93,5.12,7.9,12.13,7.72,19.79-.34,15.26-12.99,27.34-28.24,27-15.26-.35-27.35-12.99-27-28.25,.16-7.25,3.11-13.79,7.82-18.62-9.15-.02-18.31-.04-27.46-.06,4.02,4.92,6.36,11.23,6.2,18.06-.34,15.26-12.99,27.35-28.25,27-15.25-.34-27.34-12.99-26.99-28.25,.15-6.42,2.47-12.29,6.27-16.9-4.63,0-9.27-.01-13.9-.03-2.92,79.61-5.84,159.23-8.76,238.84,7.48-.04,14.96-.07,22.44-.1-6.61-5.19-10.77-13.32-10.57-22.37,.35-15.25,12.99-27.34,28.25-26.99,15.25,.34,27.34,12.99,27,28.25-.2,8.51-4.23,16.04-10.4,20.97,10.66-.05,21.32-.09,31.98-.14-5.18-5.15-8.33-12.34-8.15-20.22,.35-15.25,13-27.34,28.25-26.99,15.26,.34,27.34,12.99,27,28.24-.17,7.35-3.19,13.97-7.99,18.81,9.48-.04,18.96-.08,28.44-.12-4.49-5.04-7.16-11.73-6.99-19.01,.34-15.25,12.99-27.34,28.25-26.99,15.25,.34,27.34,12.99,26.99,28.24-.15,6.75-2.71,12.87-6.84,17.58,8.68-.03,17.35-.07,26.03-.1-3.73-4.83-5.89-10.91-5.74-17.48,.35-15.26,13-27.35,28.25-27,15.26,.34,27.34,12.99,27,28.25-.14,6.03-2.2,11.57-5.59,16.04,4.82-.02,9.65-.04,14.47-.06,1.99-76.38,3.99-152.73,5.98-229.11,.07-2.65,.13-5.31,.2-7.96-6.77-.02-13.53-.03-20.29-.04Zm-227.62,178.54c-15.25-.35-27.34-12.99-27-28.25,.35-15.25,13-27.34,28.25-27,15.26,.35,27.34,13,27,28.25-.35,15.26-12.99,27.34-28.25,27Zm1.55-68.36c-15.26-.34-27.34-12.99-27-28.24,.35-15.26,12.99-27.34,28.25-27,15.26,.35,27.34,12.99,27,28.25-.35,15.25-13,27.34-28.25,26.99Zm67.13,70.23c-15.25-.35-27.34-13-26.99-28.25,.34-15.26,12.99-27.34,28.25-27,15.25,.35,27.34,12.99,26.99,28.25-.34,15.25-12.99,27.34-28.25,27Zm1.55-68.36c-15.25-.34-27.34-12.99-26.99-28.25,.34-15.25,12.99-27.34,28.24-26.99,15.26,.34,27.35,12.99,27,28.25-.35,15.25-12.99,27.34-28.25,26.99Zm67.16,69.29c-15.26-.35-27.34-13-27-28.25,.35-15.26,12.99-27.34,28.25-27,15.25,.35,27.34,12.99,27,28.25-.35,15.26-13,27.34-28.25,27Zm1.55-68.36c-15.26-.34-27.35-12.99-27-28.24,.34-15.26,12.99-27.35,28.25-27,15.25,.34,27.34,12.99,26.99,28.25-.34,15.25-12.99,27.34-28.24,26.99Zm67.15,69.6c-15.26-.35-27.35-12.99-27-28.25,.34-15.25,12.99-27.34,28.25-26.99,15.25,.34,27.34,12.99,26.99,28.24-.34,15.26-12.99,27.35-28.24,27Zm1.54-68.35c-15.25-.35-27.34-13-26.99-28.25,.34-15.26,12.99-27.34,28.24-27,15.26,.35,27.35,12.99,27,28.25-.34,15.25-12.99,27.34-28.25,27Z"/>
    <path class="cls-4" d="M224.78,4.7c-2.92,79.61-5.84,159.23-8.76,238.84-67.8,.28-135.6,.57-203.4,.85-1.72,.01-3.43,.01-5.15,.02C6.44,164.35,5.41,84.31,4.38,4.25c73.47,.15,146.93,.31,220.4,.45Z"/>
    <path class="cls-1" d="M515.62,12.5c-1.72,81.08-3.43,162.16-5.15,243.25-98.29-.2-196.59-.41-294.88-.61-67.66-.14-135.31-.28-202.97-.42v-10.33c67.8-.28,135.6-.57,203.4-.85,7.48-.04,14.96-.07,22.44-.1,11.43-.05,22.85-.1,34.28-.14,10.66-.05,21.32-.09,31.98-.14,13.04-.05,26.07-.11,39.11-.16,9.48-.04,18.96-.08,28.44-.12,13.8-.06,27.61-.12,41.41-.18,8.68-.03,17.35-.07,26.03-.1,14.64-.07,29.28-.13,43.92-.19,4.82-.02,9.65-.04,14.47-.06,1.99-76.38,3.99-152.73,5.98-229.11,3.84-.25,7.7-.5,11.54-.74Z"/>
  </g>
  <g>
    <path class="cls-4" d="M356.33,24.75c-.34,15.26-12.99,27.34-28.24,27-15.26-.35-27.35-12.99-27-28.25,.16-7.25,3.11-13.79,7.82-18.62,13.23,.03,26.47,.05,39.7,.08,4.93,5.12,7.9,12.13,7.72,19.79Z"/>
    <path class="cls-3" d="M354.85,90.3c-.35,15.25-12.99,27.34-28.25,26.99-15.25-.34-27.34-12.99-26.99-28.25,.34-15.25,12.99-27.34,28.24-26.99,15.26,.34,27.35,12.99,27,28.25Z"/>
    <path class="cls-5" d="M353.3,158.65c-.34,15.25-12.99,27.34-28.25,27-15.25-.35-27.34-13-26.99-28.25,.34-15.26,12.99-27.34,28.25-27,15.25,.35,27.34,12.99,26.99,28.25Z"/>
    <path class="cls-3" d="M351.82,224.19c-.17,7.35-3.19,13.97-7.99,18.81-13.04,.05-26.07,.11-39.11,.16-5.18-5.15-8.33-12.34-8.15-20.22,.35-15.25,13-27.34,28.25-26.99,15.26,.34,27.34,12.99,27,28.24Z"/>
    <path class="cls-4" d="M425.04,25.68c-.35,15.26-12.99,27.34-28.25,27-15.25-.35-27.34-12.99-27-28.25,.18-7.66,3.46-14.52,8.61-19.41,12.7,.03,25.41,.05,38.11,.08,5.41,5.16,8.71,12.51,8.53,20.58Z"/>
    <path class="cls-5" d="M423.55,91.23c-.34,15.25-12.99,27.34-28.24,26.99-15.26-.34-27.35-12.99-27-28.24,.34-15.26,12.99-27.35,28.25-27,15.25,.34,27.34,12.99,26.99,28.25Z"/>
    <path class="cls-3" d="M422.01,159.58c-.35,15.26-13,27.34-28.25,27-15.26-.35-27.34-13-27-28.25,.35-15.26,12.99-27.34,28.25-27,15.25,.35,27.34,12.99,27,28.25Z"/>
    <path class="cls-3" d="M420.52,225.12c-.15,6.75-2.71,12.87-6.84,17.58-13.8,.06-27.61,.12-41.41,.18-4.49-5.04-7.16-11.73-6.99-19.01,.34-15.25,12.99-27.34,28.25-26.99,15.25,.34,27.34,12.99,26.99,28.24Z"/>
    <path class="cls-4" d="M493.74,26.93c-.35,15.25-13,27.34-28.25,26.99-15.26-.34-27.34-12.99-27-28.25,.19-8.25,3.98-15.58,9.84-20.51,10.9,.03,21.81,.05,32.71,.07,.98,0,1.97,0,2.95,.01,6.13,5.2,9.94,13.02,9.75,21.69Z"/>
    <path class="cls-3" d="M492.25,92.47c-.34,15.25-12.99,27.34-28.25,27-15.25-.35-27.34-13-26.99-28.25,.34-15.26,12.99-27.34,28.24-27,15.26,.35,27.35,12.99,27,28.25Z"/>
    <path class="cls-3" d="M490.7,160.82c-.34,15.26-12.99,27.35-28.24,27-15.26-.35-27.35-12.99-27-28.25,.34-15.25,12.99-27.34,28.25-26.99,15.25,.34,27.34,12.99,26.99,28.24Z"/>
    <path class="cls-5" d="M489.22,226.37c-.14,6.03-2.2,11.57-5.59,16.04-14.64,.06-29.28,.12-43.92,.19-3.73-4.83-5.89-10.91-5.74-17.48,.35-15.26,13-27.35,28.25-27,15.26,.34,27.34,12.99,27,28.25Z"/>
    <path class="cls-5" d="M287.65,22.88c-.34,15.26-12.99,27.35-28.25,27-15.25-.34-27.34-12.99-26.99-28.25,.15-6.42,2.47-12.29,6.27-16.9,14.26,.03,28.51,.06,42.77,.09,4.02,4.92,6.36,11.23,6.2,18.06Z"/>
    <path class="cls-5" d="M286.17,88.43c-.35,15.25-13,27.34-28.25,26.99-15.26-.34-27.34-12.99-27-28.24,.35-15.26,12.99-27.34,28.25-27,15.26,.35,27.34,12.99,27,28.25Z"/>
    <path class="cls-5" d="M284.62,156.78c-.35,15.26-12.99,27.34-28.25,27-15.25-.35-27.34-12.99-27-28.25,.35-15.25,13-27.34,28.25-27,15.26,.35,27.34,13,27,28.25Z"/>
    <path class="cls-5" d="M283.14,222.33c-.2,8.51-4.23,16.04-10.4,20.97-11.43,.04-22.85,.09-34.28,.14-6.61-5.19-10.77-13.32-10.57-22.37,.35-15.25,12.99-27.34,28.25-26.99,15.25,.34,27.34,12.99,27,28.25Z"/>
  </g>
</svg>