<?xml version="1.0" encoding="UTF-8"?>
<svg id="Layer_2" data-name="Layer 2" xmlns="http://www.w3.org/2000/svg" viewBox="0 0 520 260">
  <defs>
    <style>
      .cls-1, .cls-2 {
        stroke: #000;
        stroke-miterlimit: 10;
      }

      .cls-3 {
        fill: #ff1d25;
      }

      .cls-2 {
        fill: #fcf6e1;
      }
    </style>
  </defs>
  <g>
    <path class="cls-2" d="M515.12,248.18c-3.15-.03-6.32-.05-9.47-.08-160.84-1.32-321.67-2.66-482.51-3.98-3.25-76.1-6.51-152.21-9.76-228.31-.13-3.02-.25-6.04-.39-9.06,167.04,.68,334.07,1.35,501.12,2.03,.33,79.8,.68,159.6,1.01,239.4Z"/>
    <path class="cls-1" d="M505.99,253.25c-164-.33-327.99-.68-491.99-1.01L4.88,14.87c2.83,.31,5.67,.63,8.5,.94,3.25,76.1,6.51,152.21,9.76,228.31,160.84,1.32,321.67,2.66,482.51,3.98,.12,1.71,.23,3.44,.34,5.15Z"/>
  </g>
  <g>
    <path d="M496.76,177.4c-4.96-8.33-11.6-15.6-19.21-21.5-8.65-6.88-18.61-12.03-28.89-16.5-.34,0-.68-.33-1.37-.64-.34,0-.66,.36-1.33,.71-10.03,4.68-19.69,10.69-27.96,18.03-7.28,6.3-13.85,13.92-18.02,22.5-2.88,6.18-5.08,12.67-4.22,19.09,.84,6.08,3.7,11.41,7.55,16.06,5.61,6.97,14.22,12.14,22.99,11.23,5.41-.49,10.41-3.32,14.37-7.16,2.3-2.43,4.27-5.2,5.88-8.28-1.17,7.28-2.12,16.83-4.75,22.41-.98,2.08,.56,4.45,2.86,4.39l5.32-.14,5.31-.14c2.3-.06,3.7-2.52,2.61-4.54-2.93-5.43-4.39-14.91-5.94-22.12,1.77,2.99,3.88,5.65,6.31,7.95,3.83,3.63,8.98,6.19,14.74,6.38,8.82,.44,17.13-5.54,22.35-12.46,3.6-4.83,6.15-10.33,6.67-16.44,.46-6.44-2.08-12.82-5.3-18.83h0Z"/>
    <path d="M359.58,63.59c-4.06,.11-8.09,1.24-11.77,3.03,7.91-5.57,12.65-15.42,10.9-25.98-1.98-11.94-12.09-21.14-24.16-21.98-15.76-1.08-28.7,11.65-28.29,27.06,.25,9.14,5.2,17.14,12.44,21.68-3.33-1.55-7.27-2.45-11.52-2.4-14.21,.19-25.94,11.89-26.09,26.1-.16,15.03,12.23,27.11,27.12,26.71,9.81-.26,18.12-5.91,22.32-13.81-.84,6.74-1.89,14.35-4.07,19.45-1.15,2.71,.93,5.69,3.87,5.61l4.26-.12,4.29-.12c2.92-.08,4.83-3.12,3.59-5.76-2.36-5.01-3.78-12.62-5.17-19.25,4.61,7.67,13.22,12.85,23.03,12.58,14.56-.39,26.08-12.56,25.69-27.11,.28-14.57-11.88-26.1-26.43-25.71h0Z"/>
    <path class="cls-3" d="M391.78,177.54c-.84-6.08-4.05-11.74-7.9-16.72-5.95-7.29-14.56-12.48-23.69-11.89-5.41,.49-10.75,3.33-14.69,7.51-3.95,4.17-6.53,8.99-8.77,13.78-2.5-5.01-5.69-9.66-9.84-13.28-4.17-3.95-9.32-6.52-15.08-6.71-9.15-.43-17.46,5.55-23.01,13.15-3.6,4.83-6.49,10.68-6.99,17.12-.49,6.79,2.06,13.49,5.26,19.5,4.97,8.68,11.95,16.27,20.24,22.14,9,6.87,19.31,12.68,29.92,16.8,.34,0,.68,.33,1.37,.64,.34,0,.66-.36,1.33-.71,10.37-5.02,20.37-11.05,28.97-18.39,7.61-6.64,14.18-14.27,19.02-23.2,2.53-6.17,4.72-13,3.86-19.75h0Z"/>
    <path d="M440.34,119.66l-44.49-42.14c-4.17-3.95-4.34-10.39-.38-14.21l41.5-43.8c3.95-4.17,10.39-4.34,14.21-.38l44.49,42.15c4.17,3.95,4.34,10.39,.38,14.21l-41.5,43.79c-3.61,3.83-10.38,4.01-14.21,.38Z"/>
  </g>
</svg>