<?xml version="1.0" encoding="UTF-8"?>
<svg id="Layer_2" data-name="Layer 2" xmlns="http://www.w3.org/2000/svg" viewBox="0 0 520 260">
  <defs>
    <style>
      .cls-1, .cls-2, .cls-3 {
        stroke: #000;
        stroke-miterlimit: 10;
      }

      .cls-4 {
        fill: #e64500;
      }

      .cls-5 {
        fill: #fff;
      }

      .cls-6 {
        fill: #fc611f;
      }

      .cls-7 {
        fill: #ff763b;
      }

      .cls-2 {
        fill: #fcf6e1;
      }

      .cls-3 {
        fill: #3fa9f5;
      }
    </style>
  </defs>
  <g>
    <path class="cls-2" d="M504.28,5.28c-.07,2.65-.13,5.31-.2,7.96-1.99,76.38-3.99,152.73-5.98,229.11-60.1,.25-120.2,.5-180.29,.76-31.97,.13-63.93,.26-95.9,.4h-.04c-29.4,.12-58.79,.25-88.19,.37-35.52,.15-71.05,.3-106.57,.45-4.83,.02-9.66,.04-14.49,.06-1.72,.01-3.43,.01-5.15,.02-.08-6.42-.17-12.84-.25-19.26-.85-66.43-1.71-132.84-2.56-199.27-.09-7.21-.19-14.42-.28-21.63,7.32,.02,14.63,.03,21.95,.05h.01c65.28,.13,130.56,.27,195.84,.4,18.82,.04,37.64,.08,56.46,.12,67.47,.14,134.93,.28,202.4,.41,7.74,.02,15.49,.03,23.24,.05Z"/>
    <path class="cls-1" d="M515.62,12.5c-1.62,76.49-3.24,152.99-4.86,229.49-.1,4.59-.19,9.17-.29,13.76-7.55-.02-15.1-.03-22.65-.05-49.76-.1-99.51-.2-149.27-.31-44.27-.09-88.53-.18-132.8-.27h-.07c-20.66-.04-41.33-.09-61.99-.13-33.99-.07-67.97-.14-101.96-.21-9.7-.02-19.41-.04-29.11-.06v-10.33c4.83-.02,9.66-.04,14.49-.06,35.52-.15,71.05-.3,106.57-.45,29.4-.12,58.79-.25,88.19-.37h.04c31.97-.14,63.93-.27,95.9-.4,60.09-.26,120.19-.51,180.29-.76,1.99-76.38,3.99-152.73,5.98-229.11,3.84-.25,7.7-.5,11.54-.74Z"/>
  </g>
  <path class="cls-3" d="M504.28,5.28c-.07,2.65-.13,5.31-.2,7.96-1.99,76.38-3.99,152.73-5.98,229.11-60.1,.25-120.2,.5-180.29,.76-43.7-30.34-72.31-80.89-72.31-138.11,0-37.54,12.31-72.21,33.14-100.18,67.47,.14,134.93,.28,202.4,.41,7.74,.02,15.49,.03,23.24,.05Z"/>
  <g>
    <polygon class="cls-7" points="415.41 45.33 355.46 75.31 295.5 45.33 355.46 15.36 415.41 45.33"/>
    <polygon class="cls-6" points="355.46 75.31 355.46 151.66 355.38 151.63 295.5 122.3 295.5 45.33 355.46 75.31"/>
    <polygon class="cls-4" points="355.46 151.66 415.41 122.29 415.41 45.33 355.46 75.31 355.46 151.66"/>
    <path class="cls-5" d="M331.09,98.7c0,4.2-2.51,6.68-5.61,5.53s-5.61-5.48-5.61-9.68,2.51-6.68,5.61-5.53c3.1,1.15,5.61,5.48,5.61,9.68Z"/>
    <path class="cls-5" d="M381.57,99.55c0,4.2,2.51,6.68,5.61,5.53s5.61-5.48,5.61-9.68-2.51-6.68-5.61-5.53c-3.1,1.15-5.61,5.48-5.61,9.68Z"/>
    <path class="cls-5" d="M363.32,88.97c0,4.2,2.51,6.68,5.61,5.53s5.61-5.48,5.61-9.68-2.51-6.68-5.61-5.53-5.61,5.48-5.61,9.68Z"/>
    <path class="cls-5" d="M363.32,130.44c0,4.2,2.51,6.68,5.61,5.53s5.61-5.48,5.61-9.68-2.51-6.68-5.61-5.53-5.61,5.48-5.61,9.68Z"/>
    <path class="cls-5" d="M397.57,72.08c0,4.2,2.51,6.68,5.61,5.53s5.61-5.48,5.61-9.68-2.51-6.68-5.61-5.53c-3.1,1.14-5.61,5.47-5.61,9.68Z"/>
    <path class="cls-5" d="M397.57,113.55c0,4.2,2.51,6.68,5.61,5.53,3.1-1.14,5.61-5.48,5.61-9.68s-2.51-6.68-5.61-5.53-5.61,5.48-5.61,9.68Z"/>
    <path class="cls-5" d="M312.19,70.58c0,4.2-2.51,6.68-5.61,5.53s-5.61-5.48-5.61-9.68,2.51-6.68,5.61-5.53,5.61,5.48,5.61,9.68Z"/>
    <path class="cls-5" d="M347.46,129.32c0,4.2-2.51,6.68-5.61,5.53s-5.61-5.48-5.61-9.68,2.51-6.68,5.61-5.53c3.1,1.15,5.61,5.48,5.61,9.68Z"/>
    <ellipse class="cls-5" cx="355.46" cy="45.33" rx="7.87" ry="5.32"/>
    <polygon class="cls-7" points="493.83 179.73 430.23 158.53 409.03 94.93 472.63 116.13 493.83 179.73"/>
    <polygon class="cls-6" points="430.24 158.52 376.24 212.52 370.91 196.95 355.38 151.63 354.61 149.36 367.74 136.23 373.91 130.07 373.92 130.06 409.04 94.94 415.41 114.07 430.24 158.52"/>
    <polygon class="cls-4" points="376.24 212.52 439.4 234.15 493.83 179.73 430.23 158.53 376.24 212.52"/>
    <path class="cls-5" d="M426.13,173.75c-2.97,2.97-2.94,6.5,.06,7.88,3,1.38,7.84,.1,10.81-2.87,2.97-2.97,2.94-6.5-.06-7.88s-7.84-.1-10.81,2.87Z"/>
    <path class="cls-5" d="M396.81,203.07c-2.97,2.97-2.94,6.5,.06,7.88,3,1.38,7.84,.1,10.81-2.87,2.97-2.97,2.94-6.5-.06-7.88-3-1.39-7.84-.1-10.81,2.87Z"/>
    <path class="cls-5" d="M445.06,180.09c-2.97,2.97-2.94,6.5,.06,7.88,3,1.39,7.84,.1,10.81-2.87s2.94-6.5-.06-7.88c-3-1.39-7.84-.1-10.81,2.87Z"/>
    <path class="cls-5" d="M415.74,209.42c-2.97,2.97-2.94,6.5,.06,7.88,3,1.38,7.84,.1,10.81-2.87,2.97-2.97,2.94-6.5-.06-7.88s-7.84-.1-10.81,2.87Z"/>
    <path class="cls-5" d="M462.3,186.03c-2.97,2.97-2.94,6.5,.06,7.88,3,1.38,7.84,.1,10.81-2.87s2.94-6.5-.06-7.88c-3-1.38-7.84-.1-10.81,2.87Z"/>
    <path class="cls-5" d="M432.97,215.35c-2.97,2.97-2.94,6.5,.06,7.88,3,1.38,7.84,.1,10.81-2.87,2.97-2.97,2.94-6.5-.06-7.88-3-1.39-7.84-.1-10.81,2.87Z"/>
    <path class="cls-5" d="M402.98,124.59c-2.97,2.97-6.5,2.94-7.88-.06-1.38-3-.1-7.84,2.87-10.81,2.97-2.97,6.5-2.94,7.88,.06,1.39,3,.1,7.84-2.87,10.81Z"/>
    <path class="cls-5" d="M386.39,191.06c-2.97,2.97-6.5,2.94-7.88-.06-1.38-3-.1-7.84,2.87-10.81s6.5-2.94,7.88,.06,.1,7.84-2.87,10.81Z"/>
    <ellipse class="cls-5" cx="451.42" cy="137.31" rx="5.32" ry="7.87" transform="translate(35.13 359.42) rotate(-45)"/>
  </g>
</svg>