<?xml version="1.0" encoding="UTF-8"?>
<svg id="Layer_2" data-name="Layer 2" xmlns="http://www.w3.org/2000/svg" viewBox="0 0 520 260">
  <defs>
    <style>
      .cls-1, .cls-2, .cls-3, .cls-4, .cls-5, .cls-6 {
        stroke: #000;
        stroke-miterlimit: 10;
      }

      .cls-2 {
        fill: #fcd3ae;
      }

      .cls-2, .cls-3, .cls-4, .cls-6 {
        stroke-width: 2px;
      }

      .cls-3 {
        fill: #8c6239;
      }

      .cls-4 {
        fill: #754c24;
      }

      .cls-5 {
        fill: #fcf6e1;
      }
    </style>
  </defs>
  <g>
    <path class="cls-5" d="M515.12,248.18c-3.15-.03-6.32-.05-9.47-.08-160.84-1.32-321.67-2.66-482.51-3.98-3.25-76.1-6.51-152.21-9.76-228.31-.13-3.02-.25-6.04-.39-9.06,167.04,.68,334.07,1.35,501.12,2.03,.33,79.8,.68,159.6,1.01,239.4Z"/>
    <path class="cls-1" d="M505.99,253.25c-164-.33-327.99-.68-491.99-1.01L4.88,14.87c2.83,.31,5.67,.63,8.5,.94,3.25,76.1,6.51,152.21,9.76,228.31,160.84,1.32,321.67,2.66,482.51,3.98,.12,1.71,.23,3.44,.34,5.15Z"/>
  </g>
  <g>
    <path class="cls-4" d="M451.68,188.29v4.48c-.17,.98-.45,1.91-.85,2.79-2.99,6.88-11.77,10.6-15.98,12.37-8.2,3.46-15.34,3.51-20.44,3.5-9.38-.02-21.04-1.17-31.26-9.33-1.84-1.48-6.11-6.54-6.11-12.4,0-.52,.04-1.06,.1-1.6,1.17-8.43,11.83-14.4,21.79-17.07,3.86-1.04,7.6-1.59,10.67-1.59,16.42,0,31.58,2.33,39.66,12.83,.69,.9,1.95,3.14,2.41,6.02Z"/>
    <path class="cls-4" d="M451.68,192.76v22.16c-4,3.69-10.58,8.67-19.83,11.66-16.07,5.2-30.09,1.12-36.15-1.17-7.92-3-13.72-7.25-17.42-10.54h-.01c-.44-.4-.84-.76-1.22-1.12v-24.06c0,5.85,4.27,10.92,6.11,12.4,10.22,8.16,21.88,9.31,31.26,9.33,5.11,.01,12.25-.04,20.44-3.5,4.21-1.77,12.99-5.49,15.98-12.37,.4-.87,.68-1.81,.85-2.79Z"/>
    <path class="cls-6" d="M451.68,214.92v5.25c-4,3.69-10.58,8.67-19.83,11.66-16.07,5.2-30.09,1.12-36.15-1.17-7.92-3-13.72-7.25-17.42-10.54h-.01c-.44-.4-.84-.76-1.22-1.12v-5.25c.38,.36,.78,.72,1.22,1.11h.01c3.71,3.3,9.51,7.56,17.42,10.55,6.06,2.29,20.08,6.37,36.15,1.17,9.25-3,15.83-7.98,19.83-11.66Z"/>
  </g>
  <g>
    <path class="cls-2" d="M496.4,185.25l-2.29,3.85c-.65,.75-1.37,1.41-2.15,1.96-6.08,4.39-15.53,3.11-20.06,2.48-8.82-1.21-14.98-4.81-19.37-7.43-8.05-4.81-17.5-11.74-22.11-23.98-.83-2.21-1.91-8.75,1.07-13.78,.27-.45,.57-.89,.91-1.32,5.31-6.66,17.52-6.35,27.45-3.56,3.85,1.08,7.35,2.52,9.99,4.08,14.12,8.38,25.97,18.13,27.56,31.28,.13,1.12,.07,3.69-1,6.41Z"/>
    <path class="cls-2" d="M494.12,189.1l-11.31,19.05c-5.32,1.13-13.52,2.05-23-.09-16.47-3.73-26.44-14.4-30.49-19.46-5.28-6.62-8.09-13.24-9.6-17.96v-.02c-.19-.56-.34-1.07-.49-1.58l12.28-20.69c-2.99,5.03-1.9,11.57-1.07,13.78,4.62,12.24,14.06,19.17,22.11,23.98,4.39,2.62,10.55,6.22,19.37,7.43,4.53,.63,13.98,1.91,20.06-2.48,.79-.55,1.5-1.21,2.15-1.96Z"/>
    <path class="cls-6" d="M482.8,208.15l-2.68,4.51c-5.32,1.13-13.52,2.05-23-.09-16.47-3.73-26.44-14.4-30.49-19.46-5.28-6.62-8.09-13.24-9.6-17.96v-.02c-.19-.56-.34-1.07-.49-1.58l2.68-4.51c.15,.51,.3,1.02,.49,1.58v.02c1.51,4.72,4.33,11.34,9.6,17.96,4.05,5.06,14.02,15.73,30.49,19.46,9.48,2.14,17.68,1.22,23,.09Z"/>
  </g>
  <g>
    <path class="cls-4" d="M406.71,81.26l1.54,4.2c.17,.98,.23,1.95,.16,2.91-.43,7.49-7.39,14.01-10.73,17.12-6.5,6.08-13.19,8.58-17.99,10.33-8.81,3.21-20.15,6.16-32.56,2.01-2.24-.76-7.99-4.04-10.01-9.53-.18-.49-.33-1.01-.45-1.54-1.81-8.32,6.14-17.6,14.57-23.54,3.27-2.3,6.59-4.11,9.47-5.17,15.42-5.66,30.45-8.69,41.66-1.63,.96,.61,2.91,2.27,4.34,4.82Z"/>
    <path class="cls-4" d="M408.25,85.46l7.64,20.8c-2.49,4.84-6.94,11.78-14.59,17.78-13.29,10.42-27.86,11.42-34.34,11.36-8.47-.08-15.37-2.08-19.99-3.89h-.01c-.55-.22-1.05-.42-1.53-.62l-8.29-22.59c2.02,5.5,7.77,8.78,10.01,9.53,12.4,4.14,23.75,1.2,32.56-2.01,4.8-1.75,11.48-4.25,17.99-10.33,3.34-3.12,10.3-9.63,10.73-17.12,.07-.96,.01-1.93-.16-2.91Z"/>
    <path class="cls-6" d="M415.89,106.26l1.81,4.93c-2.49,4.84-6.94,11.78-14.59,17.78-13.29,10.42-27.86,11.42-34.34,11.36-8.47-.08-15.37-2.08-19.99-3.89h-.01c-.55-.22-1.05-.42-1.53-.62l-1.81-4.93c.49,.21,.98,.41,1.53,.62h.01c4.61,1.82,11.52,3.81,19.99,3.9,6.48,.06,21.05-.94,34.34-11.36,7.65-6,12.11-12.94,14.59-17.78Z"/>
  </g>
  <g>
    <path class="cls-2" d="M426.94,28.64l-1.54,4.2c-.17,.98-.23,1.95-.16,2.91,.43,7.49,7.39,14.01,10.73,17.12,6.5,6.08,13.19,8.58,17.99,10.33,8.81,3.21,20.15,6.16,32.56,2.01,2.24-.76,7.99-4.04,10.01-9.53,.18-.49,.33-1.01,.45-1.54,1.81-8.32-6.14-17.6-14.57-23.54-3.27-2.3-6.59-4.11-9.47-5.17-15.42-5.66-30.45-8.69-41.66-1.63-.96,.61-2.91,2.27-4.34,4.82Z"/>
    <path class="cls-2" d="M425.4,32.84l-7.64,20.8c2.49,4.84,6.94,11.78,14.59,17.78,13.29,10.42,27.86,11.42,34.34,11.36,8.47-.08,15.37-2.08,19.99-3.89h.01c.55-.22,1.05-.42,1.53-.62l8.29-22.59c-2.02,5.5-7.77,8.78-10.01,9.53-12.4,4.14-23.75,1.2-32.56-2.01-4.8-1.75-11.48-4.25-17.99-10.33-3.34-3.12-10.3-9.63-10.73-17.12-.07-.96-.01-1.93,.16-2.91Z"/>
    <path class="cls-6" d="M417.76,53.65l-1.81,4.93c2.49,4.84,6.94,11.78,14.59,17.78,13.29,10.42,27.86,11.42,34.34,11.36,8.47-.08,15.37-2.08,19.99-3.89h.01c.55-.22,1.05-.42,1.53-.62l1.81-4.93c-.49,.21-.98,.41-1.53,.62h-.01c-4.61,1.82-11.52,3.81-19.99,3.9-6.48,.06-21.05-.94-34.34-11.36-7.65-6-12.11-12.94-14.59-17.78Z"/>
  </g>
  <g>
    <path class="cls-3" d="M116.52,36.68l1.54,4.2c.17,.98,.23,1.95,.16,2.91-.43,7.49-7.39,14.01-10.73,17.12-6.5,6.08-13.19,8.58-17.99,10.33-8.81,3.21-20.15,6.16-32.56,2.01-2.24-.76-7.99-4.04-10.01-9.53-.18-.49-.33-1.01-.45-1.54-1.81-8.32,6.14-17.6,14.57-23.54,3.27-2.3,6.59-4.11,9.47-5.17,15.42-5.66,30.45-8.69,41.66-1.63,.96,.61,2.91,2.27,4.34,4.82Z"/>
    <path class="cls-3" d="M118.06,40.89l7.64,20.8c-2.49,4.84-6.94,11.78-14.59,17.78-13.29,10.42-27.86,11.42-34.34,11.36-8.47-.08-15.37-2.08-19.99-3.89h-.01c-.55-.22-1.05-.42-1.53-.62l-8.29-22.59c2.02,5.5,7.77,8.78,10.01,9.53,12.4,4.14,23.75,1.2,32.56-2.01,4.8-1.75,11.48-4.25,17.99-10.33,3.34-3.12,10.3-9.63,10.73-17.12,.07-.96,.01-1.93-.16-2.91Z"/>
    <path class="cls-6" d="M125.69,61.69l1.81,4.93c-2.49,4.84-6.94,11.78-14.59,17.78-13.29,10.42-27.86,11.42-34.34,11.36-8.47-.08-15.37-2.08-19.99-3.89h-.01c-.55-.22-1.05-.42-1.53-.62l-1.81-4.93c.49,.21,.98,.41,1.53,.62h.01c4.61,1.82,11.52,3.81,19.99,3.9,6.48,.06,21.05-.94,34.34-11.36,7.65-6,12.11-12.94,14.59-17.78Z"/>
  </g>
</svg>