<?xml version="1.0" encoding="UTF-8"?>
<svg id="Layer_2" data-name="Layer 2" xmlns="http://www.w3.org/2000/svg" viewBox="0 0 520 260">
  <defs>
    <style>
      .cls-1, .cls-2 {
        stroke: #000;
        stroke-miterlimit: 10;
      }

      .cls-2 {
        fill: #fcf6e1;
      }
    </style>
  </defs>
  <path class="cls-2" d="M504.28,5.28c-.07,2.65-.13,5.31-.21,7.96-1.99,76.38-3.99,152.73-5.98,229.11-161.83,.68-323.65,1.36-485.48,2.04-1.72,.01-3.43,.01-5.15,.02C6.44,164.35,5.41,84.31,4.38,4.25c158.89,.33,317.78,.66,476.66,.98,7.74,.02,15.49,.03,23.24,.05Z"/>
  <path class="cls-1" d="M515.62,12.5c-1.72,81.09-3.43,162.17-5.15,243.25-165.95-.34-331.9-.69-497.85-1.03v-10.33c161.83-.68,323.65-1.36,485.48-2.04,1.99-76.38,3.99-152.73,5.98-229.11,3.84-.25,7.7-.49,11.54-.74Z"/>
</svg>