<?xml version="1.0" encoding="UTF-8"?>
<svg id="Layer_2" data-name="Layer 2" xmlns="http://www.w3.org/2000/svg" viewBox="0 0 520 260">
  <defs>
    <style>
      .cls-1, .cls-2, .cls-3, .cls-4 {
        stroke: #000;
        stroke-miterlimit: 10;
      }

      .cls-2 {
        fill: #fcf6e1;
      }

      .cls-3 {
        fill: #ccc;
      }

      .cls-4 {
        fill: none;
      }
    </style>
  </defs>
  <g>
    <path class="cls-2" d="M515.12,248.18c-3.15-.03-6.32-.05-9.47-.08-3.78-.03-7.55-.06-11.33-.09-6.98-.06-13.96-.12-20.94-.18-6.98-.05-13.96-.11-20.93-.17-5.49-.04-10.98-.09-16.46-.13-1.49-.02-2.98-.03-4.47-.04-6.98-.06-13.96-.11-20.93-.17-6.98-.06-13.96-.12-20.94-.18-6.98-.05-13.96-.11-20.93-.17-6.98-.06-13.96-.11-20.93-.17-6.98-.06-13.95-.12-20.93-.17-6.98-.06-13.95-.12-20.93-.18-6.98-.05-13.96-.11-20.94-.17-6.98-.06-13.95-.12-20.93-.17-80.3-.67-160.61-1.33-240.92-1.99-3.25-76.1-6.52-152.21-9.76-228.31l-.39-9.06c91.86,.37,183.73,.74,275.59,1.12,6.98,.02,13.95,.05,20.93,.08,13.12,.05,26.23,.11,39.35,.16h.01c.85,0,1.69,.01,2.54,.01,6.98,.03,13.95,.06,20.93,.09,6.98,.02,13.97,.05,20.95,.08,6.98,.03,13.95,.06,20.93,.09,6.98,.02,13.97,.05,20.95,.08l20.94,.09c6.98,.02,13.95,.05,20.93,.08,6.98,.03,13.97,.06,20.95,.08,5.37,.03,10.75,.05,16.12,.07,.02,5.45,.05,10.89,.07,16.34,.03,6.99,.06,13.98,.09,20.97,.01,2.58,.02,5.17,.03,7.75h0c.02,4.41,.04,8.79,.06,13.19,.02,6.99,.05,13.98,.09,20.97,.02,6.98,.05,13.96,.09,20.95,.02,6.98,.05,13.97,.09,20.96,.02,6.99,.05,13.98,.08,20.97,.03,6.98,.06,13.96,.09,20.95,.03,6.99,.06,13.98,.09,20.97,.03,6.98,.06,13.96,.09,20.95,.03,6.98,.06,13.97,.08,20.96,.02,4.49,.04,8.98,.06,13.47Z"/>
    <path class="cls-1" d="M505.99,253.25c-4.07-.01-8.13-.02-12.2-.03h-2.47c-6.16,0-12.33-.02-18.49-.04-6.98-.01-13.97-.03-20.95-.04s-13.96-.03-20.94-.05c-6.98-.01-13.96-.02-20.94-.04-6.99-.01-13.97-.02-20.95-.04-6.98-.01-13.96-.03-20.94-.05-6.99-.01-13.97-.02-20.95-.04-6.98-.01-13.96-.02-20.94-.04-6.98-.01-13.97-.03-20.95-.05-6.98-.01-13.97-.02-20.95-.04-6.98,0-13.96-.02-20.94-.04-83.12-.17-166.24-.34-249.37-.51L4.88,14.87c2.83,.31,5.67,.62,8.5,.94,3.24,76.1,6.51,152.21,9.76,228.31,80.31,.66,160.62,1.32,240.92,1.99,6.98,.05,13.95,.11,20.93,.17,6.98,.06,13.96,.12,20.94,.17,6.98,.06,13.95,.12,20.93,.18,6.98,.05,13.95,.11,20.93,.17,6.97,.06,13.95,.11,20.93,.17,6.97,.06,13.95,.12,20.93,.17,6.98,.06,13.96,.12,20.94,.18,6.97,.06,13.95,.11,20.93,.17,1.49,.01,2.98,.02,4.47,.04,5.48,.04,10.97,.09,16.46,.13,6.97,.06,13.95,.12,20.93,.17,6.98,.06,13.96,.12,20.94,.18,3.78,.03,7.55,.06,11.33,.09,.12,1.71,.23,3.44,.34,5.15Z"/>
  </g>
  <g>
    <g>
      <path class="cls-4" d="M294.98,149.21c-.71,6.91-1.43,13.83-2.14,20.74-.71,6.9-1.42,13.82-2.13,20.73s-1.42,13.82-2.13,20.72c-.71,6.91-1.43,13.83-2.14,20.74-.48,4.71-.97,9.43-1.45,14.14"/>
      <path class="cls-4" d="M307.78,24.84l-2.13,20.72c-.71,6.91-1.42,13.83-2.13,20.73"/>
      <path class="cls-3" d="M319.98,109.89l-2.14,20.73,20.74,2.14,20.72,2.13,2.14-20.74-41.46-4.26Zm13.5,7.72c-.65,.64-1.16,1.18-1.52,1.6l-.94,1.12c-.36,.42-.7,.77-1.01,1.05l1.22,2.24c.49,.89,.92,1.62,1.31,2.19,.1,.16,.15,.31,.13,.47-.02,.18-.1,.33-.25,.46-.14,.12-.31,.17-.49,.15-.17-.02-.31-.1-.44-.25-.29-.34-.58-.79-.88-1.34l-.73-1.43-.88-1.58-2.51,2.37-1.33,1.22c-.16,.12-.33,.18-.5,.16-.18-.02-.33-.1-.45-.25-.12-.15-.17-.31-.15-.49,.01-.16,.09-.3,.21-.43l1.31-1.19,2.74-2.58c-.42-.69-.86-1.38-1.33-2.08l-.65-1.1c-.26-.44-.51-.79-.75-1.03-.17-.17-.24-.36-.22-.56,.02-.17,.1-.33,.24-.45,.14-.13,.3-.18,.49-.16,.37,.04,.8,.48,1.29,1.32,.15,.29,.38,.69,.7,1.21,.43,.65,.84,1.29,1.23,1.93l1.7-1.92c1.1-1.24,1.8-1.85,2.08-1.82,.18,.02,.33,.1,.45,.25,.12,.15,.17,.31,.16,.49-.02,.16-.09,.3-.23,.43Zm18.82,1.98c-.65,.64-1.16,1.18-1.52,1.6l-.94,1.12c-.36,.42-.7,.77-1.01,1.05l1.22,2.24c.48,.89,.92,1.62,1.31,2.19,.1,.16,.14,.31,.13,.47-.02,.18-.1,.33-.25,.46-.15,.12-.31,.17-.49,.15-.17-.02-.32-.1-.44-.25-.29-.34-.59-.79-.88-1.34l-.74-1.43-.87-1.58-2.51,2.37-1.34,1.22c-.15,.12-.32,.18-.49,.16-.18-.02-.33-.1-.45-.25-.12-.15-.17-.31-.15-.49,.01-.16,.08-.3,.21-.43l1.31-1.19,2.73-2.58c-.41-.69-.85-1.38-1.32-2.08l-.65-1.1c-.27-.44-.52-.79-.75-1.03-.17-.17-.24-.36-.22-.56,.01-.17,.09-.33,.23-.45,.14-.13,.31-.18,.49-.16,.37,.03,.81,.48,1.3,1.32,.15,.29,.38,.69,.7,1.21,.43,.65,.84,1.29,1.23,1.93l1.7-1.92c1.1-1.24,1.79-1.85,2.08-1.82,.18,.02,.33,.1,.45,.25,.12,.15,.17,.31,.15,.49-.01,.16-.09,.3-.22,.43Z"/>
      <path class="cls-2" d="M330.01,121.38l1.22,2.24c.49,.89,.92,1.62,1.31,2.19,.1,.16,.15,.31,.13,.47-.02,.18-.1,.33-.25,.46-.14,.12-.31,.17-.49,.15-.17-.02-.31-.1-.44-.25-.29-.34-.58-.79-.88-1.34l-.73-1.43-.88-1.58-2.51,2.37-1.33,1.22c-.16,.12-.33,.18-.5,.16-.18-.02-.33-.1-.45-.25-.12-.15-.17-.31-.15-.49,.01-.16,.09-.3,.21-.43l1.31-1.19,2.74-2.58c-.42-.69-.86-1.38-1.33-2.08l-.65-1.1c-.26-.44-.51-.79-.75-1.03-.17-.17-.24-.36-.22-.56,.02-.17,.1-.33,.24-.45,.14-.13,.3-.18,.49-.16,.37,.04,.8,.48,1.29,1.32,.15,.29,.38,.69,.7,1.21,.43,.65,.84,1.29,1.23,1.93l1.7-1.92c1.1-1.24,1.8-1.85,2.08-1.82,.18,.02,.33,.1,.45,.25,.12,.15,.17,.31,.16,.49-.02,.16-.09,.3-.23,.43-.65,.64-1.16,1.18-1.52,1.6l-.94,1.12c-.36,.42-.7,.77-1.01,1.05Z"/>
      <path class="cls-2" d="M348.83,123.36l1.22,2.24c.48,.89,.92,1.62,1.31,2.19,.1,.16,.14,.31,.13,.47-.02,.18-.1,.33-.25,.46-.15,.12-.31,.17-.49,.15-.17-.02-.32-.1-.44-.25-.29-.34-.59-.79-.88-1.34l-.74-1.43-.87-1.58-2.51,2.37-1.34,1.22c-.15,.12-.32,.18-.49,.16-.18-.02-.33-.1-.45-.25-.12-.15-.17-.31-.15-.49,.01-.16,.08-.3,.21-.43l1.31-1.19,2.73-2.58c-.41-.69-.85-1.38-1.32-2.08l-.65-1.1c-.27-.44-.52-.79-.75-1.03-.17-.17-.24-.36-.22-.56,.01-.17,.09-.33,.23-.45,.14-.13,.31-.18,.49-.16,.37,.03,.81,.48,1.3,1.32,.15,.29,.38,.69,.7,1.21,.43,.65,.84,1.29,1.23,1.93l1.7-1.92c1.1-1.24,1.79-1.85,2.08-1.82,.18,.02,.33,.1,.45,.25,.12,.15,.17,.31,.15,.49-.01,.16-.09,.3-.22,.43-.65,.64-1.16,1.18-1.52,1.6l-.94,1.12c-.36,.42-.7,.77-1.01,1.05Z"/>
      <path class="cls-4" d="M313.58,172.08l2.13-20.73,2.13-20.72"/>
      <path class="cls-4" d="M319.98,109.89l2.13-20.73,2.13-20.72,2.13-20.73,2.13-20.72"/>
      <path class="cls-4" d="M307.18,234.27c-.42,4.06-.84,8.12-1.25,12.18"/>
      <path class="cls-4" d="M349.24,29.1l-2.13,20.72-2.13,20.73"/>
      <path class="cls-4" d="M327.91,236.41c-.35,3.41-.7,6.81-1.05,10.22"/>
      <path class="cls-4" d="M340.71,112.02l2.13-20.73"/>
      <path class="cls-4" d="M338.58,132.75c-.71,6.91-1.42,13.82-2.13,20.72l-2.13,20.73"/>
      <path class="cls-4" d="M351.41,8.12c0,.08-.02,.17-.03,.25"/>
      <path class="cls-4" d="M361.44,114.15c.71-6.91,1.42-13.83,2.13-20.73"/>
      <path class="cls-4" d="M359.3,134.89c-.71,6.9-1.42,13.81-2.13,20.72s-1.42,13.83-2.13,20.74c-.71,6.9-1.43,13.82-2.14,20.73s-1.42,13.82-2.13,20.72c-.71,6.91-1.42,13.83-2.13,20.74-.28,2.75-.57,5.51-.85,8.26"/>
      <path class="cls-4" d="M372.34,8.21c-.08,.76-.16,1.53-.24,2.29-.71,6.91-1.42,13.83-2.13,20.74-.71,6.9-1.42,13.81-2.13,20.72s-1.43,13.83-2.14,20.73"/>
      <path class="cls-4" d="M368.72,246.97c.22-2.1,.43-4.2,.65-6.3,.71-6.91,1.42-13.82,2.14-20.73"/>
      <path class="cls-4" d="M386.44,74.83c.71-6.91,1.42-13.83,2.13-20.74s1.42-13.81,2.13-20.72,1.43-13.83,2.14-20.74c.15-1.45,.3-2.89,.45-4.34"/>
      <path class="cls-4" d="M382.17,116.29l2.13-20.73"/>
      <polygon class="cls-3" points="303.51 66.29 301.38 87.02 299.24 107.75 297.11 128.49 294.98 149.21 274.25 147.08 282.79 64.16 303.51 66.29"/>
      <path class="cls-3" d="M313.58,172.08l-2.14,20.73-2.13,20.73-2.13,20.73,20.73,2.14,2.14-20.74,2.13-20.72,2.13-20.74-20.73-2.13Zm9.28,47.9c-.65,.65-1.16,1.18-1.52,1.61l-.94,1.11c-.36,.42-.7,.77-1.01,1.05l1.22,2.25c.48,.88,.92,1.61,1.31,2.19,.1,.15,.14,.31,.13,.46-.02,.19-.1,.34-.25,.46-.15,.12-.31,.17-.49,.15-.17-.02-.32-.1-.45-.25-.29-.33-.58-.78-.87-1.34l-.74-1.43-.87-1.57-2.51,2.36-1.34,1.22c-.15,.13-.32,.18-.49,.17-.18-.02-.33-.11-.45-.26-.12-.14-.17-.31-.16-.49,.02-.16,.09-.3,.22-.43l1.31-1.19,2.73-2.58c-.41-.69-.85-1.38-1.32-2.08l-.65-1.1c-.27-.44-.52-.78-.76-1.03-.16-.17-.24-.35-.21-.55,.01-.18,.09-.33,.23-.46,.14-.13,.31-.18,.49-.16,.37,.04,.8,.48,1.3,1.33,.15,.28,.38,.68,.7,1.21,.43,.64,.84,1.28,1.23,1.92l1.7-1.92c1.1-1.24,1.79-1.85,2.08-1.82,.18,.02,.33,.1,.45,.25s.17,.32,.15,.5c-.01,.15-.09,.29-.22,.42Zm4.12-40.04c-.65,.64-1.16,1.18-1.52,1.6l-.94,1.11c-.36,.42-.7,.77-1.01,1.05l1.22,2.25c.48,.89,.92,1.62,1.31,2.19,.1,.16,.14,.31,.13,.47-.02,.18-.1,.33-.25,.45-.15,.12-.31,.18-.49,.16-.17-.02-.32-.1-.45-.25-.29-.34-.58-.79-.87-1.35l-.74-1.43-.87-1.57-2.51,2.36-1.34,1.22c-.15,.13-.32,.19-.49,.17-.18-.02-.33-.1-.45-.25s-.17-.32-.16-.5c.02-.15,.09-.3,.22-.42l1.31-1.19,2.73-2.59c-.41-.68-.85-1.38-1.32-2.08l-.65-1.1c-.27-.44-.52-.78-.75-1.02-.17-.17-.24-.36-.22-.56,.01-.18,.09-.33,.23-.46,.14-.12,.31-.17,.49-.16,.37,.04,.8,.48,1.3,1.33,.15,.28,.38,.69,.7,1.21,.43,.64,.84,1.28,1.23,1.93l1.7-1.92c1.1-1.25,1.79-1.85,2.08-1.82,.18,.01,.33,.1,.45,.25,.12,.14,.17,.31,.15,.49-.01,.15-.09,.3-.22,.43Z"/>
      <path class="cls-2" d="M319.39,223.75l1.22,2.25c.48,.88,.92,1.61,1.31,2.19,.1,.15,.14,.31,.13,.46-.02,.19-.1,.34-.25,.46-.15,.12-.31,.17-.49,.15-.17-.02-.32-.1-.45-.25-.29-.33-.58-.78-.87-1.34l-.74-1.43-.87-1.57-2.51,2.36-1.34,1.22c-.15,.13-.32,.18-.49,.17-.18-.02-.33-.11-.45-.26-.12-.14-.17-.31-.16-.49,.02-.16,.09-.3,.22-.43l1.31-1.19,2.73-2.58c-.41-.69-.85-1.38-1.32-2.08l-.65-1.1c-.27-.44-.52-.78-.76-1.03-.16-.17-.24-.35-.21-.55,.01-.18,.09-.33,.23-.46,.14-.13,.31-.18,.49-.16,.37,.04,.8,.48,1.3,1.33,.15,.28,.38,.68,.7,1.21,.43,.64,.84,1.28,1.23,1.92l1.7-1.92c1.1-1.24,1.79-1.85,2.08-1.82,.18,.02,.33,.1,.45,.25s.17,.32,.15,.5c-.01,.15-.09,.29-.22,.42-.65,.65-1.16,1.18-1.52,1.61l-.94,1.11c-.36,.42-.7,.77-1.01,1.05Z"/>
      <path class="cls-2" d="M323.51,183.7l1.22,2.25c.48,.89,.92,1.62,1.31,2.19,.1,.16,.14,.31,.13,.47-.02,.18-.1,.33-.25,.45-.15,.12-.31,.18-.49,.16-.17-.02-.32-.1-.45-.25-.29-.34-.58-.79-.87-1.35l-.74-1.43-.87-1.57-2.51,2.36-1.34,1.22c-.15,.13-.32,.19-.49,.17-.18-.02-.33-.1-.45-.25s-.17-.32-.16-.5c.02-.15,.09-.3,.22-.42l1.31-1.19,2.73-2.59c-.41-.68-.85-1.38-1.32-2.08l-.65-1.1c-.27-.44-.52-.78-.75-1.02-.17-.17-.24-.36-.22-.56,.01-.18,.09-.33,.23-.46,.14-.12,.31-.17,.49-.16,.37,.04,.8,.48,1.3,1.33,.15,.28,.38,.69,.7,1.21,.43,.64,.84,1.28,1.23,1.93l1.7-1.92c1.1-1.25,1.79-1.85,2.08-1.82,.18,.01,.33,.1,.45,.25,.12,.14,.17,.31,.15,.49-.01,.15-.09,.3-.22,.43-.65,.64-1.16,1.18-1.52,1.6l-.94,1.11c-.36,.42-.7,.77-1.01,1.05Z"/>
      <path class="cls-4" d="M274.25,147.08c-.71,6.91-1.42,13.83-2.13,20.73-.71,6.91-1.42,13.83-2.13,20.74s-1.43,13.81-2.14,20.72-1.42,13.83-2.13,20.74c-.55,5.37-1.11,10.73-1.66,16.1"/>
      <path class="cls-4" d="M282.79,64.16c.71-6.91,1.42-13.83,2.13-20.73l2.13-20.73c.51-4.94,1.02-9.88,1.53-14.83"/>
      <path class="cls-4" d="M389.65,247.14c.15-1.45,.3-2.89,.45-4.34,.71-6.9,1.42-13.82,2.13-20.73"/>
      <path class="cls-4" d="M407.16,76.96c.71-6.91,1.42-13.83,2.13-20.74,.72-6.9,1.43-13.81,2.14-20.72s1.42-13.83,2.13-20.73l.66-6.39"/>
      <path class="cls-4" d="M402.89,118.42l2.13-20.73"/>
      <path class="cls-4" d="M410.59,247.32c.08-.79,.16-1.59,.24-2.38,.71-6.91,1.42-13.83,2.13-20.74"/>
      <path class="cls-4" d="M427.9,79.09c.71-6.9,1.42-13.82,2.13-20.73l2.13-20.73c.71-6.9,1.42-13.82,2.14-20.73,.29-2.81,.58-5.63,.87-8.44"/>
      <path class="cls-4" d="M425.76,99.82l-2.13,20.73-2.13,20.73-2.13,20.72c-.71,6.91-1.42,13.83-2.13,20.73l-2.13,20.73"/>
      <path class="cls-4" d="M431.52,247.49c0-.14,.03-.28,.04-.42,.72-6.91,1.43-13.83,2.14-20.73"/>
      <path class="cls-4" d="M448.63,81.23c.71-6.91,1.42-13.83,2.13-20.74s1.43-13.81,2.14-20.72,1.42-13.83,2.13-20.74c.36-3.49,.72-6.99,1.08-10.48"/>
      <path class="cls-4" d="M446.5,101.95c-.71,6.91-1.42,13.83-2.13,20.73l-2.13,20.73-2.13,20.72-2.13,20.73c-.71,6.91-1.42,13.83-2.13,20.73"/>
      <path class="cls-4" d="M454.42,228.47c-.66,6.4-1.31,12.8-1.97,19.19"/>
      <path class="cls-4" d="M469.35,83.36c.71-6.91,1.43-13.83,2.14-20.74,.71-6.9,1.42-13.81,2.13-20.72s1.42-13.83,2.13-20.73l1.29-12.54"/>
      <path class="cls-4" d="M467.22,104.08l-2.13,20.73-2.13,20.73-2.13,20.72-2.13,20.73-2.13,20.73"/>
      <path class="cls-4" d="M475.16,230.61c-.59,5.74-1.19,11.48-1.78,17.22"/>
      <path class="cls-4" d="M477.29,209.88c.71-6.91,1.42-13.83,2.13-20.74,.71-6.9,1.43-13.82,2.14-20.73s1.42-13.82,2.13-20.72c.71-6.91,1.42-13.83,2.13-20.74s1.43-13.83,2.14-20.73l2.13-20.73c.71-6.9,1.42-13.82,2.13-20.73l2.13-20.73c.72-6.9,1.43-13.82,2.14-20.73,.5-4.86,1-9.73,1.5-14.59"/>
      <path class="cls-4" d="M495.89,232.74c-.52,5.08-1.05,10.18-1.57,15.27"/>
      <path class="cls-4" d="M498.02,212.01c.71-6.91,1.43-13.82,2.14-20.73s1.42-13.83,2.13-20.74c.71-6.9,1.42-13.81,2.13-20.72s1.43-13.83,2.14-20.74c.71-6.9,1.42-13.82,2.13-20.73s1.42-13.82,2.13-20.72c.71-6.91,1.43-13.83,2.14-20.74,.45-4.35,.89-8.69,1.34-13.04h0"/>
    </g>
    <g>
      <path class="cls-4" d="M307.78,24.84c-6.91-.72-13.82-1.43-20.73-2.14"/>
      <path class="cls-4" d="M514.27,46.09c-6.64-.69-13.28-1.37-19.92-2.06-6.9-.71-13.82-1.42-20.73-2.13s-13.82-1.42-20.72-2.13c-6.91-.71-13.83-1.42-20.74-2.14-6.91-.71-13.83-1.42-20.73-2.13l-20.73-2.13c-6.9-.71-13.82-1.42-20.73-2.13-6.91-.72-13.82-1.43-20.73-2.14"/>
      <path class="cls-4" d="M514.36,67.03c-.47-.04-.93-.09-1.4-.14-6.91-.71-13.83-1.42-20.74-2.13s-13.82-1.42-20.73-2.14l-20.73-2.13c-6.9-.71-13.82-1.42-20.73-2.13s-13.83-1.42-20.74-2.14c-6.9-.71-13.81-1.42-20.72-2.13s-13.83-1.42-20.73-2.13l-20.73-2.13c-6.91-.71-13.82-1.43-20.73-2.14s-13.83-1.42-20.74-2.13-13.81-1.42-20.72-2.13"/>
      <path class="cls-4" d="M303.51,66.29c6.91,.71,13.83,1.42,20.73,2.13l20.73,2.13"/>
      <path class="cls-4" d="M514.45,88c-1.21-.12-2.42-.25-3.63-.37-6.9-.71-13.82-1.43-20.73-2.14s-13.83-1.42-20.74-2.13"/>
      <path class="cls-4" d="M301.38,87.02c6.91,.71,13.83,1.42,20.73,2.13,6.91,.71,13.83,1.42,20.73,2.13"/>
      <path class="cls-4" d="M514.54,108.95l-5.85-.6c-6.91-.71-13.83-1.42-20.73-2.13-6.91-.71-13.83-1.43-20.74-2.14"/>
      <path class="cls-4" d="M402.89,118.42c6.91,.71,13.83,1.42,20.74,2.13s13.83,1.42,20.73,2.14c6.91,.71,13.82,1.42,20.73,2.13l20.73,2.13c6.91,.71,13.83,1.42,20.74,2.13,2.69,.28,5.38,.55,8.07,.83"/>
      <path class="cls-4" d="M319.98,109.89l-20.73-2.13"/>
      <path class="cls-4" d="M382.17,116.29c-6.91-.71-13.83-1.42-20.73-2.13"/>
      <path class="cls-3" d="M351.38,8.37l-2.14,20.73-20.73-2.13-20.73-2.13,1.73-16.89c13.12,.05,26.23,.11,39.35,.16h.01l2.51,.26Z"/>
      <polygon class="cls-3" points="469.35 83.36 467.22 104.08 446.5 101.95 425.76 99.82 405.03 97.68 384.3 95.55 363.57 93.42 342.85 91.28 344.98 70.56 365.7 72.69 386.44 74.83 407.16 76.96 427.9 79.09 448.63 81.23 469.35 83.36"/>
      <path class="cls-4" d="M351.38,8.37c6.91,.71,13.81,1.42,20.72,2.13s13.83,1.42,20.74,2.13c6.9,.71,13.81,1.43,20.72,2.14s13.83,1.42,20.74,2.13c6.9,.71,13.82,1.42,20.73,2.13s13.82,1.43,20.72,2.14c6.91,.71,13.83,1.42,20.74,2.13,5.9,.61,11.8,1.21,17.69,1.82"/>
      <path class="cls-4" d="M400.76,139.15c6.91,.71,13.83,1.43,20.74,2.14,6.9,.71,13.82,1.42,20.73,2.13s13.82,1.42,20.72,2.13c6.91,.71,13.83,1.43,20.74,2.14s13.83,1.42,20.73,2.13c3.43,.35,6.86,.71,10.29,1.06"/>
      <path class="cls-4" d="M317.84,130.62c-6.91-.71-13.83-1.42-20.73-2.13"/>
      <path class="cls-4" d="M380.04,137.02c-6.91-.71-13.83-1.42-20.73-2.13"/>
      <path class="cls-4" d="M398.63,159.88c6.91,.71,13.83,1.42,20.73,2.13,6.91,.71,13.83,1.42,20.74,2.13s13.81,1.43,20.72,2.14,13.83,1.42,20.74,2.13c6.9,.71,13.82,1.42,20.73,2.13l12.51,1.29"/>
      <path class="cls-4" d="M377.9,157.74c-6.91-.71-13.83-1.42-20.73-2.13-6.91-.71-13.82-1.42-20.72-2.13-6.91-.71-13.83-1.42-20.73-2.13l-20.73-2.13"/>
      <path class="cls-4" d="M375.77,178.48l-20.73-2.13-20.72-2.13"/>
      <path class="cls-4" d="M272.12,167.81c6.91,.71,13.82,1.42,20.72,2.14,6.91,.71,13.83,1.42,20.74,2.13"/>
      <path class="cls-4" d="M514.89,192.8c-4.91-.51-9.82-1.02-14.73-1.52-6.91-.71-13.83-1.42-20.74-2.14l-20.73-2.13-20.73-2.13c-6.9-.71-13.82-1.42-20.73-2.14-6.91-.71-13.83-1.42-20.74-2.13"/>
      <path class="cls-4" d="M373.64,199.21l-20.73-2.13c-6.91-.71-13.82-1.42-20.72-2.13"/>
      <path class="cls-4" d="M269.99,188.55c6.9,.71,13.81,1.42,20.72,2.13s13.83,1.42,20.73,2.13"/>
      <path class="cls-4" d="M514.98,213.75c-5.65-.57-11.31-1.16-16.96-1.74"/>
      <path class="cls-4" d="M415.1,203.48l-20.73-2.13"/>
      <path class="cls-4" d="M371.51,219.94c-6.91-.71-13.83-1.42-20.73-2.13l-20.72-2.13"/>
      <path class="cls-4" d="M267.85,209.27l20.73,2.13c6.91,.71,13.82,1.43,20.73,2.14"/>
      <path class="cls-4" d="M515.06,234.71c-6.39-.66-12.78-1.31-19.17-1.97"/>
      <path class="cls-4" d="M412.96,224.2c-6.91-.71-13.83-1.42-20.73-2.13"/>
      <polygon class="cls-3" points="498.02 212.01 495.89 232.74 475.16 230.61 475.16 230.6 454.42 228.47 433.7 226.34 412.96 224.2 415.1 203.48 435.83 205.61 456.55 207.74 477.29 209.88 498.02 212.01"/>
      <path class="cls-4" d="M307.18,234.27c-6.91-.71-13.83-1.42-20.74-2.13-6.9-.71-13.81-1.42-20.72-2.13"/>
      <polygon class="cls-3" points="402.89 118.42 400.76 139.15 398.63 159.88 396.49 180.61 394.36 201.35 392.23 222.07 371.51 219.94 373.64 199.21 375.77 178.48 380.04 137.02 382.17 116.29 402.89 118.42"/>
      <path class="cls-4" d="M435.99,247.53c-1.48-.16-2.95-.31-4.43-.46-6.9-.71-13.82-1.42-20.73-2.13s-13.83-1.42-20.73-2.14l-20.73-2.13c-6.91-.71-13.83-1.42-20.73-2.13l-20.73-2.13"/>
    </g>
    <path d="M331.02,120.33l.94-1.12c.36-.42,.87-.96,1.52-1.6,.14-.13,.21-.27,.23-.43,.01-.18-.04-.34-.16-.49-.12-.15-.27-.23-.45-.25-.28-.03-.98,.58-2.08,1.82l-1.7,1.92c-.39-.64-.8-1.28-1.23-1.93-.32-.52-.55-.92-.7-1.21-.49-.84-.92-1.28-1.29-1.32-.19-.02-.35,.03-.49,.16-.14,.12-.22,.28-.24,.45-.02,.2,.05,.39,.22,.56,.24,.24,.49,.59,.75,1.03l.65,1.1c.47,.7,.91,1.39,1.33,2.08l-2.74,2.58-1.31,1.19c-.12,.13-.2,.27-.21,.43-.02,.18,.03,.34,.15,.49,.12,.15,.27,.23,.45,.25,.17,.02,.34-.04,.5-.16l1.33-1.22,2.51-2.37,.88,1.58,.73,1.43c.3,.55,.59,1,.88,1.34,.13,.15,.27,.23,.44,.25,.18,.02,.35-.03,.49-.15,.15-.13,.23-.28,.25-.46,.02-.16-.03-.31-.13-.47-.39-.57-.82-1.3-1.31-2.19l-1.22-2.24c.31-.28,.65-.63,1.01-1.05Z"/>
    <path d="M349.84,122.31l.94-1.12c.36-.42,.87-.96,1.52-1.6,.13-.13,.21-.27,.22-.43,.02-.18-.03-.34-.15-.49-.12-.15-.27-.23-.45-.25-.29-.03-.98,.58-2.08,1.82l-1.7,1.92c-.39-.64-.8-1.28-1.23-1.93-.32-.52-.55-.92-.7-1.21-.49-.84-.93-1.29-1.3-1.32-.18-.02-.35,.03-.49,.16-.14,.12-.22,.28-.23,.45-.02,.2,.05,.39,.22,.56,.23,.24,.48,.59,.75,1.03l.65,1.1c.47,.7,.91,1.39,1.32,2.08l-2.73,2.58-1.31,1.19c-.13,.13-.2,.27-.21,.43-.02,.18,.03,.34,.15,.49,.12,.15,.27,.23,.45,.25,.17,.02,.34-.04,.49-.16l1.34-1.22,2.51-2.37,.87,1.58,.74,1.43c.29,.55,.59,1,.88,1.34,.12,.15,.27,.23,.44,.25,.18,.02,.34-.03,.49-.15,.15-.13,.23-.28,.25-.46,.01-.16-.03-.31-.13-.47-.39-.57-.83-1.3-1.31-2.19l-1.22-2.24c.31-.28,.65-.63,1.01-1.05Z"/>
    <path d="M309.04,135.57c-.12-.15-.27-.23-.45-.25-.29-.03-.98,.58-2.09,1.82l-1.7,1.92c-.38-.64-.79-1.28-1.23-1.93-.31-.52-.54-.92-.7-1.21-.49-.84-.92-1.29-1.29-1.32-.18-.02-.35,.03-.49,.16-.14,.12-.22,.28-.24,.45-.02,.2,.06,.39,.22,.56,.24,.24,.49,.59,.75,1.03l.65,1.1c.48,.7,.92,1.39,1.33,2.08l-2.73,2.58-1.31,1.19c-.13,.13-.2,.27-.22,.43-.02,.18,.03,.34,.16,.49,.12,.15,.27,.23,.44,.25,.18,.02,.34-.04,.5-.16l1.34-1.22,2.51-2.37,.87,1.58,.74,1.43c.29,.55,.58,1,.87,1.34,.13,.15,.28,.23,.44,.25,.19,.02,.35-.03,.5-.15,.14-.13,.23-.28,.25-.46,.01-.16-.03-.31-.13-.47-.39-.57-.83-1.3-1.31-2.19l-1.22-2.24c.31-.28,.65-.63,1.01-1.05l.94-1.12c.36-.42,.86-.96,1.52-1.6,.13-.13,.2-.27,.22-.43,.02-.18-.03-.34-.15-.49Z"/>
    <path d="M395.17,107.86l.94-1.11c.36-.43,.87-.96,1.52-1.61,.13-.13,.21-.27,.22-.42,.02-.18-.03-.35-.15-.5-.12-.15-.27-.23-.45-.25-.29-.03-.98,.58-2.08,1.82l-1.7,1.92c-.39-.64-.8-1.28-1.23-1.92-.32-.53-.55-.93-.7-1.21-.5-.85-.93-1.29-1.3-1.33-.18-.02-.35,.03-.49,.16-.14,.13-.22,.28-.24,.46-.02,.2,.06,.38,.22,.55,.24,.25,.49,.59,.75,1.03l.66,1.1c.47,.7,.91,1.39,1.32,2.08l-2.73,2.58-1.31,1.19c-.13,.13-.2,.27-.22,.43-.01,.18,.04,.35,.16,.5,.12,.14,.27,.23,.45,.25,.17,.01,.34-.04,.49-.17l1.34-1.22,2.51-2.36,.87,1.57,.74,1.43c.29,.56,.58,1.01,.87,1.34,.13,.15,.28,.24,.45,.25,.18,.02,.34-.03,.49-.15,.15-.12,.23-.27,.25-.46,.01-.15-.03-.31-.13-.46-.39-.58-.83-1.31-1.31-2.19l-1.22-2.25c.31-.28,.65-.63,1.01-1.05Z"/>
    <path d="M426.08,233.57l.93-1.11c.36-.43,.87-.96,1.53-1.6,.13-.13,.2-.28,.22-.43,.02-.18-.03-.35-.16-.49-.12-.15-.27-.24-.44-.26-.29-.02-.99,.58-2.09,1.83l-1.7,1.92c-.38-.65-.79-1.29-1.23-1.93-.31-.52-.55-.93-.7-1.21-.49-.85-.92-1.29-1.29-1.33-.19-.02-.35,.04-.49,.16-.14,.13-.22,.28-.24,.46-.02,.2,.05,.39,.22,.56,.24,.24,.49,.58,.75,1.02l.65,1.1c.47,.7,.92,1.4,1.33,2.08l-2.74,2.59-1.3,1.19c-.13,.12-.2,.27-.22,.42-.02,.18,.03,.35,.15,.5,.12,.15,.27,.23,.45,.25,.18,.02,.34-.04,.5-.17l1.34-1.22,2.51-2.36,.87,1.57,.73,1.43c.3,.56,.59,1.01,.88,1.35,.13,.15,.28,.23,.44,.25,.18,.01,.35-.04,.5-.16,.14-.12,.22-.27,.24-.45,.02-.16-.02-.32-.13-.47-.39-.57-.82-1.3-1.31-2.19l-1.21-2.25c.31-.28,.64-.63,1.01-1.05Z"/>
    <path d="M399.52,65.59l.94-1.11c.36-.43,.87-.96,1.52-1.61,.13-.13,.21-.27,.22-.42,.02-.18-.03-.35-.15-.5-.12-.15-.27-.23-.45-.25-.29-.03-.98,.58-2.08,1.82l-1.7,1.92c-.39-.64-.8-1.28-1.24-1.92-.31-.53-.54-.93-.69-1.21-.5-.85-.93-1.29-1.3-1.33-.18-.02-.35,.03-.49,.16-.14,.13-.22,.28-.24,.46-.02,.2,.06,.38,.22,.55,.24,.25,.49,.59,.75,1.03l.66,1.1c.47,.7,.91,1.39,1.32,2.08l-2.73,2.58-1.31,1.19c-.13,.13-.2,.27-.22,.43-.02,.18,.04,.35,.16,.49,.12,.15,.27,.24,.45,.26,.17,.01,.33-.04,.49-.17l1.34-1.22,2.51-2.36,.87,1.57,.74,1.43c.29,.56,.58,1.01,.87,1.34,.13,.15,.28,.24,.45,.25,.18,.02,.34-.03,.49-.15,.15-.12,.23-.27,.25-.46,0-.15-.03-.31-.13-.46-.39-.58-.83-1.31-1.31-2.19l-1.22-2.25c.31-.28,.65-.63,1.01-1.05Z"/>
    <path d="M324.52,182.65l.94-1.11c.36-.42,.87-.96,1.52-1.6,.13-.13,.21-.28,.22-.43,.02-.18-.03-.35-.15-.49-.12-.15-.27-.24-.45-.25-.29-.03-.98,.57-2.08,1.82l-1.7,1.92c-.39-.65-.8-1.29-1.23-1.93-.32-.52-.55-.93-.7-1.21-.5-.85-.93-1.29-1.3-1.33-.18,0-.35,.04-.49,.16-.14,.13-.22,.28-.23,.46-.02,.2,.05,.39,.22,.56,.23,.24,.48,.58,.75,1.02l.65,1.1c.47,.7,.91,1.4,1.32,2.08l-2.73,2.59-1.31,1.19c-.13,.12-.2,.27-.22,.42,0,.18,.04,.35,.16,.5s.27,.23,.45,.25c.17,.02,.34-.04,.49-.17l1.34-1.22,2.51-2.36,.87,1.57,.74,1.43c.29,.56,.58,1.01,.87,1.35,.13,.15,.28,.23,.45,.25,.18,.02,.34-.04,.49-.16,.15-.12,.23-.27,.25-.45,0-.16-.03-.31-.13-.47-.39-.57-.83-1.3-1.31-2.19l-1.22-2.25c.31-.28,.65-.63,1.01-1.05Z"/>
    <path d="M320.4,222.7l.94-1.11c.36-.43,.87-.96,1.52-1.61,.13-.13,.21-.27,.22-.42,.02-.18-.03-.35-.15-.5s-.27-.23-.45-.25c-.29-.03-.98,.58-2.08,1.82l-1.7,1.92c-.39-.64-.8-1.28-1.23-1.92-.32-.53-.55-.93-.7-1.21-.5-.85-.93-1.29-1.3-1.33-.18-.02-.35,.03-.49,.16-.14,.13-.22,.28-.23,.46-.03,.2,.05,.38,.21,.55,.24,.25,.49,.59,.76,1.03l.65,1.1c.47,.7,.91,1.39,1.32,2.08l-2.73,2.58-1.31,1.19c-.13,.13-.2,.27-.22,.43,0,.18,.04,.35,.16,.49,.12,.15,.27,.24,.45,.26,.17,.01,.34-.04,.49-.17l1.34-1.22,2.51-2.36,.87,1.57,.74,1.43c.29,.56,.58,1.01,.87,1.34,.13,.15,.28,.23,.45,.25,.18,.02,.34-.03,.49-.15,.15-.12,.23-.27,.25-.46,.01-.15-.03-.31-.13-.46-.39-.58-.83-1.31-1.31-2.19l-1.22-2.25c.31-.28,.65-.63,1.01-1.05Z"/>
    <path d="M452.23,154.2l.94-1.11c.36-.43,.87-.96,1.52-1.61,.13-.13,.21-.27,.22-.42,.02-.18-.03-.35-.15-.5s-.27-.23-.45-.25c-.29-.03-.98,.58-2.08,1.82l-1.7,1.92c-.39-.64-.8-1.28-1.23-1.92-.32-.53-.55-.93-.7-1.21-.5-.85-.93-1.29-1.3-1.33-.18-.02-.35,.04-.49,.16-.14,.13-.22,.28-.24,.46-.02,.2,.06,.38,.22,.55,.24,.25,.49,.59,.76,1.03l.65,1.1c.47,.7,.91,1.39,1.32,2.08l-2.73,2.58-1.31,1.19c-.13,.13-.2,.27-.22,.43-.01,.18,.04,.35,.16,.5,.12,.15,.27,.23,.45,.25,.17,.01,.34-.04,.49-.17l1.34-1.22,2.51-2.36,.87,1.57,.74,1.43c.29,.56,.58,1.01,.87,1.34,.13,.15,.28,.24,.45,.25,.18,.02,.34-.03,.49-.15,.15-.12,.23-.27,.25-.46,.01-.15-.03-.31-.13-.46-.39-.57-.83-1.3-1.31-2.19l-1.22-2.25c.31-.28,.65-.63,1.01-1.05Z"/>
    <path d="M456.35,114.16l.94-1.12c.36-.42,.87-.96,1.52-1.6,.13-.13,.21-.27,.22-.43,.02-.18-.03-.34-.15-.49-.12-.15-.27-.23-.45-.25-.29-.03-.98,.57-2.08,1.82l-1.7,1.92c-.39-.64-.8-1.29-1.23-1.93-.32-.52-.55-.93-.7-1.21-.5-.84-.93-1.29-1.3-1.32-.18-.02-.35,.03-.49,.16-.14,.12-.22,.27-.23,.45-.02,.2,.05,.39,.22,.56,.23,.24,.48,.58,.75,1.02l.65,1.11c.47,.69,.91,1.39,1.32,2.08l-2.73,2.58-1.31,1.19c-.13,.13-.2,.27-.22,.42-.01,.19,.04,.35,.16,.5s.27,.23,.45,.25c.17,.02,.34-.04,.49-.17l1.34-1.21,2.51-2.37,.87,1.57,.74,1.44c.29,.55,.58,1,.87,1.34,.13,.15,.28,.23,.45,.25,.18,.02,.34-.03,.49-.16,.15-.12,.23-.27,.25-.45,.01-.16-.03-.31-.13-.47-.39-.57-.83-1.3-1.31-2.19l-1.22-2.24c.31-.28,.65-.63,1.01-1.05Z"/>
    <path d="M382.03,59.89c-.13-.15-.27-.23-.45-.25-.29-.03-.98,.58-2.09,1.82l-1.7,1.92c-.38-.64-.79-1.28-1.23-1.92-.31-.53-.55-.93-.7-1.22-.49-.84-.92-1.28-1.29-1.32-.19-.02-.35,.03-.49,.16-.14,.13-.22,.28-.24,.46-.02,.2,.05,.38,.22,.55,.24,.25,.49,.59,.75,1.03l.65,1.1c.48,.7,.92,1.39,1.33,2.08l-2.74,2.58-1.3,1.19c-.13,.13-.2,.27-.22,.43-.02,.18,.03,.35,.15,.49,.12,.15,.27,.24,.45,.25,.18,.02,.34-.03,.5-.16l1.34-1.22,2.51-2.36,.87,1.57,.73,1.43c.3,.56,.59,1,.88,1.34,.13,.15,.28,.23,.44,.25,.19,.02,.35-.03,.5-.15,.14-.12,.23-.27,.24-.46,.02-.15-.02-.31-.13-.46-.39-.58-.82-1.31-1.31-2.19l-1.21-2.25c.31-.28,.64-.63,1.01-1.05l.94-1.12c.35-.42,.86-.95,1.52-1.6,.13-.13,.2-.27,.22-.42,.02-.18-.03-.35-.15-.5Z"/>
    <path d="M450.17,174.23l.94-1.12c.36-.42,.87-.96,1.52-1.6,.13-.13,.21-.28,.22-.43,.02-.18-.03-.35-.15-.49-.12-.15-.27-.24-.45-.25-.29-.03-.98,.57-2.08,1.82l-1.7,1.92c-.39-.65-.8-1.29-1.23-1.93-.32-.52-.55-.93-.7-1.21-.5-.85-.93-1.29-1.3-1.33-.18-.01-.35,.04-.49,.16-.14,.13-.22,.28-.24,.46-.02,.2,.06,.39,.22,.56,.24,.24,.49,.58,.75,1.02l.66,1.1c.47,.7,.91,1.4,1.32,2.08l-2.73,2.59-1.31,1.19c-.13,.12-.2,.27-.22,.42-.01,.19,.04,.35,.16,.5,.12,.15,.27,.23,.45,.25,.17,.02,.34-.04,.49-.17l1.34-1.22,2.51-2.36,.87,1.57,.74,1.44c.29,.55,.58,1,.87,1.34,.13,.15,.28,.23,.45,.25,.18,.02,.34-.04,.49-.16,.15-.12,.23-.27,.25-.45,.01-.16-.03-.31-.13-.47-.39-.57-.83-1.3-1.31-2.19l-1.22-2.25c.31-.28,.65-.63,1.01-1.04Z"/>
  </g>
</svg>