<?xml version="1.0" encoding="UTF-8"?>
<svg id="Layer_2" data-name="Layer 2" xmlns="http://www.w3.org/2000/svg" viewBox="0 0 520 260">
  <defs>
    <style>
      .cls-1, .cls-2 {
        stroke: #000;
        stroke-miterlimit: 10;
      }

      .cls-2 {
        fill: #fcf6e1;
      }
    </style>
  </defs>
  <path class="cls-2" d="M515.12,248.18c-3.15-.03-6.32-.05-9.47-.08-160.84-1.32-321.67-2.66-482.51-3.98-3.25-76.1-6.51-152.21-9.76-228.31-.13-3.02-.25-6.04-.39-9.06,167.04,.68,334.07,1.35,501.12,2.03,.33,79.8,.68,159.6,1.01,239.4Z"/>
  <path class="cls-1" d="M505.99,253.25c-164-.33-327.99-.68-491.99-1.01L4.88,14.87c2.83,.31,5.67,.63,8.5,.94,3.25,76.1,6.51,152.21,9.76,228.31,160.84,1.32,321.67,2.66,482.51,3.98,.12,1.71,.23,3.44,.34,5.15Z"/>
</svg>