<?xml version="1.0" encoding="UTF-8"?>
<svg id="Layer_2" data-name="Layer 2" xmlns="http://www.w3.org/2000/svg" viewBox="0 0 520 260">
  <defs>
    <style>
      .cls-1, .cls-2, .cls-3 {
        stroke: #000;
        stroke-miterlimit: 10;
      }

      .cls-4 {
        fill: #fcd321;
      }

      .cls-5 {
        fill: #ff1d25;
      }

      .cls-2 {
        fill: #fcf6e1;
      }

      .cls-3 {
        fill: none;
      }
    </style>
  </defs>
  <g>
    <path class="cls-2" d="M504.28,5.28c-.07,2.65-.13,5.31-.2,7.96-1.99,76.38-3.99,152.73-5.98,229.11-4.82,.02-9.65,.04-14.47,.06-14.64,.06-29.28,.12-43.92,.19-8.68,.03-17.35,.07-26.03,.1-13.8,.06-27.61,.12-41.41,.18-9.48,.04-18.96,.08-28.44,.12-13.04,.05-26.07,.11-39.11,.16-10.66,.05-21.32,.09-31.98,.14-11.43,.04-22.85,.09-34.28,.14-7.48,.03-14.96,.06-22.44,.1-67.8,.28-135.6,.57-203.4,.85-1.72,.01-3.43,.01-5.15,.02C6.44,164.35,5.41,84.31,4.38,4.25c73.47,.15,146.93,.31,220.4,.45,4.63,.02,9.27,.03,13.9,.03,14.26,.03,28.51,.06,42.77,.09,9.15,.02,18.31,.04,27.46,.06,13.23,.03,26.47,.05,39.7,.08,9.93,.02,19.86,.04,29.79,.06,12.7,.03,25.41,.05,38.11,.08,10.61,.02,21.21,.04,31.82,.06,10.9,.03,21.81,.05,32.71,.07,.98,0,1.97,0,2.95,.01,6.76,.01,13.52,.02,20.29,.04Z"/>
    <path class="cls-1" d="M515.62,12.5c-1.72,81.08-3.43,162.16-5.15,243.25-98.29-.2-196.59-.41-294.88-.61-67.66-.14-135.31-.28-202.97-.42v-10.33c67.8-.28,135.6-.57,203.4-.85,7.48-.04,14.96-.07,22.44-.1,11.43-.05,22.85-.1,34.28-.14,10.66-.05,21.32-.09,31.98-.14,13.04-.05,26.07-.11,39.11-.16,9.48-.04,18.96-.08,28.44-.12,13.8-.06,27.61-.12,41.41-.18,8.68-.03,17.35-.07,26.03-.1,14.64-.07,29.28-.13,43.92-.19,4.82-.02,9.65-.04,14.47-.06,1.99-76.38,3.99-152.73,5.98-229.11,3.84-.25,7.7-.5,11.54-.74Z"/>
  </g>
  <path class="cls-4" d="M396.02,14.92c-23.21,34.18-46.43,68.37-69.64,102.55,21.18-1.14,42.35-2.29,63.53-3.43-24.48,41.58-48.96,83.15-73.44,124.73,45.65-48.21,91.3-96.43,136.94-144.64-25.51-.08-51.01-.16-76.52-.24,25.14-24.68,50.27-49.35,75.41-74.03-18.76-1.65-37.52-3.29-56.28-4.94Z"/>
  <path class="cls-3" d="M407.91,21.42c-20.94,30.95-41.87,61.91-62.81,92.86,19.08-1.05,38.17-2.09,57.25-3.14-22.08,37.65-44.16,75.29-66.24,112.94,41.16-43.66,82.32-87.33,123.48-130.99-22.98-.06-45.97-.12-68.95-.18,22.66-22.35,45.33-44.7,67.99-67.05-16.9-1.48-33.81-2.96-50.71-4.44Z"/>
  <path class="cls-5" d="M459.89,167.41c2-.67,3.71-2.12,5.15-3.74,2.08-2.48,3.29-5.72,2.5-8.77-.51-1.8-1.81-3.42-3.48-4.49-1.66-1.07-3.46-1.63-5.22-2.08,1.53-1.17,2.9-2.54,3.86-4.18,1.07-1.66,1.61-3.57,1.3-5.53-.44-3.12-2.99-5.55-5.92-6.94-1.86-.91-4.02-1.51-6.23-1.27-2.33,.27-4.43,1.56-6.26,3.03-2.62,2.24-4.73,5.08-6.19,8.26-1.75,3.48-3.05,7.34-3.77,11.19,.03,.12-.07,.25-.13,.5,.03,.12,.16,.2,.33,.4,2.36,3.18,5.04,6.18,8.07,8.61,2.73,2.15,5.73,3.88,9.06,4.94,2.25,.46,4.7,.76,6.92,.04h0Z"/>
  <path class="cls-5" d="M357.27,49.31c-.54-1.6-1.69-2.96-2.99-4.11-1.98-1.66-4.57-2.63-7-2-1.44,.41-2.73,1.45-3.58,2.78-.85,1.33-1.3,2.76-1.66,4.17-.93-1.23-2.03-2.32-3.34-3.08-1.33-.85-2.85-1.28-4.41-1.04-2.49,.35-4.43,2.39-5.54,4.73-.73,1.49-1.21,3.21-1.01,4.98,.21,1.86,1.24,3.54,2.42,5,1.79,2.09,4.06,3.78,6.6,4.94,2.78,1.4,5.86,2.44,8.94,3.01,.09-.02,.2,.05,.4,.1,.09-.02,.16-.13,.32-.26,2.54-1.88,4.93-4.03,6.88-6.45,1.72-2.18,3.1-4.58,3.95-7.24,.37-1.79,.61-3.75,.03-5.53h0Z"/>
  <path d="M453.14,69.35c-.55-.57-1.25-1-1.99-1.29,1.85,.4,3.89-.23,5.17-1.88,1.45-1.86,1.43-4.53-.05-6.38-1.93-2.4-5.47-2.57-7.63-.47-1.28,1.25-1.77,3.02-1.46,4.65-.22-.68-.61-1.37-1.18-1.97-1.91-2.01-5.14-2.14-7.2-.29-2.18,1.97-2.27,5.34-.24,7.43,1.34,1.37,3.25,1.82,4.94,1.37-1.08,.77-2.31,1.63-3.33,1.99-.54,.19-.69,.89-.29,1.3l.58,.6,.59,.6c.4,.41,1.09,.28,1.3-.25,.41-1,1.31-2.21,2.08-3.29-.49,1.68-.09,3.6,1.25,4.97,1.98,2.04,5.25,2.08,7.29,.09,2.13-1.89,2.17-5.16,.19-7.19h0Z"/>
  <path d="M309.45,206.33c.13,.57,.42,1.11,.78,1.57-1.04-.95-2.6-1.32-4.08-.76-1.67,.64-2.71,2.34-2.48,4.08,.3,2.26,2.52,3.7,4.74,3.18,1.31-.31,2.33-1.25,2.77-2.41-.13,.52-.14,1.1-.01,1.7,.44,2,2.48,3.31,4.54,2.9,2.18-.43,3.57-2.54,3.07-4.64-.32-1.38-1.38-2.38-2.65-2.74,1-.08,2.13-.16,2.93-.01,.43,.08,.8-.3,.7-.72l-.14-.6-.14-.6c-.1-.41-.59-.59-.94-.33-.66,.48-1.72,.91-2.64,1.31,.98-.88,1.47-2.25,1.15-3.63-.48-2.04-2.58-3.31-4.67-2.81-2.12,.4-3.43,2.46-2.95,4.51h0Z"/>
  <path d="M322.21,132.53c-.79-.1-1.6,0-2.36,.25,1.69-.85,2.89-2.61,2.85-4.7-.04-2.36-1.72-4.43-4.03-4.94-3.01-.66-5.88,1.42-6.24,4.41-.22,1.77,.51,3.46,1.78,4.54-.6-.4-1.33-.68-2.15-.8-2.75-.37-5.35,1.55-5.79,4.28-.47,2.9,1.58,5.59,4.46,5.94,1.9,.23,3.67-.62,4.71-2.02-.36,1.28-.78,2.72-1.35,3.64-.3,.49,.02,1.13,.59,1.19l.83,.1,.83,.1c.57,.07,1.02-.46,.86-1.01-.31-1.04-.37-2.54-.44-3.87,.67,1.61,2.18,2.86,4.08,3.09,2.82,.34,5.4-1.67,5.74-4.49,.48-2.81-1.54-5.38-4.36-5.73h0Z"/>
  <path d="M430.76,190.65c-3.09-3.45-6.88-6.24-10.99-8.3-4.69-2.43-9.83-3.92-15.06-5.06-.16,.04-.35-.09-.7-.17-.16,.04-.28,.23-.56,.46-4.27,3.12-8.24,6.83-11.43,11.03-2.83,3.62-5.2,7.8-6.36,12.21-.78,3.16-1.21,6.4-.21,9.33,.95,2.77,2.79,5,5.02,6.83,3.27,2.75,7.78,4.38,11.81,3.14,2.49-.73,4.57-2.52,6.07-4.68,.85-1.35,1.52-2.83,1.99-4.42,.13,3.52,.56,8.08-.15,10.94-.27,1.06,.67,2.03,1.74,1.79l2.48-.56,2.48-.56c1.07-.24,1.5-1.52,.81-2.37-1.87-2.27-3.44-6.58-4.83-9.82,1.11,1.24,2.34,2.29,3.69,3.14,2.13,1.35,4.78,2.07,7.49,1.63,4.17-.61,7.51-4.18,9.32-7.9,1.24-2.6,1.93-5.41,1.61-8.32-.38-3.06-2.16-5.81-4.22-8.33h0Z"/>
  <path d="M336.58,180.21l-7.8-6.95c-.73-.65-.79-1.75-.14-2.42l6.85-7.68c.65-.73,1.75-.79,2.42-.14l7.8,6.96c.73,.65,.79,1.75,.14,2.42l-6.85,7.68c-.6,.67-1.75,.74-2.42,.14Z"/>
</svg>