<?xml version="1.0" encoding="UTF-8"?>
<svg id="Layer_2" data-name="Layer 2" xmlns="http://www.w3.org/2000/svg" viewBox="0 0 520 260">
  <defs>
    <style>
      .cls-1, .cls-2 {
        stroke: #000;
        stroke-miterlimit: 10;
      }

      .cls-2 {
        fill: #fcf6e1;
      }
    </style>
  </defs>
  <g>
    <path class="cls-2" d="M515.12,248.18c-3.15-.03-6.32-.05-9.47-.08-160.85-1.32-321.67-2.66-482.51-3.98-3.25-76.1-6.52-152.21-9.76-228.31l-.39-9.06c98.82,.4,197.64,.8,296.46,1.2,8.62,.04,17.25,.07,25.87,.11,59.6,.24,119.19,.48,178.79,.72,.05,12.74,.11,25.49,.16,38.23,.03,8.02,.07,16.05,.11,24.07,.17,42.38,.35,84.76,.53,127.15,.05,10.79,.09,21.58,.14,32.38,.02,5.86,.05,11.71,.07,17.57Z"/>
    <path class="cls-1" d="M505.99,253.25c-164-.33-327.99-.68-491.99-1.01L4.88,14.87c2.83,.31,5.67,.63,8.5,.94,3.25,76.1,6.51,152.21,9.76,228.31,160.84,1.32,321.67,2.66,482.51,3.98,.12,1.71,.23,3.44,.34,5.15Z"/>
  </g>
  <g>
    <path d="M443.99,37.93c-1.34-3.13-3.49-5.28-6.44-6.46-4.76-1.9-19.59,5.09-44.48,20.98l-38.38,24.54c-3.48-12.84-7.37-25.8-11.68-38.89-2.83-10.48-4.85-18.52-6.04-24.1-.53-2.09-1.08-4.07-1.65-5.94-8.62-.04-17.25-.07-25.87-.11,1.9,4.45,3.67,9.73,5.3,15.86l5.76,21.98c4.68,14.24,8.87,28.24,12.57,42l-59.32,30.85-28.14,13.96c-2.8,1.56-4.71,3.63-5.74,6.23-1.21,3.03-1.15,6.1,.2,9.23,1.34,3.13,3.49,5.28,6.44,6.46,2.88,1.15,5.99,1.01,9.32-.42l28.79-14.33,54.37-28.18,7.26,31.1,5.6,28.06c2.31,10.95,5.13,20.01,8.45,27.19,1.48,3.18,3.6,5.32,6.34,6.42,3.02,1.2,6.08,1.13,9.17-.23,3.09-1.35,5.24-3.55,6.45-6.57,1.04-2.6,1.06-5.47,.06-8.63-3.87-11.66-7.78-26.25-11.72-43.79l-9.89-44.31c6.65-3.28,14.11-7.61,22.36-13.01l21.46-14.5c8.21-5.49,19.48-12.15,33.8-19.97,2.89-1.61,4.85-3.67,5.85-6.19,1.21-3.03,1.14-6.11-.2-9.23Z"/>
    <path d="M514.91,198.23c-16.86,15.38-34.74,19.85-53.66,13.42-16.05-5.45-25.11-15.86-27.2-31.24-2.08-15.38,2.8-35.68,14.63-60.91,7.31-15.57,17.9-28.02,31.79-37.35,11.27-7.57,22.57-11.26,33.91-11.07-.04-8.02-.08-16.05-.11-24.07-15.87-.22-31.44,4.29-46.71,13.55-20.21,12.34-35.53,29.63-45.97,51.87-12.34,26.3-17.58,49.28-15.73,68.94,2.62,25.61,17.63,43.06,45.02,52.37,23.36,7.94,44.74,6.89,64.17-3.13-.05-10.8-.09-21.59-.14-32.38Z"/>
  </g>
</svg>