<?xml version="1.0" encoding="UTF-8"?>
<svg id="Layer_2" data-name="Layer 2" xmlns="http://www.w3.org/2000/svg" viewBox="0 0 520 260">
  <defs>
    <style>
      .cls-1, .cls-2, .cls-3 {
        stroke: #000;
        stroke-miterlimit: 10;
      }

      .cls-4 {
        fill: #fcd3ae;
      }

      .cls-2 {
        fill: #f7931e;
      }

      .cls-3 {
        fill: #fcf6e1;
      }
    </style>
  </defs>
  <g>
    <path class="cls-3" d="M504.28,5.28c-.07,2.65-.13,5.31-.2,7.96-1.99,76.38-3.99,152.73-5.98,229.11-4.82,.02-9.65,.04-14.47,.06-14.64,.06-29.28,.12-43.92,.19-8.68,.03-17.35,.07-26.03,.1-13.8,.06-27.61,.12-41.41,.18-9.48,.04-18.96,.08-28.44,.12-13.04,.05-26.07,.11-39.11,.16-10.66,.05-21.32,.09-31.98,.14-11.43,.04-22.85,.09-34.28,.14-7.48,.03-14.96,.06-22.44,.1-67.8,.28-135.6,.57-203.4,.85-1.72,.01-3.43,.01-5.15,.02C6.44,164.35,5.41,84.31,4.38,4.25c73.47,.15,146.93,.31,220.4,.45,4.63,.02,9.27,.03,13.9,.03,14.26,.03,28.51,.06,42.77,.09,9.15,.02,18.31,.04,27.46,.06,13.23,.03,26.47,.05,39.7,.08,9.93,.02,19.86,.04,29.79,.06,12.7,.03,25.41,.05,38.11,.08,10.61,.02,21.21,.04,31.82,.06,10.9,.03,21.81,.05,32.71,.07,.98,0,1.97,0,2.95,.01,6.76,.01,13.52,.02,20.29,.04Z"/>
    <path class="cls-1" d="M515.62,12.5c-1.72,81.08-3.43,162.16-5.15,243.25-98.29-.2-196.59-.41-294.88-.61-67.66-.14-135.31-.28-202.97-.42v-10.33c67.8-.28,135.6-.57,203.4-.85,7.48-.04,14.96-.07,22.44-.1,11.43-.05,22.85-.1,34.28-.14,10.66-.05,21.32-.09,31.98-.14,13.04-.05,26.07-.11,39.11-.16,9.48-.04,18.96-.08,28.44-.12,13.8-.06,27.61-.12,41.41-.18,8.68-.03,17.35-.07,26.03-.1,14.64-.07,29.28-.13,43.92-.19,4.82-.02,9.65-.04,14.47-.06,1.99-76.38,3.99-152.73,5.98-229.11,3.84-.25,7.7-.5,11.54-.74Z"/>
  </g>
  <g>
    <path class="cls-4" d="M475.39,32.72c-30.8-33.66-100.57-19.95-155.84,30.62-55.26,50.58-75.09,118.86-44.29,152.52,30.8,33.66,100.57,19.95,155.84-30.62,55.27-50.57,75.1-118.86,44.29-152.52Zm-62.32,95.11c-1.7,6.03-5.36,11.32-10.15,15.35-14.72,12.39-29.43,24.77-44.15,37.15,2.97,3.84,5.95,7.68,8.92,11.52-14.43-.71-28.86-1.41-43.28-2.11,1.42-14.38,2.85-28.75,4.27-43.13,2.95,4.2,5.9,8.4,8.84,12.6l69.59-60.03c1.56,1.93,7.51,9.71,7.13,21.16-.09,2.74-.53,5.24-1.17,7.49Zm5.15-30c-2.95-4.2-5.9-8.4-8.84-12.6l-69.58,60.03c-1.57-1.93-7.52-9.71-7.13-21.16,.09-2.74,.53-5.24,1.16-7.49,1.7-6.03,5.36-11.32,10.16-15.35,14.71-12.38,29.43-24.77,44.14-37.15-2.98-3.83-5.95-7.68-8.92-11.52,14.43,.71,28.87,1.41,43.28,2.11-1.41,14.38-2.85,28.76-4.27,43.13Z"/>
    <path class="cls-2" d="M422.48,54.71c-1.41,14.38-2.85,28.76-4.27,43.13-2.95-4.2-5.9-8.4-8.84-12.6l-69.58,60.03c-1.57-1.93-7.52-9.71-7.13-21.16,.09-2.74,.53-5.24,1.16-7.49,1.7-6.03,5.36-11.32,10.16-15.35,14.71-12.38,29.43-24.77,44.14-37.15-2.98-3.83-5.95-7.68-8.92-11.52,14.43,.71,28.87,1.41,43.28,2.11Z"/>
    <path class="cls-2" d="M413.06,127.84c-1.7,6.03-5.36,11.32-10.15,15.35-14.72,12.39-29.43,24.77-44.15,37.15,2.97,3.84,5.95,7.68,8.92,11.52-14.43-.71-28.86-1.41-43.28-2.11,1.42-14.38,2.85-28.75,4.27-43.13,2.95,4.2,5.9,8.4,8.84,12.6l69.59-60.03c1.56,1.93,7.51,9.71,7.13,21.16-.09,2.74-.53,5.24-1.17,7.49Z"/>
  </g>
</svg>