<?xml version="1.0" encoding="UTF-8"?>
<svg id="Layer_2" data-name="Layer 2" xmlns="http://www.w3.org/2000/svg" viewBox="0 0 48 48">
  <defs>
    <style>
      .cls-1, .cls-2, .cls-3 {
        stroke: #000;
        stroke-miterlimit: 10;
        stroke-width: .75px;
      }

      .cls-2 {
        fill: #662d91;
      }

      .cls-3 {
        fill: #93278f;
      }
    </style>
  </defs>
  <path class="cls-3" d="M45.23,17.14l-.1,2.54c-.12,.55-.3,1.08-.55,1.56-1.85,3.84-6.92,5.76-9.35,6.67-4.73,1.79-8.79,1.65-11.69,1.53-5.33-.22-11.92-1.13-17.55-5.99-1.01-.88-3.33-3.85-3.2-7.18,.01-.3,.04-.6,.1-.91,.85-4.76,7.04-7.92,12.75-9.22,2.22-.5,4.35-.73,6.1-.66,9.33,.36,17.89,2.03,22.24,8.17,.37,.53,1.04,1.83,1.24,3.47Z"/>
  <path class="cls-2" d="M45.2,18.86v12.6c-2.27,2.09-6.01,4.93-11.27,6.63-9.14,2.96-17.1,.64-20.55-.66-4.5-1.7-7.8-4.12-9.9-5.99h0c-.25-.23-.48-.43-.7-.64v-13.68c0,3.33,2.43,6.21,3.47,7.05,5.81,4.64,12.44,5.29,17.77,5.3,2.9,0,6.96-.02,11.62-1.99,2.39-1.01,7.39-3.12,9.08-7.03,.23-.5,.38-1.03,.48-1.58Z"/>
  <path class="cls-1" d="M45.2,31.46v2.98c-2.27,2.09-6.01,4.93-11.27,6.63-9.14,2.96-17.1,.64-20.55-.66-4.5-1.7-7.8-4.12-9.9-5.99h0c-.25-.23-.48-.43-.7-.64v-2.98c.22,.21,.44,.41,.7,.63h0c2.11,1.88,5.4,4.3,9.9,6,3.45,1.3,11.42,3.62,20.55,.66,5.26-1.7,9-4.53,11.27-6.63Z"/>
</svg>