<?xml version="1.0" encoding="UTF-8"?>
<svg id="Layer_2" data-name="Layer 2" xmlns="http://www.w3.org/2000/svg" viewBox="0 0 48 48">
  <defs>
    <style>
      .cls-1, .cls-2 {
        stroke: #000;
        stroke-miterlimit: 10;
        stroke-width: .75px;
      }

      .cls-2 {
        fill: #ff931e;
      }
    </style>
  </defs>
  <path class="cls-2" d="M45.21,16.26v2.55c-.1,.56-.26,1.09-.48,1.58-1.7,3.91-6.69,6.03-9.08,7.03-4.66,1.97-8.72,2-11.62,1.99-5.33-.01-11.96-.66-17.77-5.3-1.05-.84-3.47-3.72-3.47-7.05,0-.3,.02-.6,.06-.91,.66-4.79,6.72-8.19,12.38-9.71,2.19-.59,4.32-.9,6.07-.9,9.33,0,17.95,1.33,22.55,7.29,.39,.51,1.11,1.78,1.37,3.42Z"/>
  <path class="cls-2" d="M45.21,18.81v12.6c-2.27,2.09-6.01,4.93-11.27,6.63-9.14,2.96-17.1,.64-20.55-.66-4.5-1.7-7.8-4.12-9.9-5.99h0c-.25-.23-.48-.43-.7-.64v-13.68c0,3.33,2.43,6.21,3.47,7.05,5.81,4.64,12.44,5.29,17.77,5.3,2.9,0,6.96-.02,11.62-1.99,2.39-1.01,7.39-3.12,9.08-7.03,.23-.5,.38-1.03,.48-1.58Z"/>
  <path class="cls-1" d="M45.21,31.4v2.98c-2.27,2.09-6.01,4.93-11.27,6.63-9.14,2.96-17.1,.64-20.55-.66-4.5-1.7-7.8-4.12-9.9-5.99h0c-.25-.23-.48-.43-.7-.64v-2.98c.22,.21,.44,.41,.7,.63h0c2.11,1.88,5.4,4.3,9.9,6,3.45,1.3,11.42,3.62,20.55,.66,5.26-1.7,9-4.53,11.27-6.63Z"/>
</svg>